/* XPM */
static char *result[] = {
/* columns rows colors chars-per-pixel */
"64 64 21 1 ",
"  c gray22",
". c #004040",
"X c #005858",
"o c #007070",
"O c #007474",
"+ c #007878",
"@ c #007C7C",
"# c #484848",
"$ c gray33",
"% c #008484",
"& c #008C8C",
"* c #009898",
"= c #00A4A4",
"- c #20B0B0",
"; c #20B4B4",
": c #48C0C0",
"> c #74C8C8",
", c #9CDCDC",
"< c #B8E8E8",
"1 c #D8F4F4",
"2 c #FFFFFF",
/* pixels */
"22222222222222222222222222222222222222222222222222222222        ",
"22222222222222222222222222222222222222222222222222222222 @++++++",
"22222222222222222222222222222222222222222222222222222222 -**&Oo-",
"22222222222222222222222222222222222222222222222222222222 ----@.o",
"22222222222222222222222222222222222222222222222222222222 ----+@&",
"22222222222222222222222222222222222222222222222222222222 ----%XX",
"22222222222222222222222222222222222222222222222222222222 -----@+",
"22222222222222222222222222222222222222222222222222222222 *%<-,-&",
"22222222222222222222222222222222222222222222222222222222 @o%-<:=",
"22222222222222222222222222222222222222222222222222222222 +@&-<>=",
"22222222222222222222222222222222222222222222222222222222 ==--<>=",
"22222222222222222222222222222222222222222222222222222222 ----<>=",
"22222222222222222222222222222222222222222222222222222222 ----<>=",
"22222222222222222222222222222222222222222222222222222222 ----<>=",
"22222222222222222222222222222222222222222222222222222222 ----<>=",
"22222222222222222222222222222222222222222222222222222222 *%<-<>=",
"22222222222222222222222222222222222222222222222222222222 @o%-<>-",
"22222222222222222222222222222222222222222222222222222222 +@&-<>-",
"22222222222222222222222222222222222222222222222222222222 ==--<>-",
"22222222222222222222222222222222222222222222222222222222 ----<>-",
"22222222222222222222222222222222222222222222222222222222 ----<>;",
"22222222222222222222222222222222222222222222222222222222 ----<>;",
"22222222222222222222222222222222222222222222222222222222 ----<>;",
"22222222222222222222222222222222222222222222222222222222 *%<-<>;",
"22222222222222222222222222222222222222222222222222222222 @o%-<>;",
"22222222222222222222222222222222222222222222222222222222 +@&-<>;",
"22222222222222222222222222222222222222222222222222222222 ==--<>:",
"22222222222222222222222222222222222222222222222222222222 ----<>;",
"22222222222222222222222222222222222222222222222222222222 --;;<>:",
"22222222222222222222222222222222222222222222222222222222 -;;;<>;",
"22222222222222222222222222222222222222222222222222222222 ;;;;<>:",
"22222222222222222222222222222222222222222222222222222222 *%<;<>%",
"22222222222222222222222222222222222222222222222222222222 @o%;<-%",
"22222222222222222222222222222222222222222222222222222222 +@&:<*%",
"22222222222222222222222222222222222222222222222222222222 ==:>>*%",
"22222222222222222222222222222222222222222222222222222222 :>>,;*%",
"22222222222222222222222222222222222222222222222222222222 >>,,-*%",
"22222222222222222222222222222222222222222222222222222222 >,,<-*%",
"22222222222222222222222222222222222222222222222222222222 ,<<<-*%",
"22222222222222222222222222222222222222222222222222222222 >;<1-*%",
"22222222222222222222222222222222222222222222222222222222 -@;<-*%",
"22222222222222222222222222222222222222222222222222222222 --><;*%",
"22222222222222222222222222222222222222222222222222222222 >><,;*%",
"22222222222222222222222222222222222222222222222222222222 1<,,;*%",
"22222222222222222222222222222222222222222222222222222222 <,,>;**",
"22222222222222222222222222222222222222222222222222222222 ,,>>;*;",
"22222222222222222222222222222222222222222222222222222222 ,>:::-;",
"22222222222222222222222222222222222222222222222222222222 *%<:<;;",
"22222222222222222222222222222222222222222222222222222222 @o%:<:;",
"22222222222222222222222222222222222222222222222222222222 +@&:<>-",
"22222222222222222222222222222222222222222222222222222222 ==::<>-",
"22222222222222222222222222222222222222222222222222222222 :::;<>-",
"22222222222222222222222222222222222222222222222222222222 ::;;<>-",
"22222222222222222222222222222222222222222222222222222222 ;;;;<>-",
"22222222222222222222222222222222222222222222222222222222 ;;;;<>-",
"22222222222222222222222222222222222222222222222222222222 *%<;<>-",
"22222222222222222222222222222222222222222222222222222222 @o%;<>-",
"22222222222222222222222222222222222222222222222222222222 +@&-<>>",
"22222222222222222222222222222222222222222222222222222222 ==--<<<",
"22222222222222222222222222222222222222222222222222222222 -------",
"22222222222222222222222222222222222222222222222222222222 ----*%<",
"22222222222222222222222222222222222222222222222222222222 ----@o%",
"22222222222222222222222222222222222222222222222222222222#----+@&",
"22222222222222222222222222222222222222222222222222222222$$$$$$$$"
};
