/* XPM */
static char *result[] = {
/* columns rows colors chars-per-pixel */
"64 64 42 1 ",
"  c black",
". c #202020",
"X c #2C2C2C",
"o c gray22",
"O c #404000",
"+ c #585400",
"@ c #706C00",
"# c #004040",
"$ c #005858",
"% c #007070",
"& c #007474",
"* c #007878",
"= c #007C7C",
"- c #484848",
"; c gray33",
": c #646464",
"> c gray44",
", c #7C7C7C",
"< c #848400",
"1 c #9C9C00",
"2 c #B4AC00",
"3 c #CCC400",
"4 c #E4D800",
"5 c #FCF400",
"6 c #008484",
"7 c #008C8C",
"8 c #009898",
"9 c #00A4A4",
"0 c #20B0B0",
"q c #20B4B4",
"w c #48C0C0",
"e c #74C8C8",
"r c gray55",
"t c #989898",
"y c gray66",
"u c #B4B4B4",
"i c #9CDCDC",
"p c #B8E8E8",
"a c #C0C0C0",
"s c #D0D0D0",
"d c #D8F4F4",
"f c #FFFFFF",
/* pixels */
"ffffffffffffffffffffffffffffffffoooooooooooooooooooooooooooooooo",
"ffffffffffffffffffffffffffffffffo=******************************",
"ffffffffffffffffffffffffffffffffo0887&%077777&%087777&%077777&%0",
"ffffffffffffffffffffffffffffffffo0000=#%00000=#%00000=#%00000=#%",
"ffffffffffffffffffffffffffffffffo0000*=700000*=700000*=700000*=7",
"ffffffffffffffffffffffffffffffffo00006$$$$$$$$$$$$$$$$$$$$$$$$$$",
"ffffffffffffffffffffffffffffffffo00000=*%%%%%%%%%%%%%%%%%%%%%%%%",
"ffffffffffffffffffffffffffffffffo86p0i07777777777777777777777777",
"ffffffffffffffffffffffffffffffffo=%60pw999999999999999990000qqqq",
"ffffffffffffffffffffffffffffffffo*=70pe99999999999999900000qqqqq",
"ffffffffffffffffffffffffffffffffo9900pe999999999999900000qqqqwqw",
"ffffffffffffffffffffffffffffffffo0000pe9999999999900000qqqqqwqwq",
"ffffffffffffffffffffffffffffffffo0000pe99999999000000qqqqwqwqwqw",
"ffffffffffffffffffffffffffffffffo0000pe999999000000qqqqqwqwqwqwq",
"ffffffffffffffffffffffffffffffffo0000pe9999000000qqqqqqwqwqwqwqw",
"ffffffffffffffffffffffffffffffffo86p0pe990000000qqqqqqwqwqwqwqwq",
"ffffffffffffffffffffffffffffffffo=%60pe0000000qqqqqwqwqwqwqwqwqw",
"ffffffffffffffffffffffffffffffffo*=70pe00000qqqqqqwqwqwqwqwqwqwq",
"ffffffffffffffffffffffffffffffffo9900pe000qqqqqqqwqwqwqwqwqwqwqq",
"ffffffffffffffffffffffffffffffffo0000pe0qqqqqqqqwqwqwqwqwqwqwqqq",
"ffffffffffffffffffffffffffffffffo0000peqqqqqqqqwqwqwqwqwqwqwqwqq",
"ffffffffffffffffffffffffffffffffo0000peqqqqqwqwqwqwqwqwqwqwqwqq0",
"ffffffffffffffffffffffffffffffffo0000peqqqqwqwqwqwqwqwqwqwqwqq0q",
"ffffffffffffffffffffffffffffffffo86p0peqqqwqwqwqwqwqwqwqwqwqq0q0",
"ffffffffffffffffffffffffffffffffo=%60peqqwqwqwqwqwqwqwqwqwqq0q00",
"ffffffffffffffffffffffffffffffffo*=70peqwqwqwqwqwqwqwqwqwqq0q000",
"ffffffffffffffffffffffffffffffffo9900pewqwqwqwqwqwqwqwqwqq0q0000",
"ffffffffffffffffffffffffffffffffo0000peqwqwqwqwysssssssaa0q00000",
"ffffffffffffffffffffffffffffffffo00qqpewqwqwqw0,:>>,,rtyaq000009",
"ffffffffffffffffffffffffffffffffo0qqqpeqw245w0=X:oy>,;stu0000099",
"ffffffffffffffffffffffffffffffffoqqqqpew*+<5q9=X:::>>,,ru0000909",
"ffffffffffffffffffffffffffffffffo86pqpe6&O<4e7=X::::>>,,u0009099",
"ffffffffffffffffffffffffffffffffo=%6qp067O<4w7=X:::::>>,y0090999",
"ffffffffffffffffffffffffffffffffo*=7wp86iO<4w7=X;-<335>>y0909999",
"ffffffffffffffffffffffffffffffffo99wee86eO<3w7=X-X@  3:>y9099999",
"ffffffffffffffffffffffffffffffffoweeiq86eO<3w7=XoX@  3::y0999998",
"ffffffffffffffffffffffffffffffffoeeii086eO<3w7=XXX+XX3::y9999989",
"ffffffffffffffffffffffffffffffffoeiip086wO<2w7=XXX++@<::y9999898",
"ffffffffffffffffffffffffffffffffoippp086wO<2w7=XXXXXXX::t9998988",
"ffffffffffffffffffffffffffffffffoeqpd086wO<1w7=XXXXXX-::t9989888",
"ffffffffffffffffffffffffffffffffo0=qp0867&O@q7=Xoo--;:::t9998888",
"ffffffffffffffffffffffffffffffffo00epq86**6qq7=Xo.>;:Xr:r9989887",
"ffffffffffffffffffffffffffffffffoeepiq8666qqq7=XXo;;;:::r9898878",
"ffffffffffffffffffffffffffffffffodpiiq867qqq07=XXXXXXXXX:8988887",
"ffffffffffffffffffffffffffffffffopiieq88qqqq07==========89888878",
"ffffffffffffffffffffffffffffffffoiieeq8qqqq007777777777998888787",
"ffffffffffffffffffffffffffffffffoiewww0qqq0000000909999988887877",
"ffffffffffffffffffffffffffffffffo86pwpqqq00000009099999888878777",
"ffffffffffffffffffffffffffffffffo=%6wpwq000000090999998888787777",
"ffffffffffffffffffffffffffffffffo*=7wpe0000000909099989887878776",
"ffffffffffffffffffffffffffffffffo99wwpe0000009090999898878787777",
"ffffffffffffffffffffffffffffffffowwwqpe0000090909998988887877776",
"ffffffffffffffffffffffffffffffffowwqqpe0000909099989888878777767",
"ffffffffffffffffffffffffffffffffoqqqqpe0009090909898888787777676",
"ffffffffffffffffffffffffffffffffoqqqqpe0090909099988887877776767",
"ffffffffffffffffffffffffffffffffo86pqpe0009090999888878777767776",
"ffffffffffffffffffffffffffffffffo=%6qpe0090909998888787777777767",
"ffffffffffffffffffffffffffffffffo*=70peeeeeeeeeeeeeeeeeewwwqq099",
"ffffffffffffffffffffffffffffffffo9900pppppppppppppppppppiiiieeww",
"ffffffffffffffffffffffffffffffffo0000000000000999988888888766===",
"ffffffffffffffffffffffffffffffffo000086p0000086p988888%q8766=*%8",
"ffffffffffffffffffffffffffffffffo0000=%600000=%688888=#%766==%#$",
"ffffffffffffffffffffffffffffffff-0000*=700000*=788888*=7766==%%*",
"ffffffffffffffffffffffffffffffff;;;;;;;;;;;;;;;;;;;;;;;;;;;;;;;;"
};
