/* XPM */
static char *result[] = {
/* columns rows colors chars-per-pixel */
"64 64 41 1 ",
"  c black",
". c #202020",
"X c #2C2C2C",
"o c gray22",
"O c #404000",
"+ c #585400",
"@ c #706C00",
"# c #004040",
"$ c #005858",
"% c #007070",
"& c #007474",
"* c #007878",
"= c #007C7C",
"- c #484848",
"; c gray33",
": c #646464",
"> c gray44",
", c #7C7C7C",
"< c #848400",
"1 c #9C9C00",
"2 c #B4AC00",
"3 c #CCC400",
"4 c #E4D800",
"5 c #FCF400",
"6 c #008484",
"7 c #008C8C",
"8 c #009898",
"9 c #00A4A4",
"0 c #20B0B0",
"q c #20B4B4",
"w c #48C0C0",
"e c #74C8C8",
"r c gray55",
"t c #989898",
"y c gray66",
"u c #9CDCDC",
"i c #B8E8E8",
"p c #C0C0C0",
"a c #D0D0D0",
"s c #D8F4F4",
"d c #FFFFFF",
/* pixels */
"ddddddddddddddddddddddddddddddddddddddddoooooooooooooooooooooooo",
"ddddddddddddddddddddddddddddddddddddddddo=**********************",
"ddddddddddddddddddddddddddddddddddddddddo0887&%077777&%087777&%0",
"ddddddddddddddddddddddddddddddddddddddddo0000=#%00000=#%00000=#%",
"ddddddddddddddddddddddddddddddddddddddddo0000*=700000*=700000*=7",
"ddddddddddddddddddddddddddddddddddddddddo00006$$$$$$$$$$$$$$$$$$",
"ddddddddddddddddddddddddddddddddddddddddo00000=*%%%%%%%%%%%%%%%%",
"ddddddddddddddddddddddddddddddddddddddddo86i0u077777777777777777",
"ddddddddddddddddddddddddddddddddddddddddo=%60iw99999999999999999",
"ddddddddddddddddddddddddddddddddddddddddo*=70ie99999999999999900",
"ddddddddddddddddddddddddddddddddddddddddo9900ie99999999999990000",
"ddddddddddddddddddddddddddddddddddddddddo0000ie9999999999900000q",
"ddddddddddddddddddddddddddddddddddddddddo0000ie99999999000000qqq",
"ddddddddddddddddddddddddddddddddddddddddo0000ie999999000000qqqqq",
"ddddddddddddddddddddddddddddddddddddddddo0000ie9999000000qqqqqqw",
"ddddddddddddddddddddddddddddddddddddddddo86i0ie990000000qqqqqqwq",
"ddddddddddddddddddddddddddddddddddddddddo=%60ie0000000qqqqqwqwqw",
"ddddddddddddddddddddddddddddddddddddddddo*=70ie00000qqqqqqwqwqwq",
"ddddddddddddddddddddddddddddddddddddddddo9900ie000qqqqqqqwqwqwqw",
"ddddddddddddddddddddddddddddddddddddddddo0000ie0qqqqqqqqwqwqwqwq",
"ddddddddddddddddddddddddddddddddddddddddo0000ieqqqqqqqqwqwqwqwqw",
"ddddddddddddddddddddddddddddddddddddddddo0000ieqqqqqwqwqwqwqwqwq",
"ddddddddddddddddddddddddddddddddddddddddo0000ieqqqqwqwqwqwqwqwqw",
"ddddddddddddddddddddddddddddddddddddddddo86i0ieqqqwqwqwqwqwqwqwq",
"ddddddddddddddddddddddddddddddddddddddddo=%60ieqqwqwqwqwqwqwqwqw",
"ddddddddddddddddddddddddddddddddddddddddo*=70ieqwqwqwqwqwqwqwqwq",
"ddddddddddddddddddddddddddddddddddddddddo9900iewqwqwqwqwqwqwqwqw",
"ddddddddddddddddddddddddddddddddddddddddo0000ieqwqwqwqwyaaaaaaap",
"ddddddddddddddddddddddddddddddddddddddddo00qqiewqwqwqw0,:>>,,rty",
"ddddddddddddddddddddddddddddddddddddddddo0qqqieqw245w0=X:oy>,;at",
"ddddddddddddddddddddddddddddddddddddddddoqqqqiew*+<5q9=X:::>>,,r",
"ddddddddddddddddddddddddddddddddddddddddo86iqie6&O<4e7=X::::>>,,",
"ddddddddddddddddddddddddddddddddddddddddo=%6qi067O<4w7=X:::::>>,",
"ddddddddddddddddddddddddddddddddddddddddo*=7wi86uO<4w7=X;-<335>>",
"ddddddddddddddddddddddddddddddddddddddddo99wee86eO<3w7=X-X@  3:>",
"ddddddddddddddddddddddddddddddddddddddddoweeuq86eO<3w7=XoX@  3::",
"ddddddddddddddddddddddddddddddddddddddddoeeuu086eO<3w7=XXX+XX3::",
"ddddddddddddddddddddddddddddddddddddddddoeuui086wO<2w7=XXX++@<::",
"ddddddddddddddddddddddddddddddddddddddddouiii086wO<2w7=XXXXXXX::",
"ddddddddddddddddddddddddddddddddddddddddoeqis086wO<1w7=XXXXXX-::",
"ddddddddddddddddddddddddddddddddddddddddo0=qi0867&O@q7=Xoo--;:::",
"ddddddddddddddddddddddddddddddddddddddddo00eiq86**6qq7=Xo.>;:Xr:",
"ddddddddddddddddddddddddddddddddddddddddoeeiuq8666qqq7=XXo;;;:::",
"ddddddddddddddddddddddddddddddddddddddddosiuuq867qqq07=XXXXXXXXX",
"ddddddddddddddddddddddddddddddddddddddddoiuueq88qqqq07==========",
"ddddddddddddddddddddddddddddddddddddddddouueeq8qqqq0077777777779",
"ddddddddddddddddddddddddddddddddddddddddouewww0qqq00000009099999",
"ddddddddddddddddddddddddddddddddddddddddo86iwiqqq000000090999998",
"ddddddddddddddddddddddddddddddddddddddddo=%6wiwq0000000909999988",
"ddddddddddddddddddddddddddddddddddddddddo*=7wie00000009090999898",
"ddddddddddddddddddddddddddddddddddddddddo99wwie00000090909998988",
"ddddddddddddddddddddddddddddddddddddddddowwwqie00000909099989888",
"ddddddddddddddddddddddddddddddddddddddddowwqqie00009090999898888",
"ddddddddddddddddddddddddddddddddddddddddoqqqqie00090909098988887",
"ddddddddddddddddddddddddddddddddddddddddoqqqqie00909090999888878",
"ddddddddddddddddddddddddddddddddddddddddo86iqie00090909998888787",
"ddddddddddddddddddddddddddddddddddddddddo=%6qie00909099988887877",
"ddddddddddddddddddddddddddddddddddddddddo*=70ieeeeeeeeeeeeeeeeee",
"ddddddddddddddddddddddddddddddddddddddddo9900iiiiiiiiiiiiiiiiiii",
"ddddddddddddddddddddddddddddddddddddddddo00000000000009999888888",
"ddddddddddddddddddddddddddddddddddddddddo000086i0000086i988888%q",
"ddddddddddddddddddddddddddddddddddddddddo0000=%600000=%688888=#%",
"dddddddddddddddddddddddddddddddddddddddd-0000*=700000*=788888*=7",
"dddddddddddddddddddddddddddddddddddddddd;;;;;;;;;;;;;;;;;;;;;;;;"
};
