/* XPM */
static char *result[] = {
/* columns rows colors chars-per-pixel */
"64 64 42 1 ",
"  c black",
". c #202020",
"X c #2C2C2C",
"o c gray22",
"O c #404000",
"+ c #585400",
"@ c #706C00",
"# c #004040",
"$ c #005858",
"% c #007070",
"& c #007474",
"* c #007878",
"= c #007C7C",
"- c #484848",
"; c gray33",
": c #646464",
"> c gray44",
", c #7C7C7C",
"< c #848400",
"1 c #9C9C00",
"2 c #B4AC00",
"3 c #CCC400",
"4 c #E4D800",
"5 c #FCF400",
"6 c #008484",
"7 c #008C8C",
"8 c #009898",
"9 c #00A4A4",
"0 c #20B0B0",
"q c #20B4B4",
"w c #48C0C0",
"e c #74C8C8",
"r c gray55",
"t c #989898",
"y c gray66",
"u c #B4B4B4",
"i c #9CDCDC",
"p c #B8E8E8",
"a c #C0C0C0",
"s c #D0D0D0",
"d c #D8F4F4",
"f c #FFFFFF",
/* pixels */
"ffffffffoooooooooooooooooooooooooooooooooooooooooooooooooooooooo",
"ffffffffo=******************************************************",
"ffffffffo0887&%077777&%087777&%077777&%077777&%077777&%077777&%0",
"ffffffffo0000=#%00000=#%00000=#%00000=#%qqww0=#%www00=#%00000=#%",
"ffffffffo0000*=700000*=700000*=700000*=7qwei0*=7ww000*=700000*=7",
"ffffffffo00006$$$$$$$$$$$$$$$$$$$$$$$$$$$$$$$$$$$$$$$$$$$$$$$$$$",
"ffffffffo00000=*%%%%%%%%%%%%%%%%%%%%%%%%%%%%%%%%%%%%%%%%%%%%%%%%",
"ffffffffo86p0i07777777777777777777777777777777777777777777777777",
"ffffffffo=%60pw999999999999999990000qqqqqwqwqwqwqqqq000999998887",
"ffffffffo*=70pe99999999999999900000qqqqqwqwqwqwqqqq0009999988887",
"ffffffffo9900pe999999999999900000qqqqwqwqwqwqwqqqq00099999898887",
"ffffffffo0000pe9999999999900000qqqqqwqwqwqwqwqqqq000909998988777",
"ffffffffo0000pe99999999000000qqqqwqwqwqwqwqwqqqq0009099989887777",
"ffffffffo0000pe999999000000qqqqqwqwqwqwqwqwqqqq00090999898888777",
"ffffffffo0000pe9999000000qqqqqqwqwqwqwqwqwqqqq000909998988887777",
"ffffffffo86p0pe990000000qqqqqqwqwqwqwqwqwqqqq0009099989888877777",
"ffffffffo=%60pe0000000qqqqqwqwqwqwqwqwqwqqqq00000999998888777677",
"ffffffffo*=70pe00000qqqqqqwqwqwqwqwqwqwqqqq0q0009999988887777677",
"ffffffffo9900pe000qqqqqqqwqwqwqwqwqwqwqqqq0q00099999898878776777",
"ffffffffo0000pe0qqqqqqqqwqwqwqwqwqwqwqqqq0q000999998988787776777",
"ffffffffo0000peqqqqqqqqwqwqwqwqwqwqwqwqq0q0009999989887877777777",
"ffffffffo0000peqqqqqwqwqwqwqwqwqwqwqwqq0q00090999898888777767777",
"ffffffffo0000peqqqqwqwqwqwqwqwqwqwqwqq0q000909999988887777677777",
"ffffffffo86p0peqqqwqwqwqwqwqwqwqwqwqq0q0009099999888878776777787",
"ffffffffo=%60peqqwqwqwqwqwqwqwqwqwqq0q00090999998888787767777777",
"ffffffffo*=70peqwqwqwqwqwqwqwqwqwqq0q000909999988887877676777787",
"ffffffffo9900pewqwqwqwqwqwqwqwqwqq0q0000099999898878776767777877",
"ffffffffo0000peqwqwqwqwysssssssaa0q00000999998988787767677777787",
"ffffffffo00qqpewqwqwqw0,:>>,,rtyaq000009999989888877776767777877",
"ffffffffo0qqqpeqw245w0=X:oy>,;stu0000099999898888787767677778787",
"ffffffffoqqqqpew*+<5q9=X:::>>,,ru0000909998988887877676767777887",
"ffffffffo86pqpe6&O<4e7=X::::>>,,u0009099999888878776767677778787",
"ffffffffo=%6qp067O<4w7=X:::::>>,y0090999998888787767676767787887",
"ffffffffo*=7wp86iO<4w7=X;-<335>>y0909999988887877776767677778887",
"ffffffffo99wee86eO<3w7=X-X@  3:>y9099999898878777767676777787887",
"ffffffffoweeiq86eO<3w7=XoX@  3::y0999998988787877676767677878887",
"ffffffffoeeii086eO<3w7=XXX+XX3::y9999989888878776767676777788887",
"ffffffffoeiip086wO<2w7=XXX++@<::y9999898888787767676767777878887",
"ffffffffoippp086wO<2w7=XXXXXXX::t9998988887877676767677778788887",
"ffffffffoeqpd086wO<1w7=XXXXXX-::t9989888878777767676767777888887",
"ffffffffo0=qp0867&O@q7=Xoo--;:::t9998888787777676767677778788887",
"ffffffffo00epq86**6qq7=Xo.>;:Xr:r9989887877776767676777787888897",
"ffffffffoeepiq8666qqq7=XXo;;;:::r9898878787767676767777778888887",
"ffffffffodpiiq867qqq07=XXXXXXXXX:8988887877676767676777787888897",
"ffffffffopiieq88qqqq07==========89888878777767676767777878888987",
"ffffffffoiieeq8qqqq007777777777998888787777676767677778788888897",
"ffffffffoiewww0qqq0000000909999988887877776767676777777878888987",
"ffffffffo86pwpqqq00000009099999888878777767676767677778788888897",
"ffffffffo=%6wpwq000000090999998888787777676767676777787888888997",
"ffffffffo*=7wpe0000000909099989887878776767676767777778788889897",
"ffffffffo99wwpe0000009090999898878787777676767677777787888888997",
"ffffffffowwwqpe0000090909998988887877776767676767777878888889897",
"ffffffffowwqqpe0000909099989888878777767676767677777787888888997",
"ffffffffoqqqqpe0009090909898888787777676767676777777878888889997",
"ffffffffoqqqqpe0090909099988887877776767676767777778788888898997",
"ffffffffo86pqpe0009090999888878777767776767676777787878888889997",
"ffffffffo=%6qpe0090909998888787777777767676767777778788888898999",
"ffffffffo*=70peeeeeeeeeeeeeeeeeewwwqq099990qwwwwwwwwwwwwqqqqqqqq",
"ffffffffo9900pppppppppppppppppppiiiieewwweeiiiiiiiiiiiiiiiieeeew",
"ffffffffo0000000000000999988888888766=====6778888889900000000000",
"ffffffffo000086p0000086p988888%q8766=*%8==6788%q8889086p0000086p",
"ffffffffo0000=%600000=%688888=#%766==%#$=6678=#%88990=%600000=%6",
"ffffffff-0000*=700000*=788888*=7766==%%*66788*=788900*=700000*=7",
"ffffffff;;;;;;;;;;;;;;;;;;;;;;;;;;;;;;;;;;;;;;;;;;;;;;;;;;;;;;;;"
};
