/* XPM */
static char *result[] = {
/* columns rows colors chars-per-pixel */
"64 64 42 1 ",
"  c black",
". c #202020",
"X c #2C2C2C",
"o c gray22",
"O c #404000",
"+ c #585400",
"@ c #706C00",
"# c #004040",
"$ c #005858",
"% c #007070",
"& c #007474",
"* c #007878",
"= c #007C7C",
"- c #484848",
"; c gray33",
": c #646464",
"> c gray44",
", c #7C7C7C",
"< c #848400",
"1 c #9C9C00",
"2 c #B4AC00",
"3 c #CCC400",
"4 c #E4D800",
"5 c #FCF400",
"6 c #008484",
"7 c #008C8C",
"8 c #009898",
"9 c #00A4A4",
"0 c #20B0B0",
"q c #20B4B4",
"w c #48C0C0",
"e c #74C8C8",
"r c gray55",
"t c #989898",
"y c gray66",
"u c #B4B4B4",
"i c #9CDCDC",
"p c #B8E8E8",
"a c #C0C0C0",
"s c #D0D0D0",
"d c #D8F4F4",
"f c #FFFFFF",
/* pixels */
"ffffffffffffffffoooooooooooooooooooooooooooooooooooooooooooooooo",
"ffffffffffffffffo=**********************************************",
"ffffffffffffffffo0887&%077777&%087777&%077777&%077777&%077777&%0",
"ffffffffffffffffo0000=#%00000=#%00000=#%00000=#%qqww0=#%www00=#%",
"ffffffffffffffffo0000*=700000*=700000*=700000*=7qwei0*=7ww000*=7",
"ffffffffffffffffo00006$$$$$$$$$$$$$$$$$$$$$$$$$$$$$$$$$$$$$$$$$$",
"ffffffffffffffffo00000=*%%%%%%%%%%%%%%%%%%%%%%%%%%%%%%%%%%%%%%%%",
"ffffffffffffffffo86p0i077777777777777777777777777777777777777777",
"ffffffffffffffffo=%60pw999999999999999990000qqqqqwqwqwqwqqqq0009",
"ffffffffffffffffo*=70pe99999999999999900000qqqqqwqwqwqwqqqq00099",
"ffffffffffffffffo9900pe999999999999900000qqqqwqwqwqwqwqqqq000999",
"ffffffffffffffffo0000pe9999999999900000qqqqqwqwqwqwqwqqqq0009099",
"ffffffffffffffffo0000pe99999999000000qqqqwqwqwqwqwqwqqqq00090999",
"ffffffffffffffffo0000pe999999000000qqqqqwqwqwqwqwqwqqqq000909998",
"ffffffffffffffffo0000pe9999000000qqqqqqwqwqwqwqwqwqqqq0009099989",
"ffffffffffffffffo86p0pe990000000qqqqqqwqwqwqwqwqwqqqq00090999898",
"ffffffffffffffffo=%60pe0000000qqqqqwqwqwqwqwqwqwqqqq000009999988",
"ffffffffffffffffo*=70pe00000qqqqqqwqwqwqwqwqwqwqqqq0q00099999888",
"ffffffffffffffffo9900pe000qqqqqqqwqwqwqwqwqwqwqqqq0q000999998988",
"ffffffffffffffffo0000pe0qqqqqqqqwqwqwqwqwqwqwqqqq0q0009999989887",
"ffffffffffffffffo0000peqqqqqqqqwqwqwqwqwqwqwqwqq0q00099999898878",
"ffffffffffffffffo0000peqqqqqwqwqwqwqwqwqwqwqwqq0q000909998988887",
"ffffffffffffffffo0000peqqqqwqwqwqwqwqwqwqwqwqq0q0009099999888877",
"ffffffffffffffffo86p0peqqqwqwqwqwqwqwqwqwqwqq0q00090999998888787",
"ffffffffffffffffo=%60peqqwqwqwqwqwqwqwqwqwqq0q000909999988887877",
"ffffffffffffffffo*=70peqwqwqwqwqwqwqwqwqwqq0q0009099999888878776",
"ffffffffffffffffo9900pewqwqwqwqwqwqwqwqwqq0q00000999998988787767",
"ffffffffffffffffo0000peqwqwqwqwysssssssaa0q000009999989887877676",
"ffffffffffffffffo00qqpewqwqwqw0,:>>,,rtyaq0000099999898888777767",
"ffffffffffffffffo0qqqpeqw245w0=X:oy>,;stu00000999998988887877676",
"ffffffffffffffffoqqqqpew*+<5q9=X:::>>,,ru00009099989888878776767",
"ffffffffffffffffo86pqpe6&O<4e7=X::::>>,,u00090999998888787767676",
"ffffffffffffffffo=%6qp067O<4w7=X:::::>>,y00909999988887877676767",
"ffffffffffffffffo*=7wp86iO<4w7=X;-<335>>y09099999888878777767676",
"ffffffffffffffffo99wee86eO<3w7=X-X@  3:>y90999998988787777676767",
"ffffffffffffffffoweeiq86eO<3w7=XoX@  3::y09999989887878776767676",
"ffffffffffffffffoeeii086eO<3w7=XXX+XX3::y99999898888787767676767",
"ffffffffffffffffoeiip086wO<2w7=XXX++@<::y99998988887877676767677",
"ffffffffffffffffoippp086wO<2w7=XXXXXXX::t99989888878776767676777",
"ffffffffffffffffoeqpd086wO<1w7=XXXXXX-::t99898888787777676767677",
"ffffffffffffffffo0=qp0867&O@q7=Xoo--;:::t99988887877776767676777",
"ffffffffffffffffo00epq86**6qq7=Xo.>;:Xr:r99898878777767676767777",
"ffffffffffffffffoeepiq8666qqq7=XXo;;;:::r98988787877676767677777",
"ffffffffffffffffodpiiq867qqq07=XXXXXXXXX:89888878776767676767777",
"ffffffffffffffffopiieq88qqqq07==========898888787777676767677778",
"ffffffffffffffffoiieeq8qqqq0077777777779988887877776767676777787",
"ffffffffffffffffoiewww0qqq00000009099999888878777767676767777778",
"ffffffffffffffffo86pwpqqq000000090999998888787777676767676777787",
"ffffffffffffffffo=%6wpwq0000000909999988887877776767676767777878",
"ffffffffffffffffo*=7wpe00000009090999898878787767676767677777787",
"ffffffffffffffffo99wwpe00000090909998988787877776767676777777878",
"ffffffffffffffffowwwqpe00000909099989888878777767676767677778788",
"ffffffffffffffffowwqqpe00009090999898888787777676767676777777878",
"ffffffffffffffffoqqqqpe00090909098988887877776767676767777778788",
"ffffffffffffffffoqqqqpe00909090999888878777767676767677777787888",
"ffffffffffffffffo86pqpe00090909998888787777677767676767777878788",
"ffffffffffffffffo=%6qpe00909099988887877777777676767677777787888",
"ffffffffffffffffo*=70peeeeeeeeeeeeeeeeeewwwqq099990qwwwwwwwwwwww",
"ffffffffffffffffo9900pppppppppppppppppppiiiieewwweeiiiiiiiiiiiii",
"ffffffffffffffffo0000000000000999988888888766=====67788888899000",
"ffffffffffffffffo000086p0000086p988888%q8766=*%8==6788%q8889086p",
"ffffffffffffffffo0000=%600000=%688888=#%766==%#$=6678=#%88990=%6",
"ffffffffffffffff-0000*=700000*=788888*=7766==%%*66788*=788900*=7",
"ffffffffffffffff;;;;;;;;;;;;;;;;;;;;;;;;;;;;;;;;;;;;;;;;;;;;;;;;"
};
