/* XPM */
static char *a11ea67ef609458593f04962c91597a6kBRKraewoAiwdj4d[] = {
/* columns rows colors chars-per-pixel */
"64 64 227 2 ",
"   c #3C3C24",
".  c #423834",
"X  c #1E570A",
"o  c #2C4705",
"O  c #324604",
"+  c #334B05",
"@  c #344D09",
"#  c #384E0A",
"$  c #2E590C",
"%  c #395607",
"&  c #35550C",
"*  c #38540E",
"=  c #375A0D",
"-  c #38451B",
";  c #2C5D14",
":  c #385512",
">  c #375B17",
",  c #385A11",
"<  c #1F7C1F",
"1  c #30620C",
"2  c #296615",
"3  c #356316",
"4  c #396315",
"5  c #386618",
"6  c #366818",
"7  c #356D1A",
"8  c #396B1B",
"9  c #34731E",
"0  c #38711E",
"q  c #3A7B1D",
"w  c #3C4721",
"e  c #3C5824",
"r  c #386522",
"t  c #376C2F",
"y  c #287D22",
"u  c #357621",
"i  c #397521",
"p  c #337B22",
"a  c #387B24",
"s  c #287737",
"d  c #415F16",
"f  c #446719",
"g  c #4D7819",
"h  c #4B5A2B",
"j  c #4B4A34",
"k  c #426C24",
"l  c #487625",
"z  c #5A7322",
"x  c #487839",
"c  c #524245",
"v  c #554349",
"b  c #5B5A40",
"n  c #6A595B",
"m  c #715C63",
"M  c #736263",
"N  c #786868",
"B  c #7E6672",
"V  c #2C8318",
"C  c #288326",
"Z  c #2B8525",
"A  c #2E892A",
"S  c #378727",
"D  c #398227",
"F  c #338C25",
"G  c #388429",
"H  c #348C2D",
"J  c #398D2D",
"K  c #3A912D",
"L  c #2A8D36",
"P  c #388931",
"I  c #2A923A",
"U  c #359133",
"Y  c #399332",
"T  c #389A35",
"R  c #37973A",
"E  c #39A13B",
"W  c #52832C",
"Q  c #5B822F",
"!  c #598831",
"~  c #479530",
"^  c #419534",
"/  c #429937",
"(  c #459C39",
")  c #499D3B",
"_  c #618F36",
"`  c #619639",
"'  c #4CA23D",
"]  c #56AA3C",
"[  c #68A33F",
"{  c #1D9648",
"}  c #1C8F57",
"|  c #159C5F",
" . c #1A9C5E",
".. c #289544",
"X. c #3A9240",
"o. c #219B54",
"O. c #2C9D55",
"+. c #219D5D",
"@. c #349353",
"#. c #299C67",
"$. c #1BA26A",
"%. c #19A574",
"&. c #23A062",
"*. c #27A46C",
"=. c #28A877",
"-. c #36AC79",
";. c #4F8248",
":. c #469D4C",
">. c #4C8A55",
",. c #528A57",
"<. c #459B53",
"1. c #5B9450",
"2. c #629B40",
"3. c #729F42",
"4. c #4FA742",
"5. c #51A641",
"6. c #55AA43",
"7. c #59AC45",
"8. c #5DAF49",
"9. c #5AB346",
"0. c #5DB24A",
"q. c #55A253",
"w. c #67A946",
"e. c #6CA749",
"r. c #62B44B",
"t. c #66B84E",
"y. c #68B94B",
"u. c #72B74D",
"i. c #67B753",
"p. c #6BBC52",
"a. c #73BE55",
"s. c #7BB957",
"d. c #569865",
"f. c #4CA462",
"g. c #55A467",
"h. c #5EA775",
"j. c #5BB379",
"k. c #69B96C",
"l. c #61A578",
"z. c #61B47C",
"x. c #65C053",
"c. c #6CC254",
"v. c #72C456",
"b. c #75C559",
"n. c #7BC45B",
"m. c #76CA5A",
"M. c #7CCC5D",
"N. c #7DD05F",
"B. c #7EC760",
"V. c #7ED164",
"C. c #84B250",
"Z. c #81C85D",
"A. c #80D05F",
"S. c #85CA63",
"D. c #90CE6A",
"F. c #83D362",
"G. c #89D566",
"H. c #86DB67",
"J. c #89D867",
"K. c #8AD568",
"L. c #8DDB69",
"P. c #92D56C",
"I. c #93DE6D",
"U. c #9ADC71",
"Y. c #8EE46D",
"T. c #93E26D",
"R. c #96E272",
"E. c #9BE374",
"W. c #99E878",
"Q. c #A0E877",
"!. c #A2E679",
"~. c #A4EB7A",
"^. c #AAED7E",
"/. c #34AE84",
"(. c #3BAD85",
"). c #3BB286",
"_. c #31B48B",
"`. c #48B487",
"'. c #43B28A",
"]. c #4BB58D",
"[. c #5FBC8A",
"{. c #4FBB93",
"}. c #54BA92",
"|. c #5BBE95",
" X c #5EBF98",
".X c #62AB81",
"XX c #64B386",
"oX c #61BA85",
"OX c #66BB8E",
"+X c #69BE95",
"@X c #5FC094",
"#X c #5DC199",
"$X c #67C196",
"%X c #64C29A",
"&X c #6CC69E",
"*X c #6FC89F",
"=X c #70C79F",
"-X c #6EC7A0",
";X c #6FC8A0",
":X c #71C7A1",
">X c #70C8A0",
",X c #7ACDA6",
"<X c #74CDAA",
"1X c #7BCEA9",
"2X c #79D0AC",
"3X c #7BD6B3",
"4X c #AEF181",
"5X c #B3F584",
"6X c #B7F886",
"7X c #BAF58A",
"8X c #BBFA8A",
"9X c #80CFAA",
"0X c #83D2AD",
"qX c #85D5B3",
"wX c #8AD5B1",
"eX c #89D8B9",
"rX c #92D9B7",
"tX c #95DBB9",
"yX c #9BDDBD",
"uX c #9FE0BF",
"iX c #C1FF8F",
"pX c #C4FE91",
"aX c #CBFF95",
"sX c #CAFF98",
"dX c #D1FF9B",
"fX c #DAFFA8",
"gX c #A4E2C3",
/* pixels */
">X;X>X=X;X>X>X>X>X>X;X;X=X;X;X;X=X=X>X>X>X;X>X*X>X;X=X>X>X>X>X>X>X=X>X;X>X;X>X>X>X;X>X>X;X>X=X>X;X>X*X>X>X>X;X>X;X>X>X>X>X>X>X>X",
">X>X>X>X>X=X>X*X=X;X>X>X>X>X;X;X*X*X*X>X=X>X>X>X>X>X;X>X>X>X>X>X>X>X>X>X>X>X;X>X>X>X=X>X=X>X>X;X>X>X>X>X>X*X=X>X=X>X>X>X>X>X;X>X",
">X>X;X>X;X>X=X>X>X>X>X;X>X=X;X=X>X,X>X=X>X*X*X;X>X>X>X;X>X>X>X>X;X>X>X;X;X>X>X;X>X*X>X=X;X>X*X>X>X;X;X>X*X*X>X;X>X>X;X>X;X>X>X>X",
">X=X;X;X>X>X>X>X>X;X=X>X>X,X:X>X>X].%X=X>X,X*X>X;X=X;X;X>X>X>X>X>X>X>X>X;X>X>X=X>X>X;X>X>X>X>X>X>X>X>X*X,X:X;X>X}.@X>X>X>X>X>X;X",
";X;X=X>X>X>X>X>X>X>X>X>X:X|.|.,X*X(.|.,X%X}.*X=X;X;X>X>X>X>X&X,.,.,X>X>X;X>X;X;X>X*X>X;X*X>X;X>X=X>X>X,X#X}.,X*X'.}.,X&X}.&X>X>X",
"=X;X:X=X=X>X=X>X>X;X>X;X,X|.].@X=X{.%X&X}.].*X,X;X;X=X>X:X$X1.z ! l.=X>X=X>X;X;X>X>X>X>X>X>X>X=X>X;X>X:X|.].%X>X}.%X&X}.].;X>X>X",
">X;X;X:X>X>X=X>X;X>X;X>X;X,X+X'.>X,X,X}.].,X>X>X:X>X=X>X:Xd.3.fX4X& OX>X>X=X;X:X=X;X>X>X>X>X*X>X>X>X>X=X,X%X'.*X:X,X|.].,X;X;X;X",
">X;X;X;X>X>X>X>X;X;X;X;X;X;X;X;X>X=X>X=X>X>X=X:X=X>X>X>X:X<.v.aX~.J OX:X>X>X>X=X>X>X;X=X>X;X*X*X>X*X>X;X=X=X=X=X=X=X;X;X=X;X;X;X",
";X=X;X>X>X>X>X>X;X;X>X>X>X>X>X>X;X>X>X>X>X>X=X:X>X>X:X1X,.' W.pX5Xm.k h.;X;X;X>X>X>X>X;X>X>X=X*X=X;X>X*X>X>X>X>X;X;X>X=X>X>X=X>X",
">X>X>X>X>X>X=X>X:X:X>X>X>X=X=X>X>X>X=X;X=X>X:X=X>X=X<.<.2 Z.8X8X5XG.q s <.oX;X>X;X>X>X>X>X=X>X,X,X>X>X=X>X>X=X>X;X;X>X:X>X>X>X>X",
">X>X>X=X>X:X=X>X%X%X=X>X,X>X>X>X>X=X>X;X>X>X*X$XoXk.y.y.6.!.pX8X5XA.0.y.u.i.j.oX;X;X>X>X=X>X=X#X|.*X*X>X>X>X>X>X:X;X:X>X=X>X>X=X",
"=X;X>X>X*X%X&X,X}.'.:X:X%X&X>X>X;X>X>X>X>X>X>XR V a.aXpXK.~.8X8X5XF.N.~.aXQ.K H $X>X>X;X#X*X,X@X).>X,X%X&X:X>X>X=X>X=X>X>X>X>X>X",
">X;X>X>X%X'.%X,X}.].>X&X'.@X>X>X>X>X>X>X-X-X-XX.r.J.L.6XF.~.8X8X5XN.F.F.m.F.F.K oX>X>X&X'.%X>X#X].>X>X].}.:X:X>X>X>X>X=X>X=X>X>X",
">X>X>X>X;X*X'.#X:X>X&X'.#X>X>X>X;X;X;X>X:X:X<XL M.pX^.A.4X8X8X8X5XM.4XT.v.L.5XK j.2X<X>X*X'.@X,X;X*X'.|.>X>X:X>X*X>X;X>X>X>X>X;X",
">X=X>X>X>X>X%X&X,X>X>X%X*X>X>X>X;X;X;XoX<.<.K.4XE.K.L.^.8X8X7X8X6X^.8X4X4X^.G.Q.4Xg.R g.*X%X&X>X>X>X%X&X>X>X>X=X>X>X>X;X;X>X>X=X",
">X>X>X>X>X>X>X>X>X=X>X:X>X>X>X>X;X;X2Xf.V ] ] a.n.A.Q.iX6X8X6X8X6X8X6XpX5XU.E.B.6.6.K A <X>X>X>X>X>X>X>X>X;X>X>X;X>X>X=X>X>X>X;X",
";X>X>X=X>X>X>X*X*X>X>X>X=X>X=X>X&X>X.Xq.S.U.A H p.5XpX8X8X5X8X5X7X6X8X4XR.U.~.' < i.U.i.g.*X>X>X>X>X>X>X>X>X;X&X;X>X>X>X>X=X>X>X",
"=X>X;X>X;X>X>X>X>X>X>X;X*X>X>X>X,X<Xt e.pXU.( m.6XiX4X5X7X8X6X6X6X7XiXI.I.4XF.I.4.s.7XU.d OX;X>X>X>X>X;X;X=X>X,X>X>X>X&X>X>X>X>X",
";X>X;X>X>X;X>X;X;X>X;X>X;X*X&X,XuX&X<Xg.Z ^ B.4XpXW.F.8X8X6X6X8X6X8X6X8XE.G.8X8XE.6.y X.&X>X>X=X>X>X>X>X>X*X:XgX,X&X>X=X*X>X=X>X",
">X>X>X=X>X>X=X>X>X=X>X*XyX0X%X1XyXx w.R.4XE.T 5Xa.0.7X8X6XiX8X8X8XpXiXT.W.U./ pXi.i.4X4XV.l h.=X>X;X&XtXwX%X,XgX1X%X0XyX;X>X;X>X",
"=X>X:X;X>X>X>X;X>X>X>X;X1XtXwX>X1X& C.dX4X6.8.r.a.U.aX8X8Xp.S.aX4X8.4XL.I.iXK.r.8.6.S.dX5Xd ;.<X;X>X>X1XtXwX;X1X=XwXtX1X>X;X;X=X",
">X>X=X;X*X>X=X;X>X=X=X>X%X0X0X&X&Xd.s.P.D.i.~.Z G.dXQ.^.pX8.m.sX~./ !.4XQ.Q.G.' m.b.b.U.M.1.XX=X>X>X>X%X9XwX&X&X&X0X0X&X>X;X>X>X",
">X>X;X;X=X;X>X>X>X>X>X>X:X=X=X>X&X+Xq.] !.aX6X6.n.K.0.p.4XR.^.8X6XU.6XpXR.' C M.V.4X8XB.) z.>X<X>X>X>X>X&X&X=X>X=X&X&X>X=X:X;X;X",
"=X>X;X>X>X;X;X>X>X>X=X>X>X=X:X:X|.; D.aX8X4XM.G.6.H Y Y p.4X8X5X6X8X5XI.6.H / M.M.W.8X8XiXf >.3X1X>X>X>X=X=X=X>X=X=X=X>X>X;X;X;X",
">X>X>X=X>X;X>X;X>X;X;X;X=X>X$Xx e o D.dX5XV.U p.E.6X~.b.K R.5XF.L.pX7.C 6.A.n.F./ 6.~.8XsXl o , ;.=X>X>X>X>X>X:X=X>X>X>X>X>X=X>X",
">X>X>X>X>X>X>X>X>X;X;X;X:X;Xh.% u.u.! C.s.5 P.~.6XpX5XA.t.8.' Y / 7.t.t.c.L.5XN.U.` W R.z w.n.g > <X=X>X>X=X>X=X>X>X>X>X>X;X>X;X",
">X>X>X>X>X;X>X>X:X:X;X;X:X=X=Xq.9.Y.f 7 8.C.aXpX8X8X4XM.^./ A 0.' < v.G.I.~.E.Q.4XS.w.) o n.m.q.l.<X=X>X>X=X;X;X>X>X;X>X>X>X>X=X",
">X>X>X>X;X;X%X&X,X:X:X:X;X;X=Xh.4.t.W X w.dXG.^.pX6XE.I.iXB.m.^.I.i.b.L.Q.~.T.^.L.8X!.; 7 r.7.q.XX=X>X>X>X>X;X;X=X>X>X>X*X>X;X>X",
">X>X%X&X,X*X(.|.,X&X%X;X>X>XOX4 N.U T 9 Q Q./ !.7XI.L.iX7X6X8X8X8X7XL.!.!.G.^.G.5XpXs.$ E Z x.` r <X&X*X;X=X>X;X;X>X*X>X>X>X>X=X",
":X:X}.].>X*X'.%X,X%X'.*X>X>XoXF U H v.r.C ) 5XaX8.8.pX5X8XJ.R.8X5XV.5XI.E.E.Y ^.aXb.y ^ A.' H F :.,X&X>X;X>X>X;X=X>X>X>X>X;X;X>X",
">X:X>X|.].;X&X>X}.'.&X>X>X<Xh.= H p.F.J.r.C ) ) C a.dX7XpX5X6X8X5X4XpX5XiX~.H ^ ) H / F.A.N.' 2 x 3X>X>X>X>X>X>X>X>X;X>X;X>X>X>X",
">X>X,X%X@X;X>X>X$X%X>X>X>Xl.> = c.F.I.t.4.p.0.r./ T S.pXr.U.pXpX8XiXr.4X4X5.Y 7.0.t.0.] J.J.V.W o ;.&X>X>X>X>X>X&X&X>X=X>X>X>X>X",
">X>X>X>X>X>X;X>X=X,X=X=X=X<.f ` c.F.c.' r.L.L.T.6.y J C.] W.6XE.~.iX0.e.2.C H M.I.L.b.' 0.F.m.w.W 7 $X,X;X*X;X;X1X,X;X&X&X>X,X&X",
"=X>X>X>X>X>X>X=X=X>X=X=X=Xf.] c.p a.T 7.T.N.c.A.r.Y p $ r.~.E.b.F.4XH.l 2 U ' M.v.b.L.M.H p.~ ) c.P $X<X>X,X&X;XeX2X&X>X1X>X;X;X",
">X;X=X>X>X>X;X>X=X>X=X=X&X,.1 S * Z A 0.J.v.Y c.Y.i.H K H t.A.M.M.M./ H K ' J.F.( 6.G.m.K H 3 7 D , +X;X2XqX>X*XqX1X;X<XqX>X;X;X",
">X>X>X>X>X>X>X>X>X>X=X=X=X,.1 J # * p x.v.K M.A.V.F.c.H n.5.H K Y Y n.' ' G.N.F.F.5.' V.U 5 O 9 S * $X>X*X1XeX;X;X;X1XqX&X;X;X;X",
">X>X;X>X;X>X>X>X>X>X>X;X=X>X>.1 a.~ 3 a 9.V.Y.N.J.c.' v.J.( ' m.r.H b.V.7.7.J.V.L.H.i./ 5 9 r.! r +X=X=X=X=X,X*X*X*X>X,X>X;X;X;X",
"*X>X=X>X>X=X>X*X=X>X=X>X&XXX1.[ 0.T > & k _ ! V.m.Y Y J.L.^ 6.W.F.F b.E.0.C 0.H.w.! W 2 # Z 9.r.` d.&X=X=X=X*X>X;X>X*X=X>X>X;X;X",
">X=X>X;X;X>X*X>X;X>X>X;X>X,.g x.H U u 4 3 ; + ` / U r.F.c.5.7.r.0.5.0.M.v./ H w.f o 4 5 5 K A 6.w.+ &X=X=X>X>X>X>X>X=X>X>X=X;X:X",
">X;X>X>X>X>X>X>X>X=X>X>X*Xd.1 U J G Y T Y Y , O 2 7.T.M.H v.p.H ' J.Y 0.T.M.Z @ @ a T Y Y H K Y p > OX=X=X>X>X=X*X>X>X>X>X:X=X:X",
">X;X:X>X>X>X>X>X;X;X:X>X>Xg.4 T J , a T Y J , * + ! H.N.Y i.F.N.V.F.T r.L.u.& & & 0 Y Y Y , i T a , -.*X>X>X>X>X>X>X>X>X>X>X>X>X",
";X;X=X;X=X>X>X=X;X>X:X=X;X%Xs % 4 D Y i 5 U H J 4 : f f 4 > w.W.M.f > f f f : D P U a > Y P 8 * 6  .'.;X>X>X>X>X:X>X>X>X*X>X>X;X",
"=X;X;X;X>X>X>X>X>X>X;X>X;X>X`.s * T a 5 a Y Y Y H a u u * O f Q l + + 5 p u G Y T Y J 0 8 T 5 ; } _.*X;X,X>X>X:X}.%X>X>X,X>X>X>X",
">X>X;X;X>X>X=X>X>X>X:X>X>X X}.#.% 7 & i R Y Y Y D a T Y a 0 6 2 5 0 0 H T J a Y U K U J * 8 % s _.%X;X>X%X|.:X>X(.|.,X&X}.=X:X:X",
">X=X=X:X=X>X>X;X:X;X:X:X>X}.].-.r 4 & i T U Y J 5 0 Y K J Y Y Y Y Y J J Y G , a J Y T H : , 3 @.#X;X;X<X|.].%X=X{.%X&X}.].&X>X;X",
">X>X>X;X>X>X>X=X;X;X:X;X>X>X+X/.$.R 4 8 Y J Y = a T U J : a Y Y Y Y , 0 Y Y U , a Y K G , S  .=.|.;X>X;X,X%X'.&X>X,X|.].>X>X>X>X",
">X>X;X;X>X=X>X>X;X;X;X;X>X-X-. .U U Y u * 4 Y > u T G , & G R Y Y U 4 # 9 T K , J a * 4 J Y J ..'.*X;X>X>X>X&X;X>X=X*X*X>X;X>X;X",
">X=X;X;X>X;X;X;X;X;X;X;X%X/. .L K K T a # , 4 , > D J % : , a Y J 5 , & 0 Y 4 : 4 > & , Y Y K U O.|.&X>X>X>X>X>X>X>X>X>X>X=X>X>X",
">X=X>X>X>X>X>X>X,X>X>X*X-.%.{ K J Y a 4 : : * : * 4 r w & + 9 E P & @ - e 8 * * * * = , 0 J Y J U %.].*X>X>X>X>X>X>X>X>X;X=X>X;X",
">X>X>X>X>X:X>X:X%X%X>X$X%. ...K Y U 4 # , = : = = * - . h h k V i h k j   % , , , , : : & G Y K R o.$.@X>X>X>X>X>X>X=X;X>X>X>X>X",
">X>X>X=X&X%X*X,X}.'.=X%X=.I ~ J Y Y 5 # : , , , : = : . m B b * h m B v - , * , , * : , * G Y K J K &.}.&X>X>X>X>X>X*X>X>X>X>X&X",
">X>X>X:X%X'.%X,X}.].:X*X%...J K Y Y 5 * = : * , : = : . n M m M M m M v - = , , , , = , * G Y K U U *.].}.:X;X=X>X>X>X>X>X>X:X}.",
">X>X>X>X=X%X`.#X*X*X&X'.}.=.{ S J K K 7 & * , : , = : : . n N M M M c - * , , , : = * , S U K K U | (.|.*X>X;X>X>X>X>X=X>X>X>X>X",
">X>X;X>X>X=X%X%X>X>X&X@X>X&X-.{ K K T H 8 # * = , : , = - j c c c c w = = , , * * # , G K H J L &.}.#X;X>X>X>X>X=X;X>X>X>X>X>X>X",
"=X>X>X>X>X&X=X,X>X>X>X,X=X=X&X-...H J Y J 8 i , * * = , = - - - - - , = = : * & 5 0 D T K ~ L &.{.,X>X>X>X>X=X*X;X>X>X;X>X>X>X>X",
">X>X;X=X>X&X=X=X>X>X>X=X=X=X=X*X'...I U K T Y 8 5 > * * * = = = * = * : * : 5 4 J T Y J I L &.{.1X;X>X;X>X>X>X*X;X>X>X>X=X>X>X>X",
">X>X>X>X&X&X>X>X>X;X>X>X=X;X>X>X,X{.=.O.K U U Y T a = > , , 4 = , > = 4 = 5 Y Y U U J R $.%.|.,X;X;X;X;X;X;X:X>X>X>X=X=X>X;X>X=X",
"=X>X>X>X=X>X>X=X>X=X;X;X*X*X&X,XuX,X*X@X-.=.$.T K J J K J J J H J J J K J J K K  .$.| =.&X=X>X=X;X;X=X&X=X=X,XuX,X&X*X*X>X>X;X>X",
";X>X>X>X>X>X>X>X>X>X=X*XtX0X%X1XgX,X%X0XrX%X%X-.+. .{ F F F F F F F F F I  .+.+.-.}.&X*X>X;X;X;X:X=X&XtX0X%X,XgX1X%X0XtX*X>X>X>X",
";X>X>X&X>X>X>X>X;X>X>X;X0XtX0X>X0X>X0XrX1X=X=X=X&X%X%XoXoXj.j.j.j.j.j.z.[.#X%X%X&X;X;X;X>X>X;X;X>X:X=X1XtXwX;X0X>X0XtX0X;X;X>X=X",
";X=X>X>X=X>X>X=X;X>X>X;X%X0XwX&X&X&XwX0X%X>X;X>X=X=X>X>X>X>X>X<X>X<X>X;X;X>X;X>X>X>X;X=X>X>X;X>X>X>X>X%X9XwX=X&X&XwX0X&X;X*X>X>X",
";X;X;X;X:X;X>X>X>X>X=X>X=X*X*X=X>X>X*X&X>X>X>X=X>X>X>X;X;X>X>X>X>X>X>X;X>X>X>X>X=X>X>X>X;X>X=X>X=X>X=X:X=X&X=X;X=X&X&X;X>X>X;X>X",
"=X:X;X;X;X;X*X>X=X>X>X>X>X;X=X>X>X=X=X>X>X=X;X>X*X>X>X=X=X>X>X>X>X>X>X>X>X>X;X>X>X;X>X>X>X=X;X>X=X=X:X:X:X:X:X;X;X=X;X;X;X;X=X>X",
">X=X:X;X;X=X;X>X>X;X*X>X>X>X=X>X>X>X>X>X>X>X>X>X>X>X>X;X>X;X>X;X>X>X=X>X;X*X>X>X>X>X*X>X;X>X=X>X=X*X*X,X=X+X=X;X;X;X=X>X=X>X;X>X"
};
