/* XPM */
static char *_a3e7762505b4541dd5c6983173643b5i5uD4nO9b2qfT5Cz[] = {
/* columns rows colors chars-per-pixel */
"64 64 110 2 ",
"   c black",
".  c #040706",
"X  c #050908",
"o  c #1F160A",
"O  c #111F18",
"+  c #0E1726",
"@  c #201F20",
"#  c #022129",
"$  c #2E202E",
"%  c #342E2E",
"&  c #20392E",
"*  c #223D31",
"=  c #37373B",
"-  c #7E2036",
";  c #604030",
":  c #2C2C44",
">  c #103873",
",  c #254B75",
"<  c gray25",
"1  c #46454B",
"2  c #404356",
"3  c #B92E2E",
"4  c #EE5D3D",
"5  c #C3865E",
"6  c #D09870",
"7  c #1451A2",
"8  c #4B75CB",
"9  c #39AD85",
"0  c #3CAE86",
"q  c #7C8484",
"w  c #41B088",
"e  c #42B189",
"r  c #45B38B",
"t  c #46B38B",
"y  c #46B48C",
"u  c #48B48C",
"i  c #49B48C",
"p  c #4AB58D",
"a  c #4BB68E",
"s  c #4DB68E",
"d  c #4FB78F",
"f  c #51B890",
"g  c #54BA92",
"h  c #56BB93",
"j  c #57BB93",
"k  c #56BC94",
"l  c #5ABC94",
"z  c #5BBD95",
"x  c #5EBF97",
"c  c #60BF97",
"v  c #5FC098",
"b  c #62C199",
"n  c #63C199",
"m  c #64C298",
"M  c #65C39B",
"N  c #66C39B",
"B  c #67C49C",
"V  c #68C39B",
"C  c #6CC19A",
"Z  c #68C49C",
"A  c #6CC59C",
"S  c #6CC79F",
"D  c #6FC79F",
"F  c #6FC89F",
"G  c #6FC7A0",
"H  c #6FC8A0",
"J  c #70C7A0",
"K  c #70C8A0",
"L  c #73C9A1",
"P  c #74CBA3",
"I  c #77CBA3",
"U  c #74CBA4",
"Y  c #77CBA5",
"T  c #76CCA4",
"R  c #79CCA4",
"E  c #79CDA5",
"W  c #7CCEA7",
"Q  c #78CDA8",
"!  c #7ACFAA",
"~  c #7DCEA8",
"^  c #7CD0AC",
"/  c #7DD0AD",
"(  c #949C9C",
")  c #80CFAA",
"_  c #80D0AB",
"`  c #83D2AC",
"'  c #83D2AD",
"]  c #87D3AF",
"[  c #81D3B1",
"{  c #83D5B3",
"}  c #84D5B4",
"|  c #88D4B0",
" . c #89D4B1",
".. c #8BD5B2",
"X. c #8CD6B3",
"o. c #89D8B9",
"O. c #8BD9BB",
"+. c #92D9B7",
"@. c #94DAB8",
"#. c #95DBB9",
"$. c #99DCBB",
"%. c #9EDFBF",
"&. c #F8D0B8",
"*. c #B1A8CB",
"=. c #A0E0C0",
"-. c #A5E3C3",
";. c #A6E3C4",
":. c #E5E5F7",
">. c #E8E8F8",
",. c #F8F8F8",
/* pixels */
"K K K K K K K K K K K K K K K K K K K K K K K K K K K K K K K K K K K K K K K K K K K K K K K K K K K K K K K K K K K K K K K K ",
"K K K K K K K K K K K K K K K K K K K K K K K K K K K K K K K K K K K K K K K K K K K K K K K K K K K K K K K K K K K K K K K K ",
"K K K K K K K K K K K K K J K K J J J J K J J K K K K K K K K K K K K K K K K K K K K K K K K K K K K K F K K K K K K K K K K K ",
"K K K K K K K K K K K K F P P K J s m P P P K K K K K K K K K K K K K K K K K K K K K K K K K K K K K K T T K K f b P K P K K K ",
"K K K K K K K K K K K K K z z E G 9 x T M h K K K K K K K K K K K K K K K K K K K K K K K K K K K K K K v z K K 9 h E D f Z K K ",
"K K K K K K K K K K K K P z s b D h M D h s K K K K K K K K K K K K K K K K K K K K K K K K K K K K J P z s m F h b D h s K K K ",
"K K K K K K K K K K K K D E c t K P P h s E K K K K K K K K K K K K K K K K K K K K K K K K K K K K K K P M t D P P x i T K K K ",
"K K K K K K K K K K K K K K K K K K K K H D K K K K K K - - - - - - - - - - - - K K K K K K K J K K K K J K J K K J K K K K K K ",
"K K K K K K K K K K K K K K K K K K K K K K K K K K K K - - - - - - - - - - - - K K K K K K K J K K K K K K K K K K K K K K K K ",
"K K K K K K K K K P K J K K K K K K K K K K K K - - - - 4 4 4 4 4 4 4 4 4 4 4 4 - - - - K K K P P K K J K K K K K K K K K K K K ",
"K K K K K P K K M x K J K D K K K K K K K K K K - - - - 4 4 4 4 4 4 4 4 4 4 4 4 - - - - P K D M x J J P P J K K K K K K K K K K ",
"K K J J D M J R f e P P B D K K K K K K K K - - 4 4 4 4 4 4 4 4 4 4 4 4 4 4 4 4 4 4 4 4 - - E h w K P M Z K K K K K K K K K K K ",
"K K K K M e M P h p D D t z K K K K K K K K - - 4 4 4 4 4 4 4 4 4 4 4 4 4 4 4 4 4 4 4 4 - - P c i F K i h R J K K K K K K K K K ",
"K K K K K D e x K D D w b K K K K K K K     3 3 4 4 4 4 4 4 4 4 4 4 4 4 4 4 4 4 4 4 4 4 3 3     F F w v K K J K K K K K K K K K ",
"K K K K K K b D P K K M K K K K K K K K     3 3 4 4 4 4 4 4 4 4 4 4 4 4 4 4 4 4 4 4 4 4 3 3     F F b F P K K K K K K K K K K K ",
"K K K K K K P K K K K T K K K K K K K K               4 4 4 4 4 4 4 4 4 4 4 4 4 4 4 4 4 3 3     K F T K K K K K K K K K K K K K ",
"K K K K K K K K K K K K K K K K D G K K     *.*.:.:.  4 4 4 4 4 4 4 4 4 4 4 4 4 4 4 4 4 3 3     K K K K F K K D G G K K K K K K ",
"K K K K K K K K K K K K F K K K E K     *.*.:.:.:.:.:.    4 4 4 4 4 4 4 4 4 4 4 4 4 4 4 3 3 - -     K K F F K E K H K F K K K K ",
"K K K K K K K K K K K F K K D E =.Y     *.*.:.:.:.:.:.:.  4 4 4 4 4 4 4 4 4 4 4 4 4 4 4 3 3 - -     K K K D Y =.~ D D K K K K K ",
"K K K K K K K K K K K K $.' - - - -     :.:.:.:.:.:.:.:.  4 4 4 4 4 4 4 4 4 4 4 4 4 3 3 - - $ $     D #.] M Y -.~ M _ $.F K K K ",
"K K K K K K K K K K K K W @.- - - -               :.:.:.  4 4 4 4 4 4 4 4 4 4 4 4 4 3 3 - - $ $     D T +...K _ D ..+.~ K K K K ",
"K K K K K K K K K K K K - - *.*.*.*.    4 4 4 4   :.:.:.  3 3 3 3 3 3 3 3 3 3 3 3 3 3 3 $ $ 3 3     D D ) | D Z F ] ' Z K K K K ",
"K K K K K K K K K K K K - - *.*.*.*.    4 4 4 4   :.:.:.  3 3 3 3 3 3 3 3 3 3 3 3 3 3 3 $ $ 3 3     K K J D D K F B D D K K K K ",
"K K K K K K K K K K - - *.*.:.:.:.:.        4 4   :.:.:.  3 3 3 3 3 3 3 3 3 3 3 3 3 3 3 - - 3 3     K K D J F F K F K K K K K K ",
"K K K K K K K K K K - - *.*.:.:.:.:.        4 4   :.:.:.  3 3 3 3 3 3 3 3 3 3 3 3 3 3 3 - - 3 3     K K K K K K K K K K K K K K ",
"K K K K K K K K K K - - *.*.:.:.:.:.:.:.          :.:.:.  3 3 3 3 3 3 3 3 3 3 3 3 3 3 3 3 3 : : : :     K K K K K K K K K K K K ",
"K K K K K K P D K K - - *.*.:.:.:.:.:.:.    :.:.:.:.:.    3 3 3 3 3 3 3 3 3 3 3 3 3 3 3 3 3 : : : :     K K K K K K K K K K K K ",
"K K K P K K x A P K K K - - *.*.*.*.*.*.*.    :.:.:.:.  3 3 3 3 3 3 3 3 3 3 3 3 3 3 3 3 : : : : : :     K K K K K K K K K K K K ",
"K K A Z K K 0 x E D M K - - *.*.*.*.*.*.*.            3 3 3 3 3 3 3 3 3 3 3 3 3 3 3 3 3 : : : : : :     K K K K K K K K K K K K ",
"K P d s T K e b P b e J K K - - - - - - - - - - - - ; ; ,.,.; ; + + : : : : + + : : : : : : : : : : 2 2     K K K K K K K K K K ",
"K K K j t H Z K j i V K K K - - - - - - - - - - - - ; ; ,.,.; ; + + : : : : + + : : : : : : : : : : 2 2     K K K K K K K K K K ",
"K K T A b F P P M b P K K K K K K D D D ; ; &.&.&.&.    ,.,.6 6 + + + + : : : : + + : : : : : :         K K K K D K K K K K K P ",
"K K J P P K K K K P K K H D D F K ~ P J ; ; &.&.&.&.    ,.,.6 6 + + + + : : : : + + : : : : : :         G D H H ! Y J K D K E G ",
"K K J K J K K K K K K K G T T H K o.! V 6 6 &.&.&.&.&.&.&.&.6 6 6 6 + + + + + + : : : :         K K K H T T D F o.^ B D E K D D ",
"K K K K K K K K K K K K Z [ } K K } ! D 6 6 &.&.&.&.&.&.&.&.6 6 6 6 + + + + + + : : : :         K K K D ^ { K K { ! D ! { K H H ",
"K K K K K K K K K K K K K F ^ } G T J ^ } F ; ; 6 6 &.&.6 6 + + + + : : : : : :     : : : :     K K F D D ^ o.K H G ! { D H H H ",
"K K K K K K K K K K K K K F K T H G G Y Y D ; ; 6 6 &.&.6 6 + + + + : : : : : :     : : : :     K K K K D K T K K K K P K K K K ",
"K K K K K K K K K K K K K K K D K K D G D K F H         ; ;     + + + +       . K K         K K K K K K K K F K K K K D K K K K ",
"K K K K K K K K K K K K K K K K K K H H K K K K         ; ;     + + + +     X K K K O       K K K K K K K K K K K K K K K K K K ",
"K K K K K K K K K K K K K K K K K K K K K K K K K K K K     >.>.7 7     7 7 K K K C J K K K K K K K K K K K K K K K K K K K K K ",
"K K K K K K K K K K K K K K K K K K J K K K K K K K K K     >.>.7 7     7 K K K K K K K K K K K K K K K K K K K K K K K K K K K ",
"K K K K K K K K K K K K K K K K J P K J K K K K K K     >.>.7 7 q q 7 7   K K K K K K K K K K K K K K K K K K K P K K J K K K K ",
"K K K K K K K K K K K K K J P D D f M P J P K K K K     >.>.7 7 q q 7 7     K K K K K K K K K K K K K K P P K K h b K K P K K K ",
"K K K K K K K K K K K K R x m P D 9 z E Z h K K K K < < >.>.q q ( ( ( (     K K K K K K K K K K K K K K x x T K 9 h E K h J F Y ",
"K K K K K K K K K K K K K j p M K f M D h p F K K K < < >.7 q q ( ( ( (     8 K K K K K K K K K K K K P z p b F d M J j t D K K ",
"K K K K K K K K K K K K K P v t K J P h s R K K     # # >.7 o o 5 5 > > > >   X K K K K K K K K K K K K E b t D P P l p P K K K ",
"K K K K K K K K K K K K K K K F K K K K F K K K     # # >.7 o o 5 5 > > > >   O K K K K K K K K K K K K K K F K J K K J K K K K ",
"K K K K K K K K K K K K K K K P K K K K K K K K     # # >.7 1 1 1 1     7 7   & K K K K K K K K K K K K K K K K K F K K K K K K ",
"K K K K K K K K P P K K K K K K K K K K K K K K     # # >.7 1 1 1 1     7 7   * C K K K K K K K P K K K J K K K K K K K K K K K ",
"K K K K K K K K M m K K P K K K K K K K K K K K     , , >.7 % % % %     , ,   O K K K K P K K V c K J P R K K K K K K K K K K K ",
"K K K K J M D R d e P J A Z K K K K K K K K K K     , , >.7 % % % %     , ,     K K K K Z K P h w J P V Z K K K K K K K K F K D ",
"K K J P M w M P h p P J t l R K K K K K K K K K K K o o >.,         , ,     K K K K K M e m R x t P K i f P K K K K K K K F T f ",
"K K K K K D e M J D V w x K K K K K K K K K K K K K o o >.,         , ,     K K K K K K J t z K D D t z F K K K K K K K K K K K ",
"K K K K D D b Z K P K m J K K K K K K K K K K K P v f K o o 8 8 8 8 , ,     K K K K K K K b M P K D v D K K K K K K K K K K K P ",
"K K K K F K P K J K K P K K K K F K K K K K K K P M s h o o 8 8 8 8 , ,     K K K K K K K P K K K K P K K K K K K K K K K K K K ",
"K K K K K K K K K K K K K K K K D K K K K K K K D P K p         = = O $     K K K K K K K K K K K K K K K K K K K K K K K K K K ",
"K K K K K K K K K K K K K K K K T K K F F K K K J J P P         = = @ @     K K K K K K K K K K K K K F K F K Y K K F K K K K K ",
"K K K K K K K K K K K K D F D E %.R F F F K K K K J J K K K             K K K K K K K K K K K K K K K D F D P %.E K F K K K K K ",
"K K K K K K K K K K K D #._ m W ;.R m ] @.D D K K K K K K K             K K K K K K K K K K K K K K D +.] b E -.W M _ $.F K K K ",
"K K K K K K K K K K K K _ +.] K _ D ] @.) D F K K K K K K K K K K K K K K K K K K K K K K K K K K K G ! +...K _ K ] +._ F K K K ",
"K K K K K K K K K K K K A ] | A A A ..^ A K K K K K K K K K K K K K K K K K K K K K K K K K K K K K K A _ X.F D D .._ D F K K K ",
"K K K K K K K K K K K K K D D F K K D D J K K K K K K K K K K K K K K K K K K K K K K K K K K K K K F D Z D K K D Z D K K K K K ",
"K K K K K K K K K K K K K K F F K K K K K K K K K K K K K K K K K K K K K K K K K K K K K K K K K K F K K K K K F F K K K K K K ",
"K K K K K K K K K K K K K K H H K K K K K K K K K K K K K K K K K K K K K K K K K K K K K K K K K K K K K K K K K K K K K K K K "
};
