/* XPM */
static char *_bd534a08c464236fdda7766d87af081HoG6zuZp3yrE4HWD[] = {
/* columns rows colors chars-per-pixel */
"64 64 89 1 ",
"  c black",
". c #070C09",
"X c #1F160A",
"o c #0E1726",
"O c #201F20",
"+ c #022129",
"@ c #2E202E",
"# c #342E2E",
"$ c #37373B",
"% c #7E2036",
"& c #604030",
"* c #2C2C44",
"= c #103873",
"- c #254B75",
"; c gray25",
": c #46454B",
"> c #404356",
", c #B92E2E",
"< c #EE5D3D",
"1 c #C3865E",
"2 c #D09870",
"3 c #1451A2",
"4 c #4B75CB",
"5 c #39AD85",
"6 c #3CAE86",
"7 c #3FB088",
"8 c #7C8484",
"9 c #5AA181",
"0 c #5EA886",
"q c #41B088",
"w c #45B38B",
"e c #47B48C",
"r c #4BB68E",
"t c #4DB68E",
"y c #4FB890",
"u c #50B890",
"i c #57BB93",
"p c #56BC94",
"a c #5ABC94",
"s c #5FBF97",
"d c #60BF97",
"f c #5FC098",
"g c #63C29A",
"h c #66C39B",
"j c #67C49C",
"k c #68C39B",
"l c #69C49B",
"z c #6BC69E",
"x c #6DC69E",
"c c #6FC89F",
"v c #6FC7A0",
"b c #6FC8A0",
"n c #70C7A0",
"m c #70C8A0",
"M c #74CAA2",
"N c #75CBA4",
"B c #77CCA4",
"V c #79CDA5",
"C c #7CCEA7",
"Z c #7ACFAA",
"A c #7DCEA9",
"S c #7CD0AC",
"D c #949C9C",
"F c #80CFAA",
"G c #81D0AB",
"H c #83D2AC",
"J c #85D3AE",
"K c #87D4AF",
"L c #80D2B0",
"P c #83D4B3",
"I c #87D4B0",
"U c #86D7B6",
"Y c #88D5B0",
"T c #8CD6B3",
"R c #89D8B9",
"E c #93DAB7",
"W c #93DAB8",
"Q c #97DBB9",
"! c #98DBBB",
"~ c #99DCBB",
"^ c #9EDFBF",
"/ c #F8D0B8",
"( c #B1A8CB",
") c #A0E0C0",
"_ c #A5E3C3",
"` c #A6E3C4",
"' c #E5E5F7",
"] c #E8E8F8",
"[ c #F8F8F8",
/* pixels */
"mmmmmmmmmmmmmmmmmmmmmmmmmmmmmmmmmmmmmmmmmmmmmmmmmmmmmmmmmmmmmmmm",
"mmmmmmmmmmmmmmmmmmmmmmmmmmmmmmmmmmmmmmmmmmmmmmmmmmmmmmmmmmmmmmmm",
"mmmmmmmmmmmmmmmmmmmmmmmmmmmmmmmmmmmmmmmmmmmmmmmmmmmmmmmmmmmmmmmm",
"mmmmmmmmmmmmbMMmxtgmmMmmmmmmmmmmmmmmmmmmmmmmmmmmmmmbmMmmugmmMmmm",
"mmmmmmmmmmmmmaaVx5aVzuxmmmmmmmmmmmmmmmmmmmmmmmmmmmmmsaVm6iVxuxmm",
"mmmmmmmmmmmmMatgmuhzutxmmmmmmmmmmmmmmmmmmmmmmmmmmmmMstgmihxitxmm",
"mmmmmmmmmmmmmVdwmMBitBmmmmmmmmmmmmmmmmmmmmmmmmmmmmmmMhwxMBarMmmm",
"mmmmmmmmmmmmmmmmmmmmmmmmm%%%%%%%%%%%%mmmmmmmmmmmmmmmmmmmmmmmmmmm",
"mmmmmmmmmmmmmmmmmmmmmmmmm%%%%%%%%%%%%mmmmmmmmmmmmmmmmmmmmmmmmmmm",
"mmmmmmmbmMmmmmmmmmmmm%%%%<<<<<<<<<<<<%%%%mmmmmbmMmmmmmmmmmmmmmmm",
"mmmmmMmmgsmmMmmmmmmmm%%%%<<<<<<<<<<<<%%%%mmmMmmhsmmmmmmmmmmmmmmm",
"mmmmxgmBuqMmhzmmmmm%%<<<<<<<<<<<<<<<<<<<<%%xgxVi7mMhjmmmmmmmmmmm",
"mmmmhqhMirmxwaMmmmm%%<<<<<<<<<<<<<<<<<<<<%%zqgMarmmriMmmmmmmmmmm",
"mmmmmzqsmbzqgmmmm  ,,<<<<<<<<<<<<<<<<<<<<,,  wambxqsmmmmmmmmmmmm",
"mmmmmmgzmmxgxmmmm  ,,<<<<<<<<<<<<<<<<<<<<,,  hzmmbgxmmmmmmmmmmmm",
"mmmmmmMmmmmMmmmmm  ,,<<<<<<<<<<<<<<<<<       MmmmmMmmmmmmmmmmmmm",
"mmmmmmmmmmmmmmmbx  ,,<<<<<<<<<<<<<<<<< ''((  mmmmmmmmmmxbmmmmmmm",
"mmmmmmmmmmmmcmm  %%,,<<<<<<<<<<<<<<<  '''''((  mmmmcbmmVmmmcmmmm",
"mmmmmmmmmmmmmmx  %%,,<<<<<<<<<<<<<<< ''''''((  mmmmmmxN)Vxmmmmmm",
"mmmmmmmmmmmx~Hh  @@%%,,<<<<<<<<<<<<< ''''''''  %%%%QYhN_AhH!bmmm",
"mmmmmmmmmmmbAEY  @@%%,,<<<<<<<<<<<<< '''       %%%%CEYvGmYEZmmmm",
"mmmmmmmmmmmmlHK  ,,@@,,,,,,,,,,,,,,, ''' <<<<  ((((%%YxzxJHzmmmm",
"mmmmmmmmmmmmmxx  ,,@@,,,,,,,,,,,,,,, ''' <<<<  ((((%%xmmmxxmmmmm",
"mmmmmmmmmmmmmmm  ,,%%,,,,,,,,,,,,,,, ''' <<    ''''((%%mmmmmmmmm",
"mmmmmmmmmmmmmmm  ,,%%,,,,,,,,,,,,,,, ''' <<    ''''((%%mmmmmmmmm",
"mmmmmmmmmmmmm  ****,,,,,,,,,,,,,,,,, '''     ''''''((%%mmmmmmmmm",
"mmmmmmMmbmmmm  ****,,,,,,,,,,,,,,,,,  '''''  ''''''((%%mmmmmmmmm",
"mmmmmmfzmmmmm  ******,,,,,,,,,,,,,,,, ''''  (((((((%%mmmmmmmmmmm",
"mmzzmb6sMxhbm  ******,,,,,,,,,,,,,,,,,      (((((((%%mmmmmmmmmmm",
"mMytMbqsVgq  >>**********oo****oo&&[[&&%%%%%%%%%%%%mmmmmmmmmmmmm",
"mmmiemzmirz  >>**********oo****oo&&[[&&%%%%%%%%%%%%mmmmmmmmmmmmm",
"mmMzsmmmhgMmm    ******oo****oooo22[[  ////&&mmjgMmmmmmmxxmmmmmm",
"mmmmMmmmmMmmm    ******oo****oooo22[[  ////&&mmmMmmmxxmmZNxcxcVz",
"mmmmmmmmmmmmxBBxm    ****oooooo2222////////22mmmmmmxNBxcRSxmZmxc",
"mmmmmmmmmmmmxLPcm    ****oooooo2222////////22mmmmmmxSPmcUZxZLmmm",
"mmmmmmmmmmmmmxSUc  ****  ******oooo22//22&&mmmmmmmmmxZUmmxSPmmmm",
"mmmmmmmmmmmmmxmBm  ****  ******oooo22//22&&mmmmmmmmmxmBmcxmNmmmm",
"mmmmmmmmmmmmmmxxmmm    mm    oooo  &&    mmmmmmmmmmmmcxmmmxxmmmm",
"mmmmmmmmmmmmmmmmmmm   .mmm   oooo  &&    mmmmmmmmmmmmmmmmmmmmmmm",
"mmmmmmmmmmmmmmmmmmmmmmm0mmm33  33]]  mmmmmmmmmmmmmmmmmmmmmmmmmmm",
"mmmmmmmmmmmmmmmmmmmmmmmmmmmm3  33]]  mmmmmmmmmmmmmmmmmmmmmmmmmmm",
"mmmmmmmmmmmmmmmmmMmmmmmmmmmm 338833]]  mmmmmmmmmmmmmmmmmMmmmmmmb",
"mmmmmmmmmmmmbMMmxuhmmMmmmmm  338833]]  mmmmmmmmmmmmbmMmmugmmMmmn",
"mmmmmmmmmmmmmssVx5aVzixmmmm  DDDD88]];;mmmmmmmmmmmmmfsMm6iVxixmM",
"mmmmmmmmmmmmMithmyhxirxmmm4  DDDD883];;mmmmmmmmmmmmMarhmugxarzmb",
"mmmmmmmmmmmmmBswmMBirBmmm  ====11XX3]++  mmmmmmmmmmmMgqxMBaeMmmm",
"mmmmmmmmmmmmmmxxmmmxxmmmm  ====11XX3]++  mmmmmmmmmmmmbxmmmxxmmmm",
"mmmmmmmmmmmmmmmmmmmmmmmmm  33  ::::3]++  mmmmmmmmmmmmmmmmmmmmmmm",
"mmmmmmmbmMmmmmmmmmmmmmmm9  33  ::::3]++  mmmmmbmMmmmmmmmmmmmmmmm",
"mmmmmmmmhgmmmmmmmmmmmmmmm  --  ####3]--  mmmmmmjfmmmmmmmmmmmmmmm",
"mmmmxhmBuqMmhzmmmmmmmmmmm  --  ####3]--  mmxhxBp7mmzzmmmmmmmmmmz",
"mmmmhqkBirMmwaMmmmmmmmmmmmm  --    -]XXmmmmzqhVaemmriMmmmmmmmmMu",
"mmmmmzqgmxxqsmmmmmmmmmmmmmm  --    -]XXmmmmmzwsmxxwammmmmmmmmmmm",
"mmmmmmgzmmxsxmmmmmmmmmmmMst  --4444XXmmmmmmmmgzmmbfxmmmmmmmmmmmm",
"mmmmmmMmmmmMmmmmmmmmmmmmmhu  --4444XXmmmmmmmmMmmmmMmmmmmmmmmmmmm",
"mmmmmmmmmmmmmmmbxmmmmmmmbMx  OO$$    mmmmmmmmmmmmmmmmmmxbmmmmmmm",
"mmmmmmmmmmmmmmmmNmmmmmmmmmm  OO$$    mmmmmmmmmmmmmmmmmmNmmmmmmmm",
"mmmmmmmmmmmmxcxV^Nxcxmmmmmmmm      mmmmmmmmmmmmmmmmxcxN^Vxcxmmmm",
"mmmmmmmmmmmxQHhA`VhJQxmmmmmmm      mmmmmmmmmmmmmmmxWJhB`AhHQxmmm",
"mmmmmmmmmmmbGEJmHmIEFxmmmmmmmmmmmmmmmmmmmmmmmmmmmmxAEImHmJEHbmmm",
"mmmmmmmmmmmmlJYzzxTHlmmmmmmmmmmmmmmmmmmmmmmmmmmmmmmlGTxzzYJlmmmm",
"mmmmmmmmmmmmmxxmmmxxmmmmmmmmmmmmmmmmmmmmmmmmmmmmmmmmxxmmmxxmmmmm",
"mmmmmmmmmmmmmmmmmmmmmmmmmmmmmmmmmmmmmmmmmmmmmmmmmmmmmmmmmmmmmmmm",
"mmmmmmmmmmmmmmmmmmmmmmmmmmmmmmmmmmmmmmmmmmmmmmmmmmmmmmmmmmmmmmmm"
};
