/* XPM */
static char *cc0661997f5a47949a7b004911086ad2NVM5nZrU3YsEwSD4[] = {
/* columns rows colors chars-per-pixel */
"64 64 100 2 ",
"   c black",
".  c #0E1726",
"X  c #201F20",
"o  c #342E2E",
"O  c #382838",
"+  c #353535",
"@  c #7E2036",
"#  c #2C2C44",
"$  c #103873",
"%  c #384040",
"&  c #254B75",
"*  c #46454B",
"=  c #404356",
"-  c #B92E2E",
";  c #C03838",
":  c #EE5D3D",
">  c #882840",
",  c #D09870",
"<  c #1451A2",
"1  c #3CAE86",
"2  c #3DAE86",
"3  c #3EB088",
"4  c #7C8484",
"5  c #41B088",
"6  c #43B189",
"7  c #46B38B",
"8  c #47B48C",
"9  c #48B48C",
"0  c #49B48C",
"q  c #4BB68E",
"w  c #4DB68E",
"e  c #4EB78F",
"r  c #50B890",
"t  c #56BB93",
"y  c #57BB93",
"u  c #5ABC94",
"i  c #5BBD95",
"p  c #5EBF97",
"a  c #60BF97",
"s  c #5FC098",
"d  c #62C098",
"f  c #62C199",
"g  c #64C298",
"h  c #65C39B",
"j  c #66C39B",
"k  c #67C49C",
"l  c #68C39B",
"z  c #68C49C",
"x  c #6CC59C",
"c  c #6CC79F",
"v  c #6FC79F",
"b  c #6FC89F",
"n  c #6FC7A0",
"m  c #6FC8A0",
"M  c #70C7A0",
"N  c #70C8A0",
"B  c #73C9A1",
"V  c #74CBA3",
"C  c #77CBA3",
"Z  c #74CBA4",
"A  c #75CBA4",
"S  c #76CCA4",
"D  c #78CCA4",
"F  c #79CDA5",
"G  c #7CCEA7",
"H  c #78CDA8",
"J  c #7ACFAA",
"K  c #7CCEA8",
"L  c #7CD0AC",
"P  c #7DD0AD",
"I  c #4F81D1",
"U  c #949C9C",
"Y  c #80CFAA",
"T  c #83D2AC",
"R  c #83D2AD",
"E  c #87D3AF",
"W  c #87D4AF",
"Q  c #81D3B1",
"!  c #83D5B3",
"~  c #87D4B0",
"^  c #84D5B4",
"/  c #87D7B7",
"(  c #88D4B0",
")  c #88D5B0",
"_  c #89D4B1",
"`  c #8BD5B2",
"'  c #89D8B9",
"]  c #8BD9BB",
"[  c #92D9B6",
"{  c #92DAB7",
"}  c #93DAB8",
"|  c #94DAB8",
" . c #95DBB9",
".. c #97DBBA",
"X. c #98DBBB",
"o. c #99DCBB",
"O. c #9EDFBF",
"+. c #A5E3C3",
"@. c #A6E3C4",
"#. c #D2DDDF",
/* pixels */
"N N N N N N N N N N N N N N N N N N N N N N N N N N N N N N N N N N N N N N N N N N N N N N N N N N N N N N N N N N N N N N N N ",
"N N N N N N N N N N N N N N N N v v N N N N N N N N N N N N N N N N N N N N N N N N N N N N N N N N N N N N N N N N N N N N N N ",
"N N N N N N N N N N N N N M N N M V v v N N N N N N N N N N N N N N N N N N N N N N N N N N N N N N N N N N N N N N N N N N N N ",
"N N N N N N N N N N N N b V V N M w h V N V N N N N N N N N N N N N N N N N N N N N N N N N N N N N N N N C N N r f S N S N N N ",
"N N N N N N N N N N N N N i i F v 1 i G z t N N N N N N N N N N N N N N N N N N N N N N N N N N N N N V a i C b 1 y F k r z N N ",
"N N N N N N N N N N N N V i w f n t h h t w N N N N N N N N N N N N N N N N N N N N N N N N N N N N N V p 9 d v y f N i w m N N ",
"N N N N N N N N N N N N v F a 7 N S S i w N N N N N N N N N N N N N N N N N N N N N N N N N N N N N N N V h 0 v C C i 9 F N N N ",
"N N N N N N N N N N N N N N N N N m m N N N N N N N O O O O O O O O O O O O N N N N N N N N N N N N N N v N v v m m N N N N N N ",
"N N N N N N N N N N N N N N N N N N N N N N N N N N O O O O O O O O O O O O g x v v v v N N N N N N N N N N N N m N N N N N N N ",
"N N N N N N N N N V N M N N N N N N N N N N O O @ @ @ @ @ @ @ @ > > @ @ @ @ @ @ O O v v N v N V V N N N N N N N N N N N N N N N ",
"N N N N N S N N h p N M N v N N N N N N N N O O @ @ @ @ @ @ @ @ @ @ @ @ @ @ @ @ O O B v v v v h p M b V N N N N N N N N N N N N ",
"N N M M v h N F r 6 V V k v N N N N N N + + @ @ : : : : : : : : : : : : : : : : > > + + h v C t 7 N v d v V N N N N N N N N N N ",
"N N N N h 6 h N t w N v 7 i N N N N N N + + @ @ : : : : : : : : : : : : : : : : > > + + 6 g C p 7 N N 9 t V b N N N N N N N N N ",
"N N N N N v 6 p m b v 5 f N N N N N + + ; ; : : : : : : : : : : : : : : : : : : : : ; ; + + p V v b 6 f V N N N N N N N N N N N ",
"N N N N N N f v V N N f N N N N N N + + ; ; : : : : : : : : : : : : : : : : : : : : ; ; + + x N N N f v N N N N N N N N N N N N ",
"N N N N N M V N N N N S N N N N N N + + : : : : : : : : : : : : : : : : : : : : : : : : + + v M N N m m N N N N N N N N N N N N ",
"N N N N N N N N N N N N N N N N N N + + : : : : : : : : : : : : : : : : : : : : : : : : + + N N N N N N m N N v v n N N N N N N ",
"N N N N N N N N N N N N N N N v + + - - : : : : : : : : : : : : : : : : : : : : : : : : - - + + N N N N v n N F N m N b N N N N ",
"N N N N N N N N N N N N N N v F + + - - : : : : : : : : : : : : : : : : : : : : : : : : - - + + m m N N v v V O.K v v M N N N N ",
"N N N N N N N N N N N N o.R f G + + - - - - : : : : : : : : : : : : : : : : : : : : - - - - + + N m b ..` h C +.K h T X.b N N N ",
"N N N N N N N N N N N N K { W v + + - - - - : : : : : : : : : : : : : : : : : : : : - - - - + + N N b G { ` N R m ` { D N N N N ",
"N N N N N N N N N N N N v T W v     - - - - - - - - : : : : : : : : : : : : - - - - - - - -     N N N z K ` v z v R T v N N N N ",
"N N N N N N N N N N N N v h v N     - - - - - - - - : : : : : : : : : : : : - - - - - - - -     N N N N M v v N b z v v N N N N ",
"N N N N N N N N N N N N b b N N     @ @ - - - - - - - - - - - - - - - - - - - - - - - - @ @     N N N N v M b b N N N N N N N N ",
"N N N N N N N N N N N N N N N N     @ @ - - - - - - - - - - - - - - - - - - - - - - - - > @     N N N N N N N N N N N N N N N N ",
"N N N N N N N N N N N N     . . = =     - - - - - - - - % % % % % % % % - - - - - - - -     = =         N N N N N N N N N N N N ",
"N N N N b N V N N N N N     . . = =     - - - - - - - - % % % % % % % % - - - - - - - -     = =         N N N N N N N N N N N N ",
"N N N V v v h l V N N N N N     # # # #     - - - - % % % % % % % % % % % % - - - -     # # # #     N N N N N N N N N N N N N N ",
"N N x l b N 1 i F v h m N N     # # # #     - - - - % % % % % % % % % % % % - - - -     # # # #     v N N N N N N N N N N N N N ",
"N V w w S N 6 f C f 6 b N N N N     # # # #         - - - - - - - - - - - -         # # # #     f 6 z N N N N N N N N N N N N N ",
"N N N t 9 N z N t 0 l N N N N N     # # # #         - - - - - - - - - - - -         # # # #     7 v N N N N N N N N N N N N N N ",
"N N S v s N V V h f V N N N N N N v     . . # # # #                         # # # # . .     N k p V N N N N N M v N N N N N N V ",
"N N M V V N N N N V N N N b v b N K     . . # # # #                         # # # # . .     N N V N N N n v b b J C N N v N F n ",
"N N M N M N N N N N N N v S V n N ] . . # # # # # # # # # # # # # # # # # # # # # # # # . . N N N N N M S S v b ' L k m F N v v ",
"N N N N N N N N N N N N z Q ^ m N / . . # # # # # # # # # # # # # # # # # # # # # # # # . . N N N N N v L ! N N ^ J n H ! N m m ",
"N N N N N N N N N N N N b b K / N N M L         # #     # # # # # # # #     # #         N N N N N N N v v L ' N m n J ^ v m m m ",
"N N N N N N N N N N N N N M N F N N M C         # #     # # # # # # # #     # #         N N N N N N N N v N S N N N N V N N N N ",
"N N N N N N N N N N N N N N N v N N n n     #.#.    $ $ & & I I I I & & U U     #.#.    N N N N N N N N N N b N N N N v N N N N ",
"N N N N N N N N N N N N N N N N N N m m     #.#.    $ $ & & I I I I & & U U     #.#.    N N N N N N N N N N N N N N N N N N N N ",
"N N N N N N N N N N N N N N N N N N     $ $ $ $ $ $ $ $ I I I I I I I I $ $ 4 4 $ $ $ $     N N N N N N N N N N N N N N N N N N ",
"N N N N N N N N N N N N N N N N N N     $ $ $ $ $ $ $ $ I I I I I I I I $ $ 4 4 $ $ $ $     N N N N N N N N N N N N N N N N N N ",
"N N N N N N N N N N N N N N N N     , , , , $ $     $ $ I I I I I I I I $ $     $ $ , , , ,     N N N N N N N N V N N N N N N N ",
"N N N N N N N N N N N N N m Z N     , , , , $ $     $ $ I I I I I I I I $ $     $ $ , , , ,     N N N N V V v N t a N N C N N N ",
"N N N N N N N N N N N N C p p V * *     , ,         $ $ I I I I I I I I $ $         , ,     * * N N N N p p F N 1 t F v y v N S ",
"N N N N N N N N N N N N Z y w h * *     , ,         $ $ I I I I I I I I $ $         , ,     * * N N N V i 9 h m r f v i 9 v N b ",
"N N N N N N N N N N N N n C * * * * o o     N N     $ $ I I I I I I I I $ $     N N     o o * * * * N N F f 6 v S S t 8 Z n N m ",
"N N N N N N N N N N N N m m * * * * o o     N N     $ $ I I I I I I I I $ $     N N     o o * * * * N N N N v N N N N v N N N N ",
"N N N N N N N N N N N N N N * * * * o o     N N     < < I I I I I I I I < <     N N     o o * * * * N N N N N N N N N N N N N N ",
"N N N N N N N N N V N N N v * * * * o o     N N     < < I I I I I I I I < <     N N     o o * * * * b N N N N N N N N N N N N N ",
"N N N N N b N V h f N M V V N v         N N     & & $ $ I I I I I I I I $ $ & &     N M         f M N N N N N N N N N N N N N N ",
"N N N N v h v C r 5 V M v l N N         N N     & & $ $ I I I I I I I I $ $ & &     M M         6 N V l v N N N N N N N N N N b ",
"N N M V h 3 x V t w V v 7 i C N N N N N N N     & & & & $ $ $ $ $ $ $ $ & & & &     V l 6 h V i 7 S N 9 r V N N N N N N N N S r ",
"N N N N N v 7 f v v h 7 p v b N N N N N N N     & & & & $ $ $ $ $ $ $ $ & & & &     N N z 7 p V v v 7 i m N N N N N N N N N N N ",
"N N N N v v f z v V v f v v N N N N N N N N     & & & & & &         & & & & & &     N N V f l N n v s v N N N N N N N N N N N V ",
"N N N N b N V N M N N V N N N N b N N N N N     & & & & & &         & & & & & &     N N N V N N N N V N N N N N N N N N N N N N ",
"N N N N N N N N N N N N N N N N v N N N N N     X X X X     V f w V     X X X X     N N N N N N N N N N N N N N N N N N N N N N ",
"N N N N N N N N N N N N N N N N C m N N N N     X X X X     N N N N     X X X X     N N N N N N N N N v m m m C N N v b b N N N ",
"N N N N N N N N N N N N v b v F O.C n m v N N N         N N N N N N N N         N N N N N N N N N N N v m n C O.F v v v N N N N ",
"N N N N N N N N N N N v  .T h G +.F f R ..v b N         N N N N N N N N         N N N N N N N N N N v { R h F @.K h R ..v N N N ",
"N N N N N N N N N N N N Y { ( v R b E { K v b N N N N N N N N N N N N N N N N N N N N N N N N N N N M G { ( N R N E { T N N N N ",
"N N N N N N N N N N N N x T ` l z v ` R v N N N N N N N N N N N N N N N N N N N N N N N N N N N N N N v T ` v z l ` T v N N N N ",
"N N N N N N N N N N N N v v b b N N v v v N N N N N N N N N N N N N N N N N N N N N N N N N N N N N v v b b v v N h v N N N N N ",
"N N N N N N N N N N N N N N b N N N N N v b N N N N N N N N N N N N N N N N N N N N N N N N N N N N v b N N N N N N N N N N N N ",
"N N N N N N N N N N N N N N N N N N N N N N N N N N N N N N N N N N N N N N N N N N N N N N N N N N m b N N N N N N N N N N N N "
};
