/* XPM */
static char *_69b2fa1b1434dffdf613fd3bdf07131GHngGuV9NwRfW9Ja[] = {
/* columns rows colors chars-per-pixel */
"64 64 108 2 ",
"   c black",
".  c #0E1726",
"X  c #201F20",
"o  c #022129",
"O  c #342E2E",
"+  c #37373B",
"@  c #553627",
"#  c #5D3720",
"$  c #6A2E2E",
"%  c #7E2036",
"&  c #0A4036",
"*  c #604030",
"=  c #2C2C44",
"-  c #103873",
";  c #254B75",
":  c gray25",
">  c #46454B",
",  c #404356",
"<  c #B92E2E",
"1  c #EE5D3D",
"2  c #C3865E",
"3  c #D09870",
"4  c #1451A2",
"5  c #175EAE",
"6  c #4B75CB",
"7  c #39AD85",
"8  c #3CAE86",
"9  c #3EB088",
"0  c #40B088",
"q  c #41B088",
"w  c #43B189",
"e  c #46B38B",
"r  c #47B48C",
"t  c #49B48C",
"y  c #49B58D",
"u  c #4DB68E",
"i  c #4EB78F",
"p  c #50B890",
"a  c #52B991",
"s  c #54BA92",
"d  c #57BB93",
"f  c #56BC94",
"g  c #5ABC94",
"h  c #5BBD95",
"j  c #5EBF97",
"k  c #60BF97",
"l  c #5FC098",
"z  c #61C199",
"x  c #62C199",
"c  c #63C199",
"v  c #64C298",
"b  c #65C39B",
"n  c #66C39B",
"m  c #68C39B",
"M  c #68C49C",
"N  c #6BC69D",
"B  c #6BC69F",
"V  c #6CC59C",
"C  c #6FC79F",
"Z  c #6FC89F",
"A  c #6FC7A0",
"S  c #6FC8A0",
"D  c #70C7A0",
"F  c #70C8A0",
"G  c #73C9A1",
"H  c #72C9A2",
"J  c #74CBA3",
"K  c #76CBA3",
"L  c #74CAA4",
"P  c #76CBA4",
"I  c #76CCA4",
"U  c #78CCA4",
"Y  c #79CDA5",
"T  c #7CCEA7",
"R  c #78CDA8",
"E  c #7ACFAA",
"W  c #7DCEA9",
"Q  c #7CD0AC",
"!  c #7DD1AD",
"~  c #82D0AB",
"^  c #83D2AD",
"/  c #85D3AD",
"(  c #87D3AF",
")  c #81D3B1",
"_  c #83D4B3",
"`  c #83D5B3",
"'  c #87D4B0",
"]  c #84D5B4",
"[  c #85D6B5",
"{  c #87D7B7",
"}  c #89D4B1",
"|  c #8AD5B1",
" . c #8BD5B2",
".. c #8CD6B3",
"X. c #89D8B9",
"o. c #93DAB7",
"O. c #95DBB9",
"+. c #97DBBA",
"@. c #99DCBB",
"#. c #9EDFBF",
"$. c #F8D0B8",
"%. c #B1A8CB",
"&. c #A0E0C0",
"*. c #A5E3C3",
"=. c #A6E3C4",
"-. c #E5E5F7",
";. c #E8E8F8",
":. c #F8F8F8",
/* pixels */
"F F F F F F F F F F F F F F F F F F F F F F F F F F F F H A A A H A F F F F F F F F F F F F F F F F F F F F F F F F F F F F F F ",
"F F F F F F F F F F F F F F F F D D F F F F F F F F F F A A H A A A F F F F F F F F F F F F F F F F F F F F F F F F F F F F F F ",
"F F F F F F F F F F F F F D F F F J F A F F F F F F F F A H H A A F F F F F F F F F F F F F F F F F F F F F F F F D F F F F F F ",
"F F F F F F F F F F F F Z J J F D u b S F J F F F F F F A A S A F F F F F F F F F F F F F F F F F F F F J J F F p b F F U F F F ",
"F F F F F F F F F F F F F h h Y C 8 h Y b d F F F F A A A A S A F F F F F F F F F F F F F F F F F F S J j d J F 8 d Y C p M F F ",
"F F F F F F F F F F F F J h u x C d x S d u F F F F M x A A H A F F F F F F F F F F F F F F F F F F S P j u x C p x C d u F F F ",
"F F F F F F F F F F F F C Y k e F P J d u Y F F F F < % % % % % % % % % % % F F F F F F F F F F F F F F J b e C K K h y Y F F F ",
"F F F F F F F F F F F F F F F F F F S S S C F F F F $ % % % % % % % % % % % F F F F F F F F F F F F F F D F C D F F F F F F F F ",
"F F F F F F F F F F F F F F F F F F F F F F % % % % < < 1 1 1 1 1 1 1 1 < < % % % % F F F F F S F F F F F F F F F F F F F F F F ",
"F F F F F F F F F J F D F F F F F F F F F F % % % % < < 1 1 1 1 1 1 1 1 < < % % % % F F F F F P J F F F F F F F F F F F F F F F ",
"F F F F F J F F b j F D F C F F F F F F % % < < 1 1 1 1 1             1 1 1 1 1 < < % % F F F b j D F J K S F F F F F F F F F F ",
"F F D D D b F Y p w J J n C F F F F F F % % < < 1 1 1       -.-.;.;.      1 1 1 < < % % x D R f q F F x C S F F F F F F F F F F ",
"F F F F b q b F d y D C r h F F F F     < < 1 1 1       -.-.-.-.-.-.-.-.    1 1 1 1 < <     P h y F F y d K Z F F F F F F F F F ",
"F F F F F C e j F C C 0 x F F F F F     < < 1 1     -.-.-.-.-.-.-.-.-.-.;.    1 1 1 < <     j F Z C w j F F S S F F F F F F F F ",
"F F F F F F x C J F F b F F F F F F     < < 1     -.-.-.-.-.-.-.-.-.-.-.-.-.  1 1 1 < <     M P F F x Z K S F F F F F F F F F F ",
"F F F F F F J F F F F I F F F F F F     < <     -.-.-.-.-.-.-.-.-.-.-.-.-.-.    1 1 < <     F F F F F F F F F F F F F F F F F F ",
"F F F F F F F F F F F F F F F F     < < < <   ;.-.-.-.-.-.-.-.    -.-.-.-.-.-.  1 1 < < < <     F F F F S S S C A A F F F F F F ",
"F F F F F F F F F F F F Z F F F     < < < <   ;.-.-.-.-.              -.-.-.-.  1 1 < < < <     F F F F S C F Y F S F Z F F F F ",
"F F F F F F F F F F F S F F C Y     < < <     ;.-.-.-.    1 1 1 1 1   -.-.-.-.    < < < < <     F S F F C C P &.T C C Z F F F F ",
"F F F F F F F F F F F C @.^ x Y     < < <   -.-.-.-.-.  1 1 1 1 1 1     -.-.-.-.  < < < < <     F Z Z +. .b P *.W b ~ @.S F F F ",
"F F F F F F F F F F F S W o.. .     < < <     -.-.-.    1 1 1 1 1 1 1   -.-.-.-.    < < < <     . . C I o. .C W C ..o.W F F F F ",
"F F F F F F F F F F F F C / . .                                                                 . . C C W  .C C M / ~ M F F F F ",
"F F F F F F F F F F     . . , , = =     @ @ -.-.-.-.-.-.-.-.-.-.-.-.-.-.-.-.-.-.-.-.@ @     = = , , . .     F F F F C C F F F F ",
"F F F F F F F F F F     . . , , = =     @ @ -.-.-.-.-.-.-.-.-.-.-.-.-.-.-.-.-.-.-.;.@ @     = = , , . .     F F F F F F F F F F ",
"F F F F F F F F F F F F     = = = = = =     %.%.%.%.-.-.-.-.-.-.-.-.-.-.-.-.%.%.%.%.    = = = = = =     F F F F Z F F F F F F F ",
"F F F F F F F F F F F F     = = = = = =     %.%.%.%.-.-.-.-.-.-.-.-.-.-.-.-.%.%.%.%.    = = = = = =     F F F F F F F F F F F F ",
"F F F F F F K F F F F F F F     = = = = = =     : : %.%.-.-.-.-.-.-.-.-.%.%.: :     = = = = = =     F F F F F F F F F F F F F F ",
"F F F J Z Z l M J F F F F F     = = = = = =     : : %.%.-.-.-.-.-.-.-.-.%.%.: :     = = = = = =     F F F F F F F F F F F F F F ",
"F F V M F F 8 j Y C b Z Z S F F     . . . . 3 3 :.:.* * $ $ $ $ $ $ $ $ * * :.:.3 3 . . . .     F b Z S F F F F F F F F F F F F ",
"F J i u K F w x J x w C F F F F     . . . . 3 3 :.:.* * $ $ $ $ $ $ $ $ * * :.:.3 3 . . . .     x w M F F F F F F F F F F F F F ",
"F F F d y F M S d t C F F F     . . = = = = $.$.:.:.    $.$.$.$.$.$.$.$.    :.:.$.$.= = = = . .     F F F F F F F F F F F F F F ",
"F F K V l Z K J b x D F F F     . . = = = = $.$.:.:.    $.$.$.$.$.$.$.$.    :.:.$.$.= = = = . .     F F F F F F Z F F F F F F F ",
"F F D J J F F F F J F F F F C Z         = = . . $.$.$.$.$.$.$.$.$.$.$.$.$.$.$.$.. . = =         J F F F D C Z Z R Y F F S F Y A ",
"F F D F D F F F F F F F C I J C         = = . . $.$.$.$.$.$.$.$.$.$.$.$.$.$.$.$.. . = =         D F F D J J C Z X.Q M F Y F A A ",
"F F F F F F F F F F F F M ) ` C F { R F         * * 3 3 $.$.3 3 3 3 $.$.3 3 * *         F F F F F F F C Q { F F { R S I ` F S S ",
"F F F F F F F F F F F F F Z Q { F Z F Q         * * 3 3 $.$.3 3 3 3 $.$.3 3 * *         F F F F F F F C Z Q { F C C R { A S S S ",
"F F F F F F F F F F F F F D F I F F C P     ;.;.;.;.        # # # #         ;.;.;.;.    F F F F F F F F C F I F F F F J F F F F ",
"F F F F F F F F F F F F F F F A F F A C     ;.;.;.;.        # # # #         ;.;.;.;.    F F F F F F F F F F Z F F F F C F F F F ",
"F F F F F F F F F F F F F F F F F F     ;.;.5 5 5 5 ;.;.;.;.: : : : ;.;.;.;.5 5 5 5 ;.;.    F F F F F F F F F F F F F F F F F F ",
"F F F F F F F F F F F F F F F F F F     ;.;.5 5 5 5 ;.;.;.;.: : : : ;.;.;.;.5 5 5 5 ;.;.    F F F F F F F F F F F F F F F F F F ",
"F F F F F F F F F F F F F F F F     2 2 2 2 5 5 5 5 - - 4 4 ;.o o ;.4 4 - - 5 5 5 5 2 2 2 2     F F F F F F F F F F F F F F F F ",
"F F F F F F F F F F F F F F F F     2 2 2 2 5 5 5 5 - - 4 4 ;.o o ;.4 4 - - 5 5 5 5 2 2 2 2     F F F F F F F F J F F D F F F F ",
"F F F F F F F F F F F F F I F F O O & & 3 3     6 6 4 4 4 4 o ;.;.o 4 4 4 4 6 6     3 3 & & O O F F F F J J F F d x I A J F F F ",
"F F F F F F F F F F F F F l l Y O O & & 3 3     6 6 4 4 4 4 o ;.;.o 4 4 4 4 6 6     3 3 & & O O F F F F j k J F 8 p Y C d D F J ",
"F F F F F F F F F F F F F d O O > > O O     C F     4 4 4 4 o ;.;.o 4 4 4 4     F F     O O > > O O F J h y b Z p x C d e C F F ",
"F F F F F F F F F F F F F Y O O > > O O     F F     4 4 4 4 o ;.;.o 4 4 4 4     F F     O O > > O O F F Y x w C J U d y J F F F ",
"F F F F F F F F F F F F F F O O > > > >     F F     4 4 4 4 ;.;.;.;.4 4 4 4     F F     > > > > O O F F F F F F F F F C F F F F ",
"F F F F F F F F F F F F F F O O > > > >     F F     ;.;.;.;.;.o o ;.;.;.;.;.    F F     > > > > O O F F F F F F F F F F F F F F ",
"F F F F F F F F J J F F F D D F         F F     ; ; 6 6 X X + + + + X X 6 6 ; ;     F F         J F F F F F F F F F F F F F F F ",
"F F F F F F F J b k F F J J F F         F F     ; ; 6 6 X X + + + + X X 6 6 ; ;     F F         x D D J J F F F F F F F F F F F ",
"F F F F F x D J p e F Z b C F F F F F F F F     6 6 6 6 6 6 ; ; ; ; 6 6 6 6 6 6     D D b C F j q J F V b F F F F F F F F F F M ",
"F F D J M 8 V J d t K Z t d J F F F F F F F     6 6 6 6 6 6 ; ; ; ; 6 6 6 6 6 6     F C 8 b Y h e F F t d J F F F F F F F D J d ",
"F F F F F V e x F C V q j F F F F F F F F F     ; ; ; ; 6 6         6 6 ; ; ; ;     F F M e j J C C e h Z F F F F F F F F F F F ",
"F F F F F F x M J F D x D D F F F F F F F F     ; ; ; ; 6 6         6 6 ; ; ; ;     F F J x m F F C l C F F F F F F F F F F F J ",
"F F F F F F J F D D F J F F F F Z F F F F F     + + + +     b C d p     + + + +     F F F J F F F F J F F F F F F F F F F F F F ",
"F F F F F F F F F F F F F F F F C F F F F F     + + + +     J x y J     + + + +     F F F F F F F F F F F F F F F F F F F F F F ",
"F F F F F F F F F F F F F F F F U F F Z Z F F F         F F F F F F F F         F F F F F F F F F F A A S S D P F F Z Z F F F F ",
"F F F F F F F F F F F Z C Z F U #.J D Z C F F F         F F F F F F F F         F F F F F F F F F F S C Z C P #.Y F C C F F F F ",
"F F F F F F F F F F F C +.~ v T *.Y x ^ +.C C F F F F F F F F F F F F F F F F F F F F F F F F F F F C o./ b Y *.W b ~ +.C F F F ",
"F F F F F F F F F F F F ! o./ F ^ F ( o.W C Z F F F F F F F F F F F F F F F F F F F F F F F F F F F C W o.' F / F / o./ Z F F F ",
"F F F F F F F F F F F F V ~ | V C M ..~ C F F F F F F F F F F F F F F F F F F F F F F F F F F F F F F C ~  .Z M M  .~ C S F F F ",
"F F F F F F F F F F F F F D M F F F C C C F F F F F F F F F F F F F F F F F F F F F F F F F F F F F C C Z Z Z Z F b C F F F F F ",
"F F F F F F F F F F F F F F F F F F F F C F F F F F F F F F F F F F F F F F F F F F F F F F F F F F C Z F F F F F F F F F F F F ",
"F F F F F F F F F F F F F F F F F F F F F F F F F F F F F F F F F F F F F F F F F F F F F F F F F F F Z F F F F F F F F F F F F "
};
