/* XPM */
static char *_f67e341eb924527930ea38f4b5042e4cofN0uqljoCiZTwX[] = {
/* columns rows colors chars-per-pixel */
"64 64 24 1 ",
"  c black",
". c gray22",
"X c #004040",
"o c #005858",
"O c #006C6C",
"+ c #007070",
"@ c #007474",
"# c #007878",
"$ c #007C7C",
"% c #484848",
"& c gray33",
"* c #008484",
"= c #008C8C",
"- c #009898",
"; c #009C9C",
": c #00A4A4",
"> c #20B0B0",
", c #20B4B4",
"< c #00CCCC",
"1 c #48C0C0",
"2 c #74C8C8",
"3 c #9CDCDC",
"4 c #B8E8E8",
"5 c #D8F4F4",
/* pixels */
"................................................................",
"    +##########@@@+++OOO++@@###.+###########################    ",
"    +$+o,**$$$$$##@#@@@###*++,*.+=-*2==================-*2*#    ",
"    +$+Xo**$$$$#$@@@@@##$$@+X+-.+*$X*>>>>>>>,,,,,22211-$X*>#    ",
"    +$+++*$*$$$$@#@@+@@$#$@+++-.+*#$#>>>>,,,,,,1222111-#$#,$    ",
"    +####$*$$$$##@@+@@##$$@@$$-.+*--:>>,,,,,,122221111---:,$    ",
"    +#**$*$+ooXXXXXXXXXXX***=-:.+*>>,,,*++ooooXXXXXXX,,,,,,$    ",
"    +#*$*$$++oooooooooooX**==-:.+*,,,,,3;;***++++oooX,,>,,>*    ",
"    +#$*$$$#+#@@+@+@@$#oX**=---.+*,,,,,33122221111,oX,>,>>>*    ",
"    +#*$$$$#+@@+@+@@##$oX*==-::.+*,,,11542232111,,,oX>,>>>:*    ",
"    +#$$$$#$@@@@+@@##$$oX*==-::.+*,111154332111,,,>oX>>>>::*    ",
"    +#$$$#$$#@@++@##$$$oX==---:.+*111225422111,,,>,oX>>>:::*    ",
"    +#$$#$#$#@+++@@##$$oX==--::.+*1223354111,,,,>,>oX>::::-*    ",
"    +#$#$##$#+++@@##$$$oX=--:-:.+*243325411,,,,>,>>oX:::---$    ",
"    +#$$##@$#@+@@##$$$*oX=---::.+*43322541,,,,>,>>>oX:----=$    ",
"    +#$##@@$#+@@##$#$$*oX=--:::.+*3222154,,,,>>>>>>oX-:--==$    ",
"    +###@@+$#+@@@##$$**oX--:-::.+*2211154,>,>>>>>::oX:-====$    ",
"    +#$##@@$#+@@##$$$**oX---::>.+*2111,53>,>>>>>::-oX-=-===$    ",
"    +$##@@+$$@###$$$***oX--:::>.+*11,,>53,>>>>>::-:oX=-===*$    ",
"    O##@@+@$$@##$#$$**=oX-::::>.+*1,,>,53>>>>:::-:-oX-===**#    ",
"    O#@@+@+$$#@##$$**=*oX:-::>>.+*,,,,>53>>>:::-:--oX===***#    ",
"    O@@+@++$$@##$#$***=oX-:::>>.+*,>,,>53>>:::-:---oX==****#    ",
"    O@+@+++**##$#$$**==oX::::>,.+*>,,>>53>:::-:---=oX=*****#    ",
"    O+@+++@**#$#$$**=*-oX-:::>,.+*,>>>>53:::-:---==oX*=****#    ",
"    O@+++@@=*##$$$*=*==oX:::>,>.+*>>>>>53::-----=-=oX=****$@    ",
"    O+@+++@=*#$#$***==-oX:::>,1.+*>>>>:53:-----=-==oX****$$@    ",
"    OO+++@#=*$#$$**==-=+X:::>,1.+*>>:::53-:---=-===oX***$$$@    ",
"    OO++@@#=*#$$**=*==-+X::>>,1.+*>::::53:---=-====oX**$$$$@    ",
"    OO+@@#@-*$$$***==--+X::>,11.+*:::::53---=-====*oX*$*$$$@    ",
"    OO@@@@#-*#$***==--:+X::>,11.+*::::-53--=-====**oX$*$$$$@    ",
"    OOOo=##-=$$**==-=--+X:>-,51.+*-+4-:53-=-====***oX*$@o:#+    ",
"    OOOXo#$-=$**=*==--:+X:-$+,1.+*$X+:-53=--===****oX$@OXo#+    ",
"    O+OO+##:=$***==--:-+X:-#$=2.+*#$#--53--===*=***oX$@OOO#+    ",
"    O++++#$:=***==-=--:+X:---12.+*--:--53-===*=****oX$@@@@#+    ",
"    O@###$$:-**====--:-+X>>,122.+*:---=53===*=****$oX$$$##@+    ",
"    O@##$#$:-*=*=---:-:+X>,1122.+*---=-53==*=****$$oX$$##@@+    ",
"    O@@##$*>-**==-=--::+X>,12<2.+*--=-=53=*=****$$$oX$##@#@O    ",
"    O@##$#$>:*====--:-:+X>,1222.+*-=-==53*=****$*$$oX####@@O    ",
"    O##$$$$>:====--:-::+X,,1221.+*=-=-=33=****$*$$$oX###@@+O    ",
"    O#$#$$$,:*==----:::+X,11221.+*-=-==32****$*$$$$oX##@@+@O    ",
"    O##$$$*,:==-=--:-::+X,11221.+*=-===32***$*$$$$#oX#@@@@+O    ",
"    O#$$$$*,:===--:-:-:+X,12221.+*-====32****$$$$#$oX@@@@+@O    ",
"    O#$$$*$,:==----:-::+X112221.+*====*12***$$$$#$#oX#@@+@+O    ",
"    O#$$$$*1:=-=--:-::>*X112221.+*===*=11**$$$$#$##oX@@+@++O    ",
"    O#$$$*$2>==--:-:::>*X112221.+*==*=*11*$$$$$$###oX@+@+++O    ",
"    +#$$*$*2>=----:-::>*X122221.+*=*=**,,$*$$$$####oX+@++++O    ",
"    +#$*$**2,----:-:::>*X122211.+**=***,,*$$$$####@oX@+++++O    ",
"    +#$$*$*2,=--:-:::>>*X122211.+*=****,>$$$$####@@oX+++++@O    ",
"    +#$*$*=31----:-::>>*X12221,.+******>>$$$#$##@#@oX@+++@++    ",
"    +#*$**=31---:-:::>,*X22221,.+******>:$$#$##@#@@oX+++++@+    ",
"    +#$*$==31--:-:::>>,*X22221,.+*****$>:$#$####@@+oX++++@@+    ",
"    +#*$*==31-:-:-::>>,;o22221,.+****$*::$$####@@@@oX+++@@@+    ",
"    +$$**==52--:-:::>>,;o22221,.+***$*$:-$####@@@@+oX++@+@@+    ",
"    +$**==-52-:-:::>>,1;o22211,.+**$*$$--####@@@@++oX+++@@#+    ",
"    +$**==-52:-::::>>,1;*22211,.+*$*$$$--$##@#@@+@+oX++@@@#+    ",
"    +$*==--53-:-:::>>,1;*22211,.+**$$$$-=##@#@@+@++oX+@+@##+    ",
"    +$*==--53:-::::>,12:>2221,,.+*$$$$#==#@#@@+@+++oo@+@@#@@    ",
"    +$===--533333444444,22221,,.+*$$$#$====**$$$###@o+@@#@#@    ",
"    +$-+,--5555555555555522,+4,.+*Oo-$$==***$$$#####O@@Oo-#@    ",
"    +$$X+---::::::>>,112222=X+,.+#OXo$###@@@@++++++@@@+OXo$@    ",
"    +$#$#--::::::>>,1122221=$#,.+@OOO###@#@@+@+++++@+@+OOO$@    ",
"    +$--:--::::::>,,112222,--:,.+@@@@##@#@@+@+++++@+@@++++$@    ",
"    +++++++++++++++++++++++++++%+++++++OOOOOOOOOOOO++++++++#    ",
"....%&&&&&&&&&&&&&&&&&&&&&&&&&&&&&&&&&&&&&&&&&&&&&&&&&&&&&&%...."
};
