/* XPM */
static char *ad217c1a2ade44b8ac9a0fb647aa9fc835rzrJKH189KhMKj[] = {
/* columns rows colors chars-per-pixel */
"64 64 104 2 ",
"   c white",
".  c #FDFDFD",
"X  c gray99",
"o  c #FEFEFE",
"O  c #FDFDFC",
"+  c #FEFEFF",
"@  c #FFFFFE",
"#  c #CDCCCA",
"$  c #B1B1B0",
"%  c #ABABAC",
"&  c #E7E9EB",
"*  c #EAE8E6",
"=  c #C0C1C2",
"-  c #FCFDFE",
";  c #B6B3B1",
":  c #9EA1A2",
">  c #EFF0F0",
",  c #BDBAB9",
"<  c #B4B5B6",
"1  c #BDBDBC",
"2  c #ADADAE",
"3  c #EEF0F2",
"4  c #FEFBF6",
"5  c #1B1713",
"6  c #373A3D",
"7  c #505151",
"8  c #C5CACF",
"9  c #6A625A",
"0  c black",
"q  c #B6BDC4",
"w  c #7E7770",
"e  c #2A2D2F",
"r  c #50504F",
"t  c #9DA0A3",
"y  c #7C7773",
"u  c #1D1B19",
"i  c #0D0E10",
"p  c #4E5053",
"a  c #D6DADF",
"s  c #FEFAF6",
"d  c #1F1C1B",
"f  c #B5BBC3",
"g  c #F0EBE5",
"h  c #3B3A3A",
"j  c #54524F",
"k  c #4E555B",
"l  c #3D352D",
"z  c #404851",
"x  c #968C84",
"c  c #414750",
"v  c #FDFAF6",
"b  c #24201C",
"n  c #252628",
"m  c #4D5054",
"M  c #A9A197",
"N  c #464D55",
"B  c #E4DFD9",
"V  c #111214",
"C  c #F6FCFF",
"Z  c #E1DBD5",
"A  c #211D19",
"S  c #05080C",
"D  c #B9BEC3",
"F  c #877E77",
"G  c #3C4149",
"H  c #FBFBFB",
"J  c #1E1B1A",
"K  c #CAD1DA",
"L  c #585149",
"P  c #15181B",
"I  c #545250",
"U  c #A4ABB2",
"Y  c #5E554B",
"T  c #252C35",
"R  c #897F77",
"E  c #3D434A",
"W  c #FCFCFB",
"Q  c #1B1612",
"!  c #323538",
"~  c #515355",
"^  c #B3B1B0",
"/  c #1D1C1B",
"(  c #BFC5CA",
")  c #665F58",
"_  c #3D4247",
"`  c #6F6B68",
"'  c #535556",
"]  c #272422",
"[  c #80868D",
"{  c #847A73",
"}  c #353B43",
"|  c #CBCAC8",
" . c #AEAEAE",
".. c #ACADAD",
"X. c #D8D8D8",
"o. c #CCCDCE",
"O. c #EFECEA",
"+. c #C9CACA",
"@. c #DFDDDC",
"#. c #949393",
"$. c #BBBEC1",
"%. c #E3E1E0",
"&. c #D1D2D4",
"*. c #FDFCFC",
/* pixels */
"                                                                                                                                ",
"                                                                                                                                ",
"                                                                                                                                ",
"                                                                                                                                ",
"                                                                                                                                ",
"                                                                                                                                ",
"                                                                                                                                ",
"                                                                                                                                ",
"                                                                                                                                ",
"                                                                                                                                ",
"                                                                                                                                ",
"                                                                                                                                ",
"                                                                                                                                ",
"                                                                                                                                ",
"                                                                                                                                ",
"                                                                                                                                ",
"                                                                                                                                ",
"                                                                                                                                ",
"                                            . X X o   o X       X X o O X X X +                                                 ",
"                                                    .         +                 o                                               ",
"                                          @ # $ % &   * = -     ; : > , < 1 2 3   o                                             ",
"                                      o   4 5 6 7 8   9 0 q   w e r t y u i p a   .                                             ",
"                                      o   s d f     g h j k   l z       x c   @ o                                               ",
"                                      o   v b n m   M N B V C Z A S D   F G   H                                                 ",
"                                      o   4 J K     L P I 0 U     Y T   R E   W                                                 ",
"                                      o   4 Q ! ~ ^ / ( @ ) _ ` ' ] [   { }   W                                                 ",
"                                          @ |  ...X.o.    O.+.@.#.$.    %.&.  o                                                 ",
"                                                      o .           o o     o                                                   ",
"                                            *.X X o .     o . o H X     o .                                                     ",
"                                                                                                                                ",
"                                                                                                                                ",
"                                                                                                                                ",
"                                                                                                                                ",
"                                                                                                                                ",
"                                                                                                                                ",
"                                                                                                                                ",
"                                                                                                                                ",
"                                                                                                                                ",
"                                                                                                                                ",
"                                                                                                                                ",
"                                                                                                                                ",
"                                                                                                                                ",
"                                                                                                                                ",
"                                                                                                                                ",
"                                                                                                                                ",
"                                                                                                                                ",
"                                                                                                                                ",
"                                                                                                                                ",
"                                                                                                                                ",
"                                                                                                                                ",
"                                                                                                                                ",
"                                                                                                                                ",
"                                                                                                                                ",
"                                                                                                                                ",
"                                                                                                                                ",
"                                                                                                                                ",
"                                                                                                                                ",
"                                                                                                                                ",
"                                                                                                                                ",
"                                                                                                                                ",
"                                                                                                                                ",
"                                                                                                                                ",
"                                                                                                                                ",
"                                                                                                                                "
};
