/* XPM */
static char *c7a18912270c4a7fd30c92aeb32a2fad7Td7IhxpOpLFRutg[] = {
/* columns rows colors chars-per-pixel */
"64 64 121 2 ",
"   c black",
".  c #080000",
"X  c #000008",
"o  c #000408",
"O  c #000010",
"+  c #000C10",
"@  c #001010",
"#  c #442C20",
"$  c #523223",
"%  c #553A28",
"&  c #4A3C39",
"*  c #4A4531",
"=  c #4A4139",
"-  c #524931",
";  c #524D36",
":  c #7F452D",
">  c #7B4531",
",  c #7F4931",
"<  c #4A3842",
"1  c #315D73",
"2  c #345E70",
"3  c #424142",
"4  c #4A4142",
"5  c #524D42",
"6  c #5A4D4A",
"7  c #525142",
"8  c #D0693F",
"9  c #D1693F",
"0  c #D06A3E",
"q  c #D67131",
"w  c #AC7442",
"e  c #CE6942",
"r  c #CE6D42",
"t  c #C26F4C",
"y  c #D36941",
"u  c #C5734C",
"i  c #D37047",
"p  c #A48352",
"a  c #BDA14C",
"s  c #BDA24F",
"d  c #BDA252",
"f  c #A49C6F",
"g  c #ACA268",
"h  c #ACA273",
"j  c #FF8652",
"k  c #FF8A52",
"l  c #FF8855",
"z  c #F78E5A",
"x  c #FF8A5A",
"c  c #FF8E5A",
"v  c #CEAA42",
"b  c #C2A87B",
"n  c #FFAE63",
"m  c #FFB263",
"M  c #FFCF63",
"N  c #F7DA6B",
"B  c #F7DB6B",
"V  c #F1CF78",
"C  c #E6D277",
"Z  c #F7DB73",
"A  c #39AD85",
"S  c #3DAE86",
"D  c #41B088",
"F  c #46B38B",
"G  c #47B48C",
"H  c #49B48C",
"J  c #4DB68E",
"K  c #4FB890",
"L  c #50B890",
"P  c #52B991",
"I  c #55BA92",
"U  c #56BC94",
"Y  c #5ABC94",
"T  c #5BBD95",
"R  c #5FBF97",
"E  c #60BF97",
"W  c #5FC098",
"Q  c #62C199",
"!  c #64C298",
"~  c #65C29A",
"^  c #67C39B",
"/  c #67C49C",
"(  c #6AC59D",
")  c #6BC59D",
"_  c #6CC69D",
"`  c #6FC79F",
"'  c #6FC89F",
"]  c #6FC8A0",
"[  c #70C7A0",
"{  c #70C8A0",
"}  c #74CBA3",
"|  c #76CBA3",
" . c #75CBA4",
".. c #77CBA4",
"X. c #78CCA4",
"o. c #79CDA5",
"O. c #7BCDA5",
"+. c #78CDA8",
"@. c #7CCEA8",
"#. c #7CD0AC",
"$. c #918581",
"%. c #81D1AC",
"&. c #86D3AF",
"*. c #87D4AF",
"=. c #83D5B3",
"-. c #88D5B0",
";. c #92DAB7",
":. c #97DBBA",
">. c #9EDFBF",
",. c #FFDF9C",
"<. c #F7E794",
"1. c #FFEB9C",
"2. c #FFF39C",
"3. c #FFFF9C",
"4. c #FFF7A5",
"5. c #FFF3AD",
"6. c #FFFBAD",
"7. c #FFF3B5",
"8. c #A0E0C0",
"9. c #A6E3C4",
"0. c #FFF7EF",
/* pixels */
"{ { { { { { { { { { { { { { { { { { { { { { { { { { { { { { { { { { { { { { { { { { { {     { { { { { { { { { { { { { { { { { { ",
"{ { { { { { { { { { { { { { { { { { { { { { { { { { { { { { { { { { { { { { { { { { . . 5.5.    { { { { { { { { { { { { { { { { ",
"{ { { { { { { { { { { { { [ { { { { { [ { [ [ { { { { { { { { { { { { { { { { { { { . . 5.5.    { { { { { { { { } { { { { { { { ",
"{ { { { { { { { { { { { ' } } { ' J ~ } } } { { { { { { { { { { { { { { { { { {     5.5.h h     { { { ] } } { { L E } { } { { { ",
"{ { { { { { { { { { { { { T T o.{ A R o.) P { { { { { { { { { { { { { { { { { {     5.5.h h     { { { { W T } { S I o.` P ) ' { ",
"{ { { { { { { { { { { { } T J Q { I ~ ) P P { { { { { { { { { { { { { { { { { {     7.7.a a 7.7.    [ } R H Q ' I Q ` I J ` { { ",
"{ { { { { { { { { { { { ` o.E F {  . .U H  .{ { { { { { { { { { { { { { { { { {     7.7.a a 7.7.    { { } ~ F ` } o.R G ..{ { { ",
"{ { { { { { { { { { { { { { { { { { { { { { { { { { { { { { { { { {     { {     7.7.7.7.7.7.7.7.7.7.    { { [ { { ` { ] ] { { { ",
"{ { { { { { { { { { { { { { { { { { { { { { { { { { { { { { { { { {     { {     7.7.7.7.7.7.7.7.7.7.    { { { { { { { { { { { { ",
"{ { { { { { { { { } { [ { { { { { { { { { { { { { { { { { { { {     7.7.    7.7.7.7.7.7.7.7.7.7.7.7.    { { { { { { { { { { { { ",
"{ { { { { } { { ~ W { [ } { { { { { { { { { { { { { { { { { { {     7.7.    7.7.7.7.7.7.7.7.7.7.7.7.    { { { { { { { { { { { { ",
"{ { { { ` Q [ o.    } } ~ ) { { { { { { { { { { { { { { { { { {     7.7.7.7.7.7.7.7.7.7.7.7.7.7.7.7.d d     { { { { { { { { { { ",
"{ { { } / D ~ }     } { F T } [ { { { { { { { { { { { { { ` ` {     7.7.7.7.7.7.7.7.7.7.7.7.7.7.7.7.d d     { { { { { { { { { { ",
"{ { { [ ] `     e e     Q { { { { { { { { { { { { { } { } J     7.7.7.7.7.7.3 3 3 3 7.7.7.7.7.7.7.7.a a 7.7.    { { { { { { { { ",
"{ { { { { {     e e     { { { { { { { { { { { { ] R J ..} D     7.7.7.7.7.7.3 3 3 3 7.7.7.7.7.7.7.7.a a 7.7.    { { { { { { { { ",
"{ { { {     e e e e     { { { { { { { { { { { { } / P P ` Q     7.7.3 3 3 3 k k k k 3 3 7.7.7.7.a a 7.7.7.7.    { { { { { { { { ",
"{ { { {     e e e e     { { { { { { { { { { { { ] } ` J ` ..    7.7.3 3 3 3 k k k k 3 3 7.7.7.7.a a 7.7.7.7.    ] { { { { { { { ",
"{ { { {     9 9 9 9     ' { { { o.{     ] { { { { { { {     ,.,.& & k k k k k k 3 3 7.7.7.7.7.7.7.7.7.7.7.7.    { { { ' { { { { ",
"{ { { {     9 9 9 9     { { ` o.8...    { { { { { { { {     1.,.& & k k k k k k 3 3 7.7.7.7.7.7.7.7.7.7.7.7.    @.` ' { { { { { ",
"{ {     e e 9 9 9 9 e e     ~ o.    7.7.    { { { {     k k & & b b k k 3 3 k k 3 3 7.7.7.7.7.7.7.7.7.7.7.7.    @.~     ] { { { ",
"{ {     e e 9 9 9 9 e e     -.]     7.7.    { { { {     k k & & b b k k 3 3 k k 3 3 7.7.7.7.7.7.7.7.7.7.7.7.    { -.    { { { { ",
"{ {     e e 9 9 9 9 r r + + *.)     7.7.7.7.    { {     k k k k 3 3 3 3 3 3 b b & & 7.7.7.7.7.7.7.7.7.7.7.7.g g . . 7.7.    { { ",
"{ {     e e 9 9 9 9 r r + + ` `     7.7.7.7.    { {     k k k k 3 3 3 3 3 3 b b & & 7.7.7.7.7.7.7.7.7.7.7.7.g g . . 7.7.    { { ",
"{ {     e e 9 9 9 9 r r # #     7.7.7.7.7.7.    { {     k k 3 3 3 3 3 3 k k & & ,.,.7.7.7.7.7.7.7.7.7.7.7.7.g g 2.2.7.7.    { { ",
"{ {     e e 9 9 9 9 r r # #     7.7.7.7.7.7.    { {     k k 3 3 3 3 3 3 k k & & ,.,.7.7.7.7.7.7.7.7.7.7.7.7.g g 2.2.7.7.    { { ",
"{ { { {     e e e e 3 3 3 3 7.7.7.7.7.7.7.7.<.<.X X k k 3 3 3 3 2 2 1 1 k k 3 3 7.7.7.7.7.7.7.7.7.7.7.7.7.7.7.7.7.7.B B     { { ",
"{ { { {     e e e e 3 3 3 3 7.7.7.7.7.7.7.7.<.<.X X k k 3 3 3 3 2 2 1 1 k k 3 3 7.7.7.7.7.7.7.7.7.7.7.7.7.7.7.7.7.7.B B     { { ",
"{ { { {     e e 3 3 7.7.7.7.7.7.7.7.7.7.7.7.<.<.; ; k k 3 3 2 2 2 2 1 1 k k 3 3 7.7.7.7.7.7.7.7.7.7.7.7.7.7.7.7.7.7.    { { { { ",
"{ { ) )     e e 3 3 7.7.7.7.7.7.7.7.7.7.7.7.<.<.; ; k k 3 3 2 2 2 2 1 1 k k 3 3 7.7.7.7.7.7.7.7.7.7.7.7.7.7.7.7.7.7.    { { { { ",
"} } J J } ]     7.7.7.7.7.7.7.7.y y B B B B 3 3 k k 3 3 2 2 1 1 1 1 b b & & 7.7.7.7.7.7.7.7.7.7.7.7.7.7.7.7.6.6.v v     { { { { ",
"[ { { I H {     7.7.7.7.7.7.7.7.y y B B B B 3 3 k k 3 3 2 2 1 1 1 1 b b & & 7.7.7.7.7.7.7.7.7.7.7.7.7.7.7.7.6.6.v v     { { { { ",
"{ { } ` R {     7.7.7.7.7.7.7.7.7.7.y 9 8 8 3 3 k k 3 3 2 2 k k k k & & ,.,.7.7.7.7.7.7.7.7.7.7.7.7.7.7.7.7.C C C C     { { { { ",
"{ { { { } {     7.7.7.7.7.7.7.7.7.7.8 8 8 8 3 3 k k 3 3 2 1 k k k k & & ,.,.7.7.7.7.7.7.7.7.7.7.7.7.7.7.7.7.C C C C     ` { o.) ",
"{ { { { { { . . n n 7.7.7.7.3.3.V V 0 8 k k l l l k k k k k 3 3 3 3 7.7.7.7.7.7.7.7.7.7.7.7.7.7.7.7.7.7.B B B B B B     +.{ ] ] ",
"{ { { { { { . . n n 7.7.7.7.3.3.V V 8 8 k k l l l l k k k k 3 3 3 3 7.7.7.7.7.7.7.7.7.7.7.7.7.7.7.7.7.7.B B B B B B     =.{ ] { ",
"{ { { {     n n w w B B B B V V q q k k k k l l l l k k 3 3 7.7.3 3 7.7.7.7.7.7.7.7.7.7.7.7.B B 7.7.B B B B B B     #.=.` { { { ",
"{ { { {     n n w w B B B B V V q q k k k k l l l l k k 3 3 7.7.3 3 7.7.7.7.7.7.7.7.7.7.7.7.B B 7.7.B B B B B B     { ..{ { { { ",
"{ { { {     % % c c 8 8 8 8 u t k k k k k k j j 5 5 3 3 7.7.7.7.7.7.= = = = 1.1.1.1.B B B B 7.7.B B 6.6.C C B B a d     { { { { ",
"{ { { {     % % c c 8 8 e 8 t u j j k k k k j j 5 5 3 3 7.7.7.7.7.7.= = = = 1.1.1.1.B B B B 7.7.B B 6.6.C C B B d a     { { { { ",
"{ { { { { { @ @ c c k k k k j j 4 4 3 3 3 3 j j u u 3 3 7.7.7.7.7.7.f f 4.4.3 3 1.1.B B 7.7.B B 7.7.C C v v B B B B B B     { { ",
"{ { { { { { @ @ z z k k k k j j 4 4 3 3 3 3 j j u u 3 3 7.7.7.7.7.7.f f 4.4.3 3 1.1.B B 7.7.B B 7.7.C C v v B B B B B B     { { ",
"{ { { {     k k k k l l l l 3 3 3 3 0.0.6 6 8 8 8 8 3 3 B B 7.7.7.7.5.5.5.5.3 3 m m B B N N N N N N N N B B d d         { { { ] ",
"{ { { {     k k k k l l l l 3 3 3 3 0.0.6 4 8 9 8 8 3 3 B B 7.7.7.7.5.5.5.5.3 3 m m B B B B B B N N B B B B d d         { ] { { ",
"{ { { {     k k 7 7 l l l l 3 3 2 2 6 6 $.f 9 9 e 0 3 3 B B 7.7.7.7.f f * * m m 3 < B B B B B B N N B B B B     S U o.] U ] ] ..",
"{ { { {     k k 7 7 l l l l = = 1 1 6 6 $.$.e e 8 8 < < B B 7.7.7.7.f f * * m m 3 3 B B B B B B N N N N B B     P Q ` T H ` { { ",
"{ { { { { { o o z z j j j l l k 9 y e e e e p w < < B B N N B B 7.7.,.,.& & l l l l 3 3 B B B B B B B B     F ` ....I G ..] { { ",
"{ { { { { { o o z z j j j j k k 9 9 e e i t p p < < N N N N B B 7.7.,.,.& & l l l l 3 3 B B B B B B B B     ' { ] ] { ` { { { { ",
"{ { { { { { o o $ $ > > i i 9 9 9 9 e t < 3 < < M M N N N N B B 7.7.& & b b l l l l 3 3 B B             { { { { ] ] { { { { { { ",
"{ { { { { { o o $ $ > > i i 9 8 0 0 r r 3 3 < < M M N N N N B B 7.7.& & b b l l l l 3 3 B B             { { { { { { { { { { { { ",
"{ { { {     7.7.7.7.3 3 3 3 3 3 3 3 3 3 B B N N N N N N N N N N B B 3 3 m m k k k k e e     { ) W { [ } { { { { { { { { { { { { ",
"{ { { {     7.7.7.7.3 3 3 3 3 3 3 3 < < B B B B N N N N B B B B B B 3 3 m m k k k k e e     } U D { { ) ) { { { { { { { { { { { ",
"{ { { }     7.7.7.7.7.7.7.7.7.7.7.7.B B B B B B N N N N B B B B B B m m 3 3 k k 9 9 e e     o.T F } { H I } { { { { { { { { } P ",
"{ { { {     7.7.7.7.7.7.7.7.7.7.7.7.B B B B B B N N N N N N B B B B m m 3 3 k k 8 8 e e     R } ` ` F T ] { { { { { { { { { { { ",
"{ { { { { {     7.7.7.7.7.7.7.7.7.7.7.7.B B B B N N B B B B d d         e e 9 9 9 9 e e     / { { ` W ` { { { { { { { { { { { } ",
"{ { { { { {     7.7.7.7.7.7.7.7.7.7.7.7.B B B B N N B B B B d d         e e 9 9 9 9 e e     { { { { } { { { { { { { { { { { { { ",
"{ { { { { { { {     B B B B 7.7.7.7.B B B B B B N N B B 3 3     J } { {     9 9 9 9     { { { { { { { { { { { { { { { { { { { { ",
"{ { { { { { { {     B B B B 7.7.7.7.B B B B B B B B B B 3 3     } { { {     9 9 9 9     { { { { { { [ ` { { [ } { { { { { { { { ",
"{ { { { { { { {     3 3 3 3 Z Z Z Z B B B B 3 3 3 3 # # r r     { {     k k : : x x     { { { { { { { ` { [ } >.o.[ ' { { { { { ",
"{ { { { { { { {     3 3 3 3 Z Z Z Z B B B B 3 3 3 3 # # r r     { {     k k : : x x     { { { { { { ` ;.&.! o.9.@.~ %.:.` { { { ",
"{ { { { { { { {     e e e e - - O O 3 3 3 3 e e e e r r + + { { { { { {             { { { { { { { { [ @.;.-.{ %.{ &.;.%.' { { { ",
"{ { { { { { { {     e e e e - - O O 3 3 3 3 e e e e r r + + { { { { { {             { { { { { { { { { ) #.-.{ _ ) *.&.) ' { { { ",
"{ { { { { { { { { {             { {     k k : : x x , ,     { { { { { { { { { { { { { { { { { { { { ' ` ` ` [ { { ` ) { { { { { ",
"{ { { { { { { { { {             { {     k k : : x x , ,     { { { { { { { { { { { { { { { { { { { { { { { { { { { { { { { { { { ",
"{ { { { { { { { { { { { { { { { { { { {                 { { { { { { { { { { { { { { { { { { { { { { { { { { { { { { { { { { { { "
};
