/* XPM */
static char *b9ad6164a2814aa3b5774217d17ed502ZVF0bEpmBKgsgko8[] = {
/* columns rows colors chars-per-pixel */
"64 64 137 2 ",
"   c black",
".  c #000400",
"X  c #080800",
"o  c #000008",
"O  c #080008",
"+  c #000010",
"@  c #080010",
"#  c #000018",
"$  c #554F20",
"%  c #554F26",
"&  c #524E28",
"*  c #5A4D29",
"=  c #4A4531",
"-  c #5A5539",
";  c #7F7735",
":  c #423C42",
">  c #424142",
",  c #4A4542",
"<  c #4A4942",
"1  c #4F4F47",
"2  c #4A454A",
"3  c #4A414C",
"4  c #524D42",
"5  c #524E44",
"6  c #524F44",
"7  c #525142",
"8  c #525542",
"9  c #52514A",
"0  c #5A514A",
"q  c #524552",
"w  c #5A5A55",
"e  c #735D4A",
"r  c #6B4173",
"t  c #787B6B",
"y  c #80774F",
"u  c #947C4A",
"i  c #8C7173",
"p  c #AC9F34",
"a  c #C09D3C",
"s  c #FFEF3F",
"d  c #9A8A41",
"f  c #BD9E42",
"g  c #B59A4A",
"h  c #84826B",
"j  c #84846A",
"k  c #8B887E",
"l  c #C19E42",
"z  c #C0B042",
"x  c #C2B942",
"c  c #C8BA44",
"v  c #C2B94A",
"b  c #D0BE4A",
"n  c #CDB752",
"m  c #DEBE52",
"M  c #E1BE4F",
"N  c #DEBA6B",
"B  c #D8C252",
"V  c #DEC35A",
"C  c #EFD74A",
"Z  c #E7CF5A",
"A  c #FFEB42",
"S  c #FFEF42",
"D  c #F7EB4A",
"F  c #FFEF4A",
"G  c #FFF342",
"H  c #FFF34A",
"J  c #FFEF5A",
"K  c #39AD85",
"L  c #3DAE86",
"P  c #42B189",
"I  c #45B28A",
"U  c #47B48C",
"Y  c #4BB68E",
"T  c #4DB68E",
"R  c #4FB890",
"E  c #51B991",
"W  c #57BB93",
"Q  c #5BBD95",
"!  c #5EBF97",
"~  c #60C098",
"^  c #61C098",
"/  c #65C39B",
"(  c #67C49C",
")  c #68C39B",
"_  c #69C49B",
"`  c #68C59D",
"'  c #6DC69E",
"]  c #6FC89F",
"[  c #6FC7A0",
"{  c #6FC8A0",
"}  c #70C7A0",
"|  c #70C8A0",
" . c #71C8A0",
".. c #74CAA2",
"X. c #76CBA4",
"o. c #76CCA4",
"O. c #78CCA4",
"+. c #78CCA5",
"@. c #7BCDA5",
"#. c #7ACFAA",
"$. c #7CCEA8",
"%. c #A4A287",
"&. c #ACAA8B",
"*. c #AAABAA",
"=. c #80CFAA",
"-. c #81D0AB",
";. c #83D2AD",
":. c #85D3AE",
">. c #86D3AF",
",. c #87D3AF",
"<. c #81D3B1",
"1. c #88D4B0",
"2. c #89D4B1",
"3. c #8CD6B3",
"4. c #92D8B6",
"5. c #93DAB7",
"6. c #93DAB8",
"7. c #96DBB9",
"8. c #98DBBB",
"9. c #9EDFBF",
"0. c #D6C384",
"q. c #C2C194",
"w. c #C8C697",
"e. c #FFF384",
"r. c #C6C3BD",
"t. c #C6C7BD",
"y. c #C8C3BD",
"u. c #FFF4AA",
"i. c #C0BFC0",
"p. c #A0E0C0",
"a. c #A5E3C3",
"s. c #C5C3C0",
"d. c #CEC3C6",
"f. c #FFFFC6",
"g. c #FFFFDE",
"h. c #FFFFF7",
"j. c white",
/* pixels */
"| | | | | | | | | | | | | | | | ..'  .' | | | | | | | | | | | | | | | | | | | | | | | | | | | | | | | | | | | | | | | | | | | | ",
"| | | | | | | | | | | |     | | | |  . .| | | | | | | | | | | | | | | | | | | | | | | | | | | | | | | | | | | | | | | | | | | | ",
"| | | | | | | | | | | |     | | | | | | | | | | | | | | | | | | | | | | | | | | | | | | | | | | | | | | | | | | | | | | | | | | ",
"| | | | | | | | | |     m m     | T / ..| ..| | | | | | | | | | | | | | | | | | | | | | | | | | | | | { ..o.| | E ^ ..| o.| | | ",
"| | | | | | | | | |     m m     { K Q O.` W | | | | | | | | | | | | | | | | | | | | | | | | | | | | | | ^ Q O.| L W O.' E ` | | ",
"| | | | | | | | | |     m m     ' W / ' E T | | | | | | | | | | | | | | | | | | | | | |     | | | | | ..Q Y ^ | W ( ' E T | | | ",
"| | | | | | | | | |     m m     | ..o.W T O.| | | | | | | | | | | | | | | | | | | | | |     | | | | | | o./ I ' | O.! Y o.| | | ",
"| | | | | | | | | |     m m m m     { | | | | | | | | | | | | | | | | | | | | |         S S     | | | | { | | ' | | | | | | | | ",
"| | | | | | | | | |     m m m m     | | | | | | | | | | | | | | | | | | | | | |         S S     | | | | | | | | | | | | | | | | ",
"| | | | | | | | | ..    1 1 m m     | | | | | | | | | | | | | | | | | | | |     S S S S S S     ..| | | | | | | | | | | | | | | ",
"| | | | | ..| | / !     1 1 m m     | | | | | | | | | | | | | | | | | | | |     S S S S S S     ! | | | | | | | | | | | | | | | ",
"| | | | ' / | O.E P     1 1 m m m m     | | | | | | | | | ..| | | | | | + + S S < < S S     O.W L ..../ ` ..| | | | | | | | | | ",
"| | | ..( P / ..W Y     1 1 m m m m     | | | | | | | | | ' { | | | | | + + S S < < S S     ..! T | | Y W ..| | | | | | | | | | ",
"| | | | | ' P ! | {     1 1 1 1 m m     | | | | | | | | ..T W | | ..    S S $ $ < < S S     Q ..{ ' P ! ..| | | | | | | | | | | ",
"| | | | | | / ' ..|     1 1 1 1 m m     | | | | ..! R o.o.I R O.| T     S S $ $ < < S S     ` ..| { ^ { | | | | | | | | | | | | ",
"| | | | | | ..| | | | ..    6 6 m Z     | | | | | ` E E ' ^ / ` + + S S > > 6 6 % % S S     | | | | ..| | | | | | | | | | | | | ",
"| | | | | | | | | | | |     6 6 m m     | | | | { ..{ T ' o.o./ + + S S > : 6 6 % % S S     | | | | | | | | | ' | | | | | | | | ",
"| | | | | | | | | | | |     6 6 m m     { | | |     | | | |     S S $ $ 6 6 6 6 S S # # | | | | | | | | | | | O.| | | | | | | | ",
"| | | | | | | | | | | {     6 6 m m     { [ | |     | | | |     S S $ $ 6 6 6 6 S S # # | | | | | | | | } ' X.p.$.' | | | | | | ",
"| | | | | | | | | | | [     6 6 & & # # 7.[     S S + + | |     S S , , 6 6 6 6 S S + + | |             1./ O.a.$./ ;.8.] | | | ",
"| | | | | | | | | | | |     6 6 & & # # $.'     S S + + | |     S S , , 6 6 6 6 S S + + | |             4.3.} -.| ,.7.O.| | | | ",
"| | | | | | | | | | | | ` ;.    D D & &     S G S S $ $     S S , , , , 6 6 6 6 S S $ $     m m m B     =.2.' ` ` ,.;.` | | | | ",
"| | | | | | | | | | | | } '     D D & &     S S S S $ $     S S , , , , 6 6 6 6 S S $ $     m m m m     ' ' | | |  .' | | | | | ",
"| | | | | | | | | | | | | |     S S l l s s s S z z A A > > S S > > 6 6 7 7 S S S S S S > > m m     ..}         | | | | | | | | ",
"| | | | | | | | | | | | | |     S S l l s s s s z z A A > > S S > > 6 6 4 7 S S S S S S > > m m     | |         | | | | | | | | ",
"| | | | | | | | | | | |     S S S S S S s s s s A A : : S S > > 6 6 6 6 4 7 S S > > > > m m m m > >     S S     | | | | | | | | ",
"| | | | | | ..| | | | |     S S S S S S s s s s A A : : S S > > 6 6 6 6 7 7 S S > > > > m m m m > >     S S     | | | | | | | | ",
"| | ..| | |         ..|     e.e.u.u.u.u.u.u.S S s s s s 7 7 7 7 , < S S q.q.= = - - &.&.x x , , S S S S     | | | | | | | | | | ",
"| | ` ` ..'         ( {     e.e.u.u.u.u.u.u.S S s s s s 7 7 7 7 < < S S q.q.= = - - &.&.x x , , S S S S     | | | | | | | | | | ",
"| ..E T o.|     r.y.    e.e.e.e.u.u.u.u.u.u.u.u.s s s s S S 7 7 S S < < = = f.f.g.g.- - G G G G S S l l     | | | | | | | | | | ",
"| | | W U |     r.r.    e.e.e.e.u.u.u.u.u.u.u.u.s s s s S S 7 7 S S < < = = f.f.g.g.- - G G G G S S l l     | | | | | | | | | | ",
"| | ..' ! |     d.d.3 3 S S u.u.u.u.u.u.S S S S S S S S S S S S > > > > j.j.j.j.4 4 4 4 S S S S F F O O | | | | | | | | | | | | ",
"| | | | ..|     d.d.3 3 S S u.u.u.u.u.u.S S S S S S S S S S S S > > > > j.j.j.j.4 4 4 4 S S S S F F O O ' ] | | #.X.' | ' | O.} ",
"| | | | | | | | @ @ 3 3 S S S S S S S S > > > > > > S S c c 0 0 > > j.j.j.j.h h k k h.h.7 7 S S p p p p             ' | O.| { { ",
"| | | | | | | | @ @ 3 3 S S S S S S S S > > > > > > S S c c 0 0 > > j.j.j.j.h h k k h.h.7 7 S S p p p p             ' #.<.| { { ",
"| | | | | |     > > S S S S S S S S > > q q j.j.r r G G m m m m 0.0.> > j.j.j.j.f.f.- - s s s s s s s s S S S S S S     | | | { ",
"| | | | | |     > > S S S S S S S S > > q q j.j.r r G G m m m m 0.0.> > j.j.j.j.f.f.- - s s s s s s s s S S S S S S     | | | | ",
"| | | |     j.j.> > S S 7 7 S S S S > > q q q q G G n n m m 1 1 > > 0.0.j.j.j.j.- - w.w.s s s s s s s s S S         | ] | | | | ",
"| | | |     j.j.> > S S 7 7 S S S S > > q q q q G G n n m m 1 6 > > 0.0.j.j.j.j.- - w.w.s s s s s s s s S S         | | | | | | ",
"| | | | | |     j.j.w w S S S S S S S S F F b b m m m m m m m m > > r.r.s.s.j.j.f.f.- - S S S S H H 2 2     | | | | | | | | | | ",
"| | | | | |     j.j.w w S S S S S S S S F F b b m m m m m m m m > > r.r.s.s.j.j.f.f.- - S S S S H H 2 2     | | | | | | | | | | ",
"| | | | | | | | X X w w > > > > M M M M e e b b m m > > > > > > r.r.r.r.s.s.4 4 - - w.w.S S l l v v v v m m     ..| | | | | | | ",
"| | | | | | | | X X w w > > > > M M M M e e b b B m > > > > > > r.r.r.r.s.s.4 4 - - w.w.S S l l v v v v m m     W ! | | ..| o.[ ",
"| | | | | | | | | |     j.j.j.j.> > > > > > > > > > r.r.y.y.y.y.y.y.y.y.= = q.q.s s s s s s s s g g * *     O.| L W O.{ W ' | ..",
"| | | | | | | | | |     j.j.j.j.> > > > > > > > > > r.r.y.y.y.y.y.y.y.y.= = q.q.s s s s s s s s g g * *     / | E ^ ' W Y ` ..{ ",
"| | | | | | | |     j.j.j.j.j.j.j.j.i.i.r.r.r.r.r.r.r.r.y.y.y.y.y.y.j.j.f.f.= = s s s s s s s s o o | | O.^ P { ..o.Q T ..{ | | ",
"| | | | | | | |     j.j.j.j.j.j.j.j.i.i.r.r.r.r.r.r.r.r.y.y.y.y.y.y.j.j.f.f.= = s s s s s s s s o o | | | | { | | | | ' | | | | ",
"| | | | | |     j.j.*.*.    6 6 j.j.j.j.j j r.r.t.r.t t j.j.y.y.> >     j.j.j.j.    S S A A B B u u o o | | | | | | | | | | | | ",
"| | | | | |     j.j.*.*.    9 9 j.j.j.j.j j r.r.r.t.t t j.j.y.y.> >     j.j.j.j.    S S A S B B u u o o | | | | | | | | | | | | ",
"| | | | | ..| | . . . . | ..    j.j.7 7 j j r.r.t.t.8 8 j.j.j.j.    | |         | |     i i B B N N o o | | | | | | | | | | | ..",
"| | | | ' / | o..   . . ) `     j.j.7 7 j h r.r.t.t.8 8 j.j.j.j.    | |         | |     i i B B N N o o ` | | | | | | | | | | ` ",
"| | | ../ P ) O.W Y ..| I Q ..|     f f 6 6 r.r.y y 9 9 = = g.g.    | | | | | | | | ..` + + Z Z C C     W ..| | | | | | | | ..W ",
"| | | | | ` I ! | ' ' P ^ | | |     f f 6 6 r.r.y y 9 9 = = g.g.    | | | | | | | | | | + + Z Z C C     | | | | | | | | | | | | ",
"| | | | | | ^ ` ....' ^ ' | | | | |     6 6 r.r.9 9 m m %.%.= =     / ..| | | | | |     Z Z d d C C     ..| | | | | | | | | | ..",
"| | | | | | o...| ' | ..| | | | | |     6 6 r.r.9 9 V Z %.%.= =     ` ..| | | | | |     Z Z d d C C     | | | | | | | | | | | | ",
"| | | | | | | | | | | | | | | | ' |     a a 7 7 1 1 B m m m o   T ..| | | | | | | | | |             | | | | | ' | | | | | | | | ",
"| | | | | | | | | | | | | | | | O.|     a a 7 7 1 1 m m m m     ..| | | | | | | | | | |             | | | | | o.| | | | | | | | ",
"| | | | | | | | | | | | | | | O.    f f a a 7 7 m m m m m m     | | | | | | | | | | | | | | | | | | | | | ' ..p.O.] | ' | | | | ",
"| | | | | | | | | | | ' 7.;.( $.    f f a a 7 7 m m m m m m     | | | | | | | | | | | | | | | | | | ' 4.:./ o.a.$./ -.7.' | | | ",
"| | | | | | | | | | | | -.5.;. .;.|         S S ; ; J J     | | | | | | | | | | | | | | | | | | | | ' -.5.:.| :.| 2.4.;.| | | | ",
"| | | | | | | | | | | | _ ;.2.' ' `         S S ; ; J J     | | | | | | | | | | | | | | | | | | | | | _ -.3.' ` ] 2.:._ | | | | ",
"| | | | | | | | | | | | | ' ' | | | ' ' | |     + + + + | | | | | | | | | | | | | | | | | | | | | | | | ' ' | | ] ' ' | | | | | ",
"| | | | | | | | | | | | | | | | | | | | | |     + + + + | | | | | | | | | | | | | | | | | | | | | | | | | | | | { | | | | | | | ",
"| | | | | | | | | | | | | | | | | | | | | | | | | | | | | | | | | | | | | | | | | | | | | | | | | | | | | | | | | | | | | | | | "
};
