/* XPM */
static char *_d897b958e674c26b6c8a0eac437ae87tbPJG8JQOELyDydJ[] = {
/* columns rows colors chars-per-pixel */
"64 64 168 2 ",
"   c #000400",
".  c #080000",
"X  c #000008",
"o  c #000808",
"O  c #100C00",
"+  c #000010",
"@  c #000810",
"#  c #000418",
"$  c #4D3A28",
"%  c #523C39",
"&  c #444026",
"*  c #4A422E",
"=  c #4A4539",
"-  c #554F31",
";  c #5A5139",
":  c #634539",
">  c #6B4139",
",  c #7B4131",
"<  c #7B4531",
"1  c #734931",
"2  c #734D31",
"3  c #7B4931",
"4  c #635131",
"5  c #394542",
"6  c #39775D",
"7  c #424042",
"8  c #424142",
"9  c #4A4942",
"0  c #4F4F47",
"q  c #524E47",
"w  c #5A4942",
"e  c #525142",
"r  c #5A5C47",
"t  c #5A5352",
"y  c #604A42",
"u  c #634D42",
"i  c #42715A",
"p  c #7E7347",
"a  c #737D4A",
"s  c #686A5A",
"d  c #6B7B57",
"f  c #4F7463",
"g  c #844929",
"h  c #9C5A3E",
"j  c #9A7436",
"k  c #845542",
"l  c #9C5942",
"z  c #9C5D42",
"x  c #9A7441",
"c  c #9C784F",
"v  c #8B7273",
"b  c #478957",
"n  c #658D52",
"m  c #73BA5A",
"M  c #428663",
"N  c #478662",
"B  c #468663",
"V  c #428E63",
"C  c #4C8868",
"Z  c #528868",
"A  c #6F8A66",
"S  c #5AB263",
"D  c #65AE75",
"F  c #A29D4C",
"G  c #A4A34C",
"H  c #AFA852",
"J  c #AAB457",
"K  c #98B677",
"L  c #CEB252",
"P  c #C2B95A",
"I  c #DEBE52",
"U  c #D6BA5A",
"Y  c #DEBE5A",
"T  c #E1BE4F",
"R  c #E7AE52",
"E  c #E7AE5A",
"W  c #C2BA62",
"Q  c #C8BA65",
"!  c #94C75A",
"~  c #BDCF5A",
"^  c #AFC578",
"/  c #C6C752",
"(  c #DEC752",
")  c #E7CF63",
"_  c #FFF36B",
"`  c #FFE77B",
"'  c #FFEF7B",
"]  c #FFF373",
"[  c #FFF77B",
"{  c #39AD85",
"}  c #3DAE86",
"|  c #40B088",
" . c #43B28A",
".. c #46B38B",
"X. c #49B48C",
"o. c #49B58D",
"O. c #4EB78F",
"+. c #4FB78F",
"@. c #50B890",
"#. c #53BA92",
"$. c #55BB93",
"%. c #59BC94",
"&. c #5ABD95",
"*. c #5BBE96",
"=. c #5DBE96",
"-. c #5EBF97",
";. c #5FC098",
":. c #61C098",
">. c #62C199",
",. c #63C199",
"<. c #64C29A",
"1. c #67C49C",
"2. c #68C39B",
"3. c #68C49A",
"4. c #6AC59D",
"5. c #6BC59D",
"6. c #6CC59D",
"7. c #6CC79F",
"8. c #6FC79F",
"9. c #6BCB9C",
"0. c #73CB9C",
"q. c #7BCB9C",
"w. c #6FC8A0",
"e. c #70C7A0",
"r. c #70C8A0",
"t. c #73C9A1",
"y. c #73CAA3",
"u. c #75CBA3",
"i. c #75CBA5",
"p. c #77CCA4",
"a. c #78CCA4",
"s. c #7BCFA5",
"d. c #7BCDA7",
"f. c #7ECCA5",
"g. c #78CDA8",
"h. c #7ACEAA",
"j. c #7ACFAA",
"k. c #7FCFAA",
"l. c #7BD3A5",
"z. c #7DD1AD",
"x. c #94C79C",
"c. c #84D394",
"v. c #ADE38C",
"b. c #BDEF84",
"n. c #80CBA2",
"m. c #84CBA5",
"M. c #82D0AB",
"N. c #81D1AC",
"B. c #85D2AD",
"V. c #85D3AE",
"C. c #81D3B1",
"Z. c #83D5B3",
"A. c #87D4B0",
"S. c #87D7B7",
"D. c #8AD5B1",
"F. c #8CD6B3",
"G. c #89D8B9",
"H. c #92D9B6",
"J. c #93DAB8",
"K. c #97DBBA",
"L. c #9EDFBF",
"P. c #FFEF80",
"I. c #FFEF84",
"U. c #E7F38C",
"Y. c #EFFB94",
"T. c #A6E3C4",
"R. c #FFFBF7",
"E. c white",
/* pixels */
"r.r.r.r.r.r.r.r.r.r.r.r.r.r.r.r.e.e.e.r.r.r.r.r.r.r.r.r.r.r.r.r.r.r.r.r.r.r.r.r.r.r.r.r.r.r.r.r.r.r.r.r.r.r.r.r.r.r.r.r.r.r.r.r.",
"r.r.r.r.r.r.r.r.r.r.r.r.r.        8.r.r.r.r.r.r.r.r.r.r.r.r.r.r.r.r.r.    r.r.r.r.r.r.r.r.r.r.r.r.r.r.r.r.r.r.r.r.r.r.        r.",
"r.r.r.r.r.r.r.r.r.r.r.r.r.        u.e.8.r.r.r.r.r.r.r.r.r.r.r.r.r.r.r.    r.r.r.r.r.r.r.r.r.r.r.r.r.r.r.e.e.e.e.r.r.r.        r.",
"r.r.r.r.r.r.r.            M M     +.<.8.r.u.r.r.r.r.r.r.r.r.r.r.r.    N N     r.r.r.r.r.r.r.r.r.r.r.r.r.e.u.e.        C C m.m.  ",
"r.r.r.r.r.r.r.            M M     { =.s.4.$.r.r.r.r.r.r.r.r.r.r.r.    N N     r.r.r.r.r.r.r.r.r.r.r.r.r.;.&.l.        C C m.m.  ",
"r.r.r.r.r.    M M N N N N     >.7.$.2.7.#.O.7.u.r.r.r.r.r.r.r.r.r.    N N     r.r.r.r.r.r.r.r.r.r.r.w.u.=.    m.m.C C 0.0.    r.",
"r.r.r.r.r.    M M N N N N     ..r.u.s.$.O.u.r.r.r.r.r.r.r.r.r.r.r.    N N     r.r.r.r.r.r.r.r.r.r.r.r.r.u.    m.m.C C 0.0.    r.",
"r.r.r.r.r.r.r.    N N N N     r.e.e.8.r.8.7.r.r.r.r.r.r.r.r.r.    f.f.M N m.m.    r.r.r.r.r.r.r.r.r.r.    f.f.M N m.m.    r.r.r.",
"r.r.r.r.r.r.r.    N N N N     r.r.r.r.r.r.r.r.r.r.r.r.r.r.r.r.    f.f.M M m.m.    r.r.r.r.r.r.r.r.r.r.    f.f.M M m.m.    r.r.r.",
"r.r.r.        M M N N     r.r.r.r.r.r.r.r.r.r.r.r.r.r.r.r.r.r.    f.f.M M m.m.    r.r.r.r.r.r.        m.m.M M f.f.    r.r.r.r.r.",
"r.r.r.        M M N N     r.r.r.r.r.r.r.r.r.r.r.r.r.r.r.r.r.r.    f.f.M M m.m.    r.r.r.u.r.r.        m.m.M M f.f.    r.r.r.r.r.",
"r.    N N 6 6 , , f f 5 5         r.r.r.r.r.r.r.r.r.r.r.r.    m.m.f.f.M M Z Z     r.r.w.>.    q.q.f.f.f.f.M M f.f.m.m.    r.r.r.",
"r.    N N 6 6 , , f f 5 5         r.r.r.r.r.r.r.r.r.r.r.r.    m.m.f.f.M M Z Z     r.u.4.|     q.q.f.f.f.f.M M f.f.m.m.    r.r.r.",
"r.    N N , , r r 5 5 l.l.m.m.m.m.    r.r.r.r.r.r.r.r.    m.m.m.m.M M f.f.q.q.    r.r.    q.q.Z Z f.f.M M f.f.f.f.    r.r.r.r.r.",
"r.    N N , , r r 5 5 l.l.m.m.m.m.    r.r.r.r.r.u.=.O.    m.m.m.m.M M f.f.q.q.    r.r.    q.q.Z Z f.f.M M f.f.f.f.    r.r.r.r.r.",
"  n n < < % % x.x.m.m.m.m.n.n.n.n.m.m.    r.r.r.r.1.#.    d d s.f.3 3 m.m.m.m.    r.r.    m.m.m.m.M M f.f.f.f.f.f.q.q.    r.r.r.",
"  n n < < % % x.x.m.m.m.m.n.n.n.n.m.m.    r.r.r.w.u.7.    d d s.f.3 3 m.m.m.m.    r.r.    m.m.m.m.M M f.f.f.f.f.f.q.q.    r.r.r.",
"  S S < < s s % % q q m.m.n.n.n.n.m.m.    e.r.r.r.    m.m.s.s.4 4 3 3 m.m.m.m.    r.r.r.r.    m.m.M M f.f.f.f.M M Z Z     r.r.r.",
"  S S < < s s % % q q m.m.n.n.n.n.m.m.    r.r.r.r.    m.m.s.s.4 4 3 3 m.m.m.m.    r.r.r.r.    m.m.M M f.f.f.f.M M Z Z     r.r.r.",
"  G G 2 2 k k m m 0 0 0 0 n.n.n.n.m.m.8 8     r.r.    v.v.3 3 h h 1 1 A A     r.r.r.r.r.r.    m.m.f.f.M M M M f.f.m.m.    r.r.r.",
"  G G 2 2 k k m m 0 0 0 0 n.n.n.n.m.m.8 8     r.r.    v.v.3 3 h h 1 1 A A     r.r.r.r.r.r.    m.m.f.f.M M M M f.f.m.m.    r.r.r.",
"  ~ ~ 2 2 k k k k I I 0 0 n.n.n.n.8 8 8 8 I I     v.v.v.v.3 3 h h 1 1 9.9.    r.r.r.r.r.r.r.r.    f.f.M M f.f.f.f.    9.r.r.r.r.",
"  ~ ~ 2 2 k k k k I I 0 0 n.n.n.n.8 8 8 8 I I     v.v.v.v.3 3 h h 1 1 9.9.    r.r.r.r.r.r.r.r.    f.f.M M f.f.f.f.    r.r.r.r.r.",
"  I I I I e e I.P.^ ^ e e m.m.m.m.= = P P W W 9 9 b.b.3 3 3 3 3 3 b.b.    r.r.r.r.r.r.r.r.r.r.    f.f.M M m.m.    e.r.r.r.r.r.r.",
"  I I I I e e I.I.^ ^ e q m.m.m.m.= = P P W W 9 9 b.b.3 3 3 3 3 3 b.b.    r.r.r.r.r.r.r.r.r.8.    f.f.M M m.m.    r.r.r.r.r.r.r.",
"r.    I I e e I.I.e e ^ ^ m.m.8 8 P P _ _ 9 9 ] ] b.b.3 3 b.b.b.b.b.b.    r.r.r.r.r.r.r.r.    m.m.M M f.f.m.m.    r.r.r.r.r.r.r.",
"r.    I I e e I.I.e e ^ ^ m.m.7 8 P P _ _ 9 9 ] ] b.b.3 3 b.b.b.b.b.b.    e.r.r.r.r.e.e.r.    m.m.M M f.f.m.m.    r.r.r.r.r.r.r.",
"r.@ @ L L P.P.P.P.i i K K 7 7 I.I.I I I.I.e e I.I.3 3 I.I.I.I.        r.e.0.9.r.e.u.r.    ! ! M M ! !         r.r.r.r.r.r.r.r.r.",
"r.@ @ L L P.P.P.P.i i K K 8 8 I.I.I I I.I.e e I.I.3 3 I.I.I.I.        r.e.r.i.w.w.4.1.    ! ! b b ! !         r.r.r.r.r.r.r.r.r.",
"  L L & & P.P.P.P.Y.Y.i i I.I.I.I.I.I.I.I.I.I.I.I.I.I.I.I.    r.r.r.r.r.e.r.e.y.p.$.o.    ! ! M M     e.r.r.r.r.r.r.r.r.r.r.r.r.",
"  L L & & P.P.P.P.Y.Y.i i I.I.I.I.I.I.I.I.I.I.I.I.I.I.I.I.    r.r.r.r.r.r.r.e.r.r.r.&.    ! ! M M     e.r.r.w.w.r.r.r.r.r.r.r.r.",
"r.. . R.R.: : I.I.I.I.I.I.Q Q [ ' u u u u I.I.I.I.- - X X r.r.r.r.r.r.r.r.r.r.r.r.    I I M V J J ! !     e.e.w.w.e.r.r.r.r.r.y.",
"r.. . R.R.: : I.I.I.I.I.I.Q Q ' ' u u u u I.I.I.I.- - X X r.r.r.r.r.r.r.r.r.r.r.r.    I I V V J J ! !     w.w.w.j.i.7.8.7.0.d.1.",
"r.. . t t : : I.I.I.I.I I ' ' ; ; E.E.u u e e I.I.I.I.I.I.    r.r.r.r.r.r.r.r.r.r.    I I ( ( ( (     r.i.p.7.0.G.j.7.8.d.8.e.e.",
"r.. . t t : : I.I.I.I.I I ' ' ; ; E.E.u u e e I.I.I.I.I.I.    r.r.r.r.r.r.r.r.r.r.    I I ( ( ( (     w.z.Z.r.w.S.j.7.g.C.r.e.e.",
"r.r.r.    3 3 I.I.P.P.P.P.> > c c h h 3 3 g g ] ] I I     r.r.r.r.r.r.r.r.r.r.r.r.    I I         w.w.w.e.j.S.r.w.w.j.S.r.e.e.e.",
"r.r.r.    3 3 I.I.P.P.P.P.> > c c h h 3 3 g g ] ] I I     r.r.r.r.r.r.r.r.r.r.r.r.    I I         e.r.r.e.r.s.e.0.w.u.i.r.r.r.r.",
"r.r.r.    I.I.I.I.P.P.P.P.` ` > > 3 3 3 3 U U U U     r.r.r.r.r.r.                I I     r.r.r.r.r.r.r.r.r.7.r.e.w.4.w.r.r.r.r.",
"r.r.r.    I.I.I.I.P.P.P.P.` ` > > 3 3 3 3 U U U U     r.r.r.e.e.r.                I I     r.r.r.r.r.r.r.r.r.r.r.e.e.r.r.r.r.r.r.",
"r.r.r.r.r.    l l [ [ [ [ I.I.I I I I I I I I 8 8 ) )             P.P.P.P.I.I.8 8     r.r.r.r.r.r.r.r.r.r.r.r.r.r.e.r.r.r.r.r.r.",
"r.r.r.r.r.    l l [ [ [ [ I.I.I I I I I I I I 8 8 ) )             P.P.P.P.I.I.8 8     r.r.r.r.r.r.r.r.r.e.e.w.w.r.r.r.r.r.r.r.r.",
"r.r.r.r.r.r.r.    O O H H I I I I 8 8 8 8 8 8 I I ) ) ) ) I.I.I.I.P.P.P.P.I.I.I.I.    r.r.r.r.r.r.r.r.r.r.w.w.0.i.r.e.e.r.r.r.r.",
"r.r.r.r.r.r.r.    O O H H I I I I 8 8 8 8 8 8 I I ) ) ) ) I.I.I.I.P.P.P.P.I.I.I.I.    r.r.r.r.r.r.r.r.r.y.i.w.w.$.>.7.e.u.8.i.e.",
"r.r.r.r.r.r.r.r.r.r.r.    * * * * T T T T I I I I P.P.P.P.P.P.P.P.I.I.I.I.P.P.P.P.    r.r.r.r.r.r.r.r.r.=.=.f.r.} $.f.9.$.7.8.i.",
"r.r.r.r.r.r.r.r.r.r.r.    * * * * T T T T I I I I P.P.P.P.P.P.P.P.I.I.I.I.P.P.P.P.    r.r.r.r.r.r.r.r.p.&.O.<.e.$.>.7.&.o.7.8.r.",
"r.r.r.r.r.r.r.r.r.r.r.r.r.# # Y Y T T T T I I I.I.P.P.P.P.P.P.P.P.v v I.I.P.P.P.P.I.I.    r.r.r.r.r.r.w.i.>.| r.u.a.%.o.u.8.r.r.",
"r.r.r.r.r.r.r.r.r.r.r.r.r.# # Y Y T T T T I I I.I.P.P.P.P.P.P.P.P.v v I.I.P.P.P.P.I.I.    r.r.r.r.r.r.r.r.r.r.e.7.0.e.8.r.r.r.r.",
"r.r.r.r.r.r.r.r.r.r.r.    b b D D I I 0 0 Q Q ' ' I.I.I.I.7 8         I I I.I.I.I.M M m.m.        r.r.r.r.r.e.e.8.8.r.r.r.r.r.r.",
"r.r.r.r.8.r.r.8.u.r.e.    b b D D I I 0 0 Q Q ' ' I.I.I.I.7 7         I I I.I.I.I.M N m.m.        r.r.r.r.r.r.r.r.r.r.r.r.r.r.r.",
"r.r.r.r.8.u.r.u.<.    m.m.c.c.b b 0 0 I I ; ; ' ' I.I.8 8     e.r.e.e.    7 7 I.I.N N N M m.m.m.m.    r.r.8.r.r.r.r.r.r.r.r.r.r.",
"r.r.r.r.7.<.7.i.$.    m.m.c.c.b b 0 0 I I ; ; ' ' I.I.8 8     w.r.r.e.    7 8 I.I.M N M N m.m.m.m.    4.7.8.r.r.r.r.r.r.r.8.r.7.",
"r.r.7.u.2.| 2.s.$.X.u.        7 8 I I I I e e I.I.U.U.o o w.w.w.r.r.e.e.e.    R E E E $ $         i.r.o.$.i.r.r.r.r.r.r.r.8.i.$.",
"r.r.r.r.r.4.| >.8.7.7.        7 8 I I I I e 0 I.I.U.U.o o #.$.p.r.u.7.r.e.    R R E E $ $         7...&.8.r.e.r.r.r.r.r.r.r.r.r.",
"r.r.r.r.r.r.>.7.u.r.7.>.7.u.e.    I I 0 0 I.P.I.I.a a o o | O.f.r.o.<.u.e.    j j x x + X >.r.u.u.e.>.7.u.r.e.e.r.r.r.r.r.r.0.u.",
"r.r.r.r.r.r.u.r.7.8.r.u.r.e.e.    I I 0 0 I.I.I.I.a a o o -.1.4.+.$.7.8.e.    j j x x + + u.u.r.8.r.u.r.8.r.r.0.r.r.r.r.r.r.r.r.",
"r.r.r.r.r.r.r.r.8.u.r.r.r.    < < 8 8 y w / / F F m.m.    i.i.>.O.u.u.8.e.    l l l l     8.8.r.r.r.8.r.8.r.r.7.r.r.r.r.r.e.e.e.",
"r.r.r.r.r.r.r.r.8.8.r.r.r.    g < 8 8 y y / / F F m.m.    r.r.r.8.r.r.r.r.    l l l l     r.r.r.r.e.e.8.0.8.7.u.r.r.w.e.e.r.r.r.",
"r.r.r.r.r.r.r.r.e.8.r.r.8.    < < 8 8 z z x p w w     m.m.    r.r.r.r.r.r.r.r.        r.r.r.r.r.r.e.e.7.r.7.u.L.j.w.0.7.e.r.r.r.",
"r.r.r.r.r.r.r.r.e.r.r.8.K.    < g 8 8 z z x a w w     m.m.    r.r.r.r.r.r.r.r.        r.r.r.r.r.r.r.7.J.D.>.f.T.f.<.N.K.w.r.r.r.",
"r.r.r.r.r.r.r.r.r.r.r.r.N.J.D.        l k z l X   r.r.        r.r.r.r.r.r.r.r.r.r.r.r.r.r.r.r.r.r.r.7.k.H.A.8.V.r.V.H.N.w.r.r.r.",
"r.r.r.r.r.r.r.r.r.r.r.r.7.V.D.        l l l l     r.r.        r.r.r.r.r.r.r.r.r.r.r.r.r.r.r.r.r.r.r.r.3.M.F.7.7.4.D.V.4.w.r.r.r.",
"r.r.r.r.r.r.r.r.r.r.r.r.8.7.7.e.r.r.7.        r.r.r.r.r.r.r.r.r.r.r.r.r.r.r.r.r.r.r.r.r.r.r.r.r.r.r.r.r.7.7.8.8.8.7.7.r.e.r.r.r.",
"r.r.r.r.r.r.r.r.r.r.r.r.r.r.8.e.r.r.r.        r.r.r.r.r.r.r.r.r.r.r.r.r.r.r.r.r.r.r.r.r.r.r.r.r.r.r.r.r.r.r.r.r.8.r.r.r.r.r.r.r.",
"r.r.r.r.r.r.r.r.r.r.r.r.r.r.e.e.r.r.r.r.r.r.r.r.r.r.r.r.r.r.r.r.r.r.r.r.r.r.r.r.r.r.r.r.r.r.r.r.r.r.r.r.r.r.r.r.r.r.r.r.r.r.r.r."
};
