/* XPM */
static char *_01d81cd8f3c4626d00e4439c461d6ebgxiqTk9NA80wQCNp[] = {
/* columns rows colors chars-per-pixel */
"64 64 144 2 ",
"   c white",
".  c #FCFBFB",
"X  c #FBFBFB",
"o  c #FDFDFD",
"O  c gray99",
"+  c #FEFEFE",
"@  c #FEFDFD",
"#  c #FEFFFF",
"$  c #85817D",
"%  c #878B91",
"&  c #C3BEB9",
"*  c #979A9D",
"=  c #D3CFCB",
"-  c #585755",
";  c #464647",
":  c #929599",
">  c #D4D0CC",
",  c #62615F",
"<  c gray35",
"1  c #93989D",
"2  c #F9F7F6",
"3  c #6B6663",
"4  c #5F6062",
"5  c #666563",
"6  c #5F6265",
"7  c #C8C8C8",
"8  c #828284",
"9  c #F6F9FC",
"0  c #F7F3F0",
"q  c #7C7A7A",
"w  c #E6E9ED",
"e  c #FFFEFE",
"r  c #FFFFFC",
"t  c #26201A",
"y  c black",
"u  c #DCE3EA",
"i  c #9B9286",
"p  c #3F474E",
"a  c #FFFBF7",
"s  c #0C0806",
"d  c #777D83",
"f  c #B5B2AF",
"g  c #020000",
"h  c #A2ABB4",
"j  c #B0A79E",
"k  c #0A0E15",
"l  c #CAC9C7",
"z  c #0A0704",
"x  c #90969C",
"c  c #C8C5C2",
"v  c #3C3732",
"b  c #1E2126",
"n  c #B5B8BC",
"m  c #B6B1AB",
"M  c #0B0D11",
"N  c #080404",
"B  c #CCD4DA",
"V  c #FFFFFE",
"C  c #444441",
"Z  c #4C4B49",
"A  c #51575D",
"S  c #A39D96",
"D  c #5E656A",
"F  c #A9A19A",
"G  c #20262D",
"H  c #7B7269",
"J  c #474E57",
"K  c #B7B1AB",
"L  c #21242A",
"P  c #E1E1E0",
"I  c #2A2623",
"U  c #A0A8AF",
"Y  c #847A73",
"T  c #4F555E",
"R  c #D1CBC3",
"E  c #0D0D0E",
"W  c #7D8083",
"Q  c #7B7874",
"!  c #0F0F10",
"~  c #D4DADF",
"^  c #FFFEFA",
"/  c #2F2F2E",
"(  c #C0C3C5",
")  c #373330",
"_  c #434442",
"`  c #70767A",
"'  c #989089",
"]  c #32383F",
"[  c #898076",
"{  c #444A53",
"}  c #BAB5AF",
"|  c #0D0E0F",
" . c #262221",
".. c #353B43",
"X. c #7A726B",
"o. c #474D55",
"O. c #CEC8C1",
"+. c #090808",
"@. c #5B5E60",
"#. c #5A5755",
"$. c #0A0B0D",
"%. c #FFFFFB",
"&. c #201F1C",
"*. c #D4DDE5",
"=. c #ABA39A",
"-. c #656E76",
";. c #CFC9C2",
":. c #D1D7DD",
">. c #FEFAF6",
",. c #1F1914",
"<. c #88929C",
"1. c #B1A9A0",
"2. c #282E37",
"3. c #B0B7BF",
"4. c #746A63",
"5. c #40464E",
"6. c #C7C1B9",
"7. c #0F1217",
"8. c #FFFFFD",
"9. c #100D0C",
"0. c #CED5DB",
"q. c #4C4A48",
"w. c #CFD6DD",
"e. c #342E2A",
"r. c #6E757C",
"t. c #77716C",
"y. c #222324",
"u. c #2A2A29",
"i. c #52595D",
"p. c #B3ACA5",
"a. c #464A51",
"s. c #726B63",
"d. c #646B72",
"f. c #8C847E",
"g. c #63686F",
"h. c #D3CDC7",
"j. c #393A3E",
"k. c #F5FAFE",
"l. c #F4EEE9",
"z. c #3A3837",
"x. c #D8DEE3",
"c. c #FDFDFE",
"v. c #F4F3F2",
"b. c #EDEEEE",
/* pixels */
"                                                                                                                                ",
"                                                                                                                                ",
"                                                                                                                                ",
"                                                                                                                                ",
"                                                                                                                                ",
"                                                                                                                                ",
"                                                                                                                                ",
"                                                                                                                                ",
"                                                                                                                                ",
"                                                                                                                                ",
"                                                                                                                                ",
"                                                                                                                                ",
"                                                                                                                                ",
"                                                                                                                                ",
"                                                                                                                                ",
"                                                                                                                                ",
"                                                                                                                                ",
"                                                                                                                                ",
"                                                                                                                                ",
"                                                                                                                                ",
"                                                                                                                                ",
"                                                                                                                                ",
"                                                                                                                                ",
"                                                                                                                                ",
"                                                                                                                                ",
"                                . X   o O   o X O X   + X X X + X X X X o X     X +                                             ",
"                                    O     .         @                               +                                           ",
"                            #   $ %   & *   = - ; :   > , < 1 2 3 4 5 6 7 8 9 0 q w   +                                         ",
"                          e   r t y u i p a s d f g h j k l z x c v b n m M   r N B   o                                         ",
"                          V   a C Z A S D F G     H J K L P I U   Y T   R E W Q ! ~   o                                         ",
"                          V   ^ / ( ) _ ` ' ]     [ { } |  ...    X.o.  O.+.@.#.$.~   o                                         ",
"                          V   %.&.*.=.y -.;.y :.>.,.<.1.2.  z 3.  4.5.  6.7.  8.9.0.  o                                         ",
"                              r q.w.  e.r.  t.y.u.i.  p.a.  s.d.  f.g.  h.j.k.l.z.x.  c.                                        ",
"                                + +     +     v.b.    + +     X     +     +     +                                               ",
"                                    + #   e O     O +       +                                                                   ",
"                                              + +                                                                               ",
"                                                                                                                                ",
"                                                                                                                                ",
"                                                                                                                                ",
"                                                                                                                                ",
"                                                                                                                                ",
"                                                                                                                                ",
"                                                                                                                                ",
"                                                                                                                                ",
"                                                                                                                                ",
"                                                                                                                                ",
"                                                                                                                                ",
"                                                                                                                                ",
"                                                                                                                                ",
"                                                                                                                                ",
"                                                                                                                                ",
"                                                                                                                                ",
"                                                                                                                                ",
"                                                                                                                                ",
"                                                                                                                                ",
"                                                                                                                                ",
"                                                                                                                                ",
"                                                                                                                                ",
"                                                                                                                                ",
"                                                                                                                                ",
"                                                                                                                                ",
"                                                                                                                                ",
"                                                                                                                                ",
"                                                                                                                                "
};
