/* XPM */
static char *_78f24bdd20142ecb1043c7b8091db7dcGKR2p6HY543ZKo3[] = {
/* columns rows colors chars-per-pixel */
"64 64 93 2 ",
"   c #291D29",
".  c #212922",
"X  c #212429",
"o  c #292429",
"O  c #242A2E",
"+  c #2B292C",
"@  c #312429",
"#  c #2D2530",
"$  c #2D2E30",
"%  c #2F3233",
"&  c #303334",
"*  c #4A4C52",
"=  c #524D52",
"-  c #475150",
";  c #4A5151",
":  c #73797E",
">  c #845276",
",  c #737584",
"<  c #7B7584",
"1  c #737984",
"2  c #797886",
"3  c #B85997",
"4  c #BD569A",
"5  c #B5599A",
"6  c #B8599A",
"7  c #AD6494",
"8  c #DE71B5",
"9  c #3CAE86",
"0  c #3FB088",
"q  c #43B28A",
"w  c #4BB68E",
"e  c #4FB890",
"r  c #54BA92",
"t  c #5CBE96",
"y  c #60BF97",
"u  c #5FC098",
"i  c #64C29A",
"p  c #6DC69E",
"a  c #6FC89F",
"s  c #6FC7A0",
"d  c #6FC8A0",
"f  c #70C7A0",
"g  c #70C8A0",
"h  c #79CCA5",
"j  c #7BCEA9",
"k  c #7DD0AD",
"l  c #948494",
"z  c #BA809C",
"x  c #9C94B2",
"c  c #BA8BA7",
"v  c #A49CB9",
"b  c #A4A4AB",
"n  c #A5A0B9",
"m  c #AFB1B8",
"M  c #C58BAA",
"N  c #D682AE",
"B  c #D980AE",
"V  c #C393AF",
"C  c #D680B1",
"Z  c #82CEAB",
"A  c #83D2AD",
"S  c #88D4AF",
"D  c #85D5B3",
"F  c #8AD5B1",
"G  c #89D8B9",
"H  c #92D9B7",
"J  c #95DBB9",
"K  c #98DBBB",
"L  c #99DCBB",
"P  c #9EDFBF",
"I  c #9F9FC0",
"U  c #A0A0C1",
"Y  c #E99FC5",
"T  c #EC9FC5",
"R  c #FFAAD6",
"E  c #FFAED6",
"W  c #FFB6DE",
"Q  c #F7BEDE",
"!  c #FFBEDE",
"~  c #FFBEE6",
"^  c #A4DFC3",
"/  c #A0E0C0",
"(  c #A5E3C3",
")  c #A6E3C4",
"_  c #D3CED6",
"`  c #D6C6EF",
"'  c #D6CAF7",
"]  c #DED2FF",
"[  c #F7C0E1",
"{  c #FFDFEF",
"}  c #EFE3F7",
"|  c #FFFBFF",
" . c white",
/* pixels */
"g g g g g g g g g g g g g g g g g g g g g g g g g g g g g g g g g g g g g g g g g g g g g g g g g g g g g g g g g g g g g g g g ",
"g g g g g g g g g g g g g g g g g g g g g g g g g g g g g g g g g g g g g g g g g g g g g g g g g g g g g g g g g g g g g g g g ",
"g g g g g g g g g g g g g g g g g g g g g g g g g g g g g g g g g g g g g g g g g g g g g g g g g g g g g g g g g g g g g g g g ",
"g g g g g g g g g g g g d g g g p w i g g g g g g g g g g g g g g g g g g g g g g g g g g g g g g g g d g g g g r i g g g g g g ",
"g g g g g g g g g g g g g t t h p 9 t h p r p g g g g g g g g g g g g g g g g g g g g g g g g g g g g g t t h g 9 r h p r p g g ",
"g g g g g g g g g g g g g t w i g r i p r w p g g g g g g g g g g g g g g g g g g g g g g g g g g g g g t w i g r i p r w p g g ",
"g g g g g g g g g g g g g h y q g g h r w h g g g g g g g g g g g g g g g g g g g g g g g g g g g g g g g i q p g h t w g g g g ",
"g g g g g g g g g g g g g g g g g g g g g g g g g g g g g g g g g g g g g g g g g g g g g g g g g g g g g g g g g g g g g g g g ",
"g g g g g g g g g g g g g g g g g g g g g g g g g g g g g g g g g g g g g g g g g g g g g g g g g g g g g g g g g g g g g g g g ",
"g g g g g g g d g g g g g g g g g g g g g g g g g g g g g g g g g g g g g g g g g g g g g g d g g g g g g g g g g g g g g g g g ",
"g g g g g g g g i t g g g g g g g g g g g g g g g g g g g g g g g g g g g g g g g g g g g g g i t g g g g g g g g g g g g g g g ",
"g g g g p i g h r q g g i p g g g g g g g g g g g g g g g g g g g g g g g g g g g g g p i p h r 0 g g i i g g g g g g g g g g g ",
"g g g g i q i g r w g p q t g g g g g g g g g g g g g g g p p g g g g g g g g g g g g p q i g t w g g w r g g g g g g g g g g g ",
"g g g g g p q t g d p q i g g g g g g g g g g g g g g g g w r g g g g g g g g g g g g g p q t g d p q t g g g g g g g g g g g g ",
"g g g g g g i p g g p i p g g g g g g g g g g g g t w h h q e h g w i g g g g g g g g g g i p g g d i p g g g g g g g g g g g g ",
"g g g g g g g g g g g g g g g g g g g g g g g g g i % o o o o o o o o o o o g g g g g g g g g g g g g g g g g g g g g g g g g g ",
"g g g g g g g g g g g g g g g d p g g g g g g g d h o o o o o o o o o o o o g g g g g g g g g g g g g g g g g p d g g g g g g g ",
"g g g g g g g g g g g g a g g g h g g d a g & $ @ @ z z C C C C B B B B N N o o     g g g g g g g g g a d g g h g g g a g g g g ",
"g g g g g g g g g g g g g g p h / h p h g g o o @ @ z z C C C C B B B B N N o o     h g g g g g g g g g g p h / h p g g g g g g ",
"g g g g g g g g g g g p L A i j ( h i S o o { { E E E E Q Q Q Q ! ! T T N N N N l l     g g g g g g p J D i h ( j i A K d g g g ",
"g g g g g g g g g g g d j H F d A p F ^ o o { { E E E E Q Q Q Q ! ! T T N N N N l l     g g g g g g p j H F s A g F H j g g g g ",
"g g g g g g g g g g g g p A S p p p o o ! ! B B C C Q Q C C C C B B ! ! T T B B N N 5 5   # g g g g g p Z F p p p A A p g g g g ",
"g g g g g g g g g g g g g p p g g Z o o ! ! B B C C Q Q C C C C B B ! ! T T B B N N 5 5     g g g g g g p p g g g p p g g g g g ",
"g g g g g g g g g g g g g g g h o o { { B B T T Q Q C C Q Q Q Q T T B B ! ! B B N N 5 5 l l     h g g g g g g g g g g g g g g g ",
"g g g g g g g g g g g g g g g g o o { { B B T T Q Q C C Q Q Q Q T T B B ! ! B B N N 5 5 l l     g g g g g g g g g g g g g g g g ",
"g g g g g g g g g g g g g g g g @ @ ~ ~ B B Q Q [ [ [ [ [ [ [ [ Q Q C C Q Q C C N N 5 5 3 3 o o g g g g g g g g g g g g g g g g ",
"g g g g g g g g d g g g g g g g @ @ ~ ~ B B Q Q [ [ [ [ [ [ [ [ Q Q C C Q Q C C N N 5 5 3 3 o o g g g g g g g g g g g g g g g g ",
"g g g g g g u p g g g g g g + o c c ~ ~ Y Y Q Q [ [ [ [ [ [ [ [ Q Q C C Q Q C C N N 5 5 3 3 3 3 o + g g g g g g g g g g g g g g ",
"g g p p g d 9 t g p i d g g + o c c ~ ~ Y Y Q Q [ [ [ [ [ [ [ [ Q Q C C Q Q C C N N 5 5 3 3 3 3 o o f g g g g g g g g g g g g g ",
"g g e w g d q t h i q p g h o o B B B B Q Q C C Q Q Q Q Q Q Q Q C C Q Q B B B B 6 6 6 6 6 6 6 6 o o p g g g g g g g g g g g g g ",
"g g g r w g p g r w p g g h o o B B B B Q Q C C Q Q Q Q Q Q Q Q C C Q Q B B B B 6 6 6 6 6 6 6 6 o + g g g g g g g g g g g g g g ",
"g g g p t g g g i i g g g h o o B B B B C C Q Q C C Q Q Q Q C C Q Q C C B B B B 6 6 6 6 6 6 6 6 o o h g g g g g p p g g g g g g ",
"g g g g g g g g g g g g g g o o B B B B C C Q Q C C Q Q Q Q C C Q Q C C B B B B 6 6 6 6 6 6 6 6 o o h g p p g g j h p a p a h p ",
"g g g g g g g g g g g g p j o o 7 7 8 8 B B B B W W V V R R R R N N N N N N 3 3 6 6 6 6 4 4 > > o o h p h h p a G k p g j g p a ",
"g g g g g g g g g g g g p D o o 7 7 8 8 B B B B W W V V R R R R N N N N N N 3 3 6 6 6 6 4 4 > > o + h p k D g a G j p j D g g g ",
"g g g g g g g g g g g g g g o o * * 7 7 B B B B * * * * = = M M N N 5 5 3 3 3 3 6 6 6 6 > > * * o + g g p j G g g p k D g g g g ",
"g g g g g g g g g g g g g g o o * * 7 7 B B B B * * * * = = M M N N 5 5 3 3 3 3 6 6 6 6 > > * * o + g g p g h g a p g h g g g g ",
"g g g g g g g g g g g g g g o o ; ; ; ; - - - - U U  . .b b * * 6 6 6 6 4 4 > > - - - - ; ; ; ; o + g g g a p g g g p p g g g g ",
"g g g g g g g g g g g g g g % o ; ; ; ; - - - - U U  . .b b * * 6 6 6 6 4 4 > > - - - - ; ; ; ; o $ g g g g g g g g g g g g g g ",
"g g g g g g g g g g g g g g g g . . : : - - - -  . . . .| | * * ; ; ; ; ; ; ; ; - - - - : : . . g g g g g g g g g g g g g g g g ",
"g g g g g g g g g g g g g g g g . . : : - - - -  . . . .| | * * ; ; ; ; ; ; ; ; - - - - : : . . g g g g g g g g g g g g g g g g ",
"g g g g g g g g g g g g g g g g + o } } | | < < b b  . .v v ; ; - - - - - - - - 1 1 ` ` m m X O g g g g g g g g g g g g g g g d ",
"g g g g g g g g g g g g d g g g + o } } | | < < b b  . .v v ; ; - - - - - - - - 1 1 ` ` m m X O g g g d g g g g r i g g g g g f ",
"g g g g g g g g g g g g g t t h p q o o _ _ | | , , , , 2 2 ` ` ` ` ` ` ` ` ` ` ` ` n n X X h g g g g g u t g g 9 r h p r p g g ",
"g g g g g g g g g g g g g r w i g e % o _ _ | | , , , , 2 2 ` ` ` ` ` ` ` ` ` ` ` ` n n X X g g g g g g t w i g r i p t w p g d ",
"g g g g g g g g g g g g g h t q g g h t X X m m ' ' ' ' ` ` ` ` ` ` ` ` ] ] v v m m X X g g g g g g g g g i q p g h t w g g g g ",
"g g g g g g g g g g g g g g f p g g g p X X m m ' ' ' ' ` ` ` ` ` ` ` ` ] ] v v m m X X g g g g g g g g g d p g g g p p g g g g ",
"g g g g g g g g g g g g g g g g g g g g h g X X + + x x I I I I I I I I v v + + X X h g g g g g g g g g g g g g g g g g g g g g ",
"g g g g g g g d g g g g g g g g g g g g g g X X + + x x I I I I I I I I v v + + X O g g g g d g g g g g g g g g g g g g g g g g ",
"g g g g g g g g i i g g g g g g g g g g g g g h g g o o o o o o o o o o o o j g g g g g g g g i u g g g g g g g g g g g g g g g ",
"g g g g p i g h r q g g i p g g g g g g g g g g g g % o o + $ % % + o o o $ g g g g g p i p h r 0 g g p p g g g g g g g g g g p ",
"g g g g i q i h r w g g q t g g g g g g g g g g g g g g g g g g g g g g g g g g g g g p q i h t w g g w r g g g g g g g g g g r ",
"g g g g g p q i g p p q t g g g g g g g g g g g g g g g g w r g g g g g g g g g g g g g p q t g p p q t g g g g g g g g g g g g ",
"g g g g g g i p g g p t p g g g g g g g g g g g g t e g g q w h g w i g g g g g g g g g g i p g g d u p g g g g g g g g g g g g ",
"g g g d g g g g g g g g g g g g g g g g g g g g g i r r p t i p r r p g g g g g g g g g g g g g g g g g g g g g g g g g g g g g ",
"g g g g g g g g g g g g g g g d p g g g g g g g g g p w p g g i w g g g g g g g g g g g g g g g g g g g g g g p d g g g g g g g ",
"g g g g g g g g g g g g g g g g h g g g g g g g g g g g g g g g g g g g g g g g g g g g g g g g g g g g g g g h g g g g g g g g ",
"g g g g g g g g g g g g p a p h P h p a p g g g g g g g g g g g g g g g g g g g g g g g g g g g g g g p a p h P h p a p g g g g ",
"g g g g g g g g g g g p J A i j ) h i A J p g g g g g g g g g g g g g g g g g g g g g g g g g g g g p H A i h ) j i A J p g g g ",
"g g g g g g g g g g g d A H A g A g D H Z p g g g g g g g g g g g g g g g g g g g g g g g g g g g g p j H D g A g A H A d g g g ",
"g g g g g g g g g g g g p A F p p p F A p g g g g g g g g g g g g g g g g g g g g g g g g g g g g g g p A F p p p F A p g g g g ",
"g g g g g g g g g g g g g p p g g g p p g g g g g g g g g g g g g g g g g g g g g g g g g g g g g g g g p p g g g p p g g g g g ",
"g g g g g g g g g g g g g g g g g g g g g g g g g g g g g g g g g g g g g g g g g g g g g g g g g g g g g g g g g g g g g g g g ",
"g g g g g g g g g g g g g g g g g g g g g g g g g g g g g g g g g g g g g g g g g g g g g g g g g g g g g g g g g g g g g g g g "
};
