/* XPM */
static char *_d338d0c5abf43f882a83e6cfe815b25lE9gpRt9YhNjNd3t[] = {
/* columns rows colors chars-per-pixel */
"64 64 81 1 ",
"  c #39AD85",
". c #3CAE86",
"X c #40AF87",
"o c #41B088",
"O c #42B189",
"+ c #43B189",
"@ c #45B38B",
"# c #46B38B",
"$ c #47B38B",
"% c #46B48C",
"& c #48B48C",
"* c #4BB68E",
"= c #4DB68E",
"- c #4FB78F",
"; c #4FB890",
": c #51B890",
"> c #53B991",
", c #55BB93",
"< c #56BB93",
"1 c #57BB93",
"2 c #56BC94",
"3 c #5ABC94",
"4 c #5BBD95",
"5 c #5EBF97",
"6 c #60BF97",
"7 c #5FC098",
"8 c #62C098",
"9 c #62C199",
"0 c #64C298",
"q c #65C39B",
"w c #66C39B",
"e c #67C49C",
"r c #68C39B",
"t c #68C49C",
"y c #6CC59C",
"u c #6FC79F",
"i c #6FC89F",
"p c #6FC7A0",
"a c #6FC8A0",
"s c #70C7A0",
"d c #70C8A0",
"f c #73C9A1",
"g c #74CBA3",
"h c #77CBA3",
"j c #74CBA4",
"k c #77CBA5",
"l c #76CCA4",
"z c #77CCA4",
"x c #78CBA5",
"c c #79CCA4",
"v c #79CDA5",
"b c #7CCEA7",
"n c #78CDA8",
"m c #7ACFAA",
"M c #7CCEA8",
"N c #7CD0AC",
"B c #7ED1AE",
"V c #80CFAA",
"C c #83D2AC",
"Z c #83D2AD",
"A c #86D3AE",
"S c #87D4AF",
"D c #81D3B1",
"F c #83D5B3",
"G c #87D4B0",
"H c #84D5B4",
"J c #86D6B6",
"K c #87D7B7",
"L c #89D4B1",
"P c #8BD5B2",
"I c #89D8B9",
"U c #92DAB7",
"Y c #93DAB8",
"T c #94DAB8",
"R c #96DBB9",
"E c #98DBBB",
"W c #99DCBB",
"Q c #9EDFBF",
"! c #A0E0C0",
"~ c #A5E3C3",
"^ c #A6E3C4",
/* pixels */
"dddddddddddddddddddddddddddddddddddddddddddddddddddddddddddddddd",
"ddddddddddddddddssdddddddddddddddddddddddddddddddddddddddddddddd",
"dddddddddddddsdddgsuddddddddddddddddddddddddddddddddddddduuddddd",
"ddddddddddddiggds=qudgddddddddddddddddddddddddddddddggdi:qddvddd",
"ddddddddddddd44vu 5vu:dddddddddddddddddddddddddddddg64ci ,vu:tdd",
"ddddddddddddg4=9u,qu:=igdddddddddddddddddddddddddddg4*8u,9u,=ddd",
"dddddddddddduv6#dgl2=lddddddddddddddddddddddddddddddgq#ugg5*lddd",
"ddddddddddddddddddaddddddddddddddddddddddddddddddddddduududddddd",
"dddddddddddddddddddddddddddddddddddddddddddddddidduudddddddddddd",
"dddddddddgdsdddddddddddddddddddddddddddddddddddkgdsudddddddddddd",
"dddddgddq5dsdudddddddddddddddddddddddddddddddduq5uuggsdddddddddd",
"ddssuquc:Oggeudddddddddddddddgdddddddddddddd6uc,Xggqrgdddddddddd",
"ddddqOqg,=du#4ddddddddddddddduudddddddddddgyX6g5$id*1gdddddddddd",
"ddddduO5diuo9dddddddddddddddd=,dddddddddddugu$5guiO6dddddddddddd",
"dddddd9ugdd9ddddddddddddk7:lg#;vd$qddddddddduquidi9ugsdddddddddd",
"dddddsgddddlddddddddddaaie::u9qt:1uddddddddddguuddgidddddddddddd",
"ddddddddddddddddddddddddagu=ullq-gddddddddddddddddddiaduppdddddd",
"ddddddddddddddduvdddiddddddddaddgdddddddddddddddddddiudvdadidddd",
"dddddddddddddduv!kudiuddddddddddsddddddddddddddddddduuz!Muusdddd",
"ddddddddddddWZ9b^xqZRidddddddddddddddddddddddddddiuRPqx!MqCEiddd",
"ddddddddddddMUSuvuPUbuuudddddddddddddddddddddddddduzUPdZdPUzdddd",
"dddddddddddduCSusuPMuudidddddddddddddddddddddddddduuMLutuZCudddd",
"dddddddddddduqudpauudddddddddddddddddddddddddddddddduuudituudddd",
"ddddddddddddiiddddddddddddddddddddddddddddddddddddddssiddddddddd",
"dddddddddddddddddddddddddddddddddddddddddddddddddddddddddddddddd",
"dddddddddddddddddddddddddddddddddddddddddddddddidddddddddddddddd",
"ddddddgudddddddddddddddddddddddddddddddddddddguudddddddddddddddd",
"dddgdd5ygdddddddddddddddddddddddddddddudsdgdd9uudddddddddddddddd",
"ddyrdd.5vuqdddddddddddddddddddddddddddddduqgio,zdqusdddddddddddd",
"dg-=ldO9v6Oidddddddddddddddddddddddddddgd,=dd#4cqOtddddddddddddd",
"dgu1%atd,$udddddduiddddddddddddddddddddddd4#duu5#udddddddddddddd",
"ddgy9uggq9uddddddpudddddddddddddddddddddile7aduu5gdddddsuddddddg",
"ddsggddddgddiuuisNksuuddddddddddddddddddddggsddggsdduuiimkddudvs",
"ddsdsdddddddugvidImtdmdddddddddddddddddddddddddduudszzuiINquvduu",
"ddddddddddddtDHddHvpmHddddddddddddddddddddddddddddduNHddFmumFdda",
"ddddddddddddiiNHdddNHddddddddddddddddddddddddddddiuuiNKdaumHuaaa",
"dddddddddddddsdldddxvuddddddddddddddddddddddddddddddddvudddgdddd",
"ddddddddddddddduddpsidddddddddddddddddddddddddddddddddiddddudddd",
"ddddddddddddddddddaadddddddddddddddddddddddddddddddddddddddddddd",
"dddddddddddddddddddddddddddddddddddddddddddddddddddddddddddddddd",
"dddddddddddddddddddddddddddddddddddddddddddddddddddddddddddddddd",
"dddddddddddddddsukapddddddddddddddddddddddddddddddddddddgddddddd",
"dddddddddddddgguu:9ldgddddddddddddddddddddddddddddddggud,6ddgddd",
"ddddddddddddg55cu 4vu,dddddddddddddddddddddddddddddd55vu.,bu,udg",
"ddddddddddddu,=qd:9u,=uudddddddddddddddddddddddddddg5*9u:9u,$udd",
"dddddddddddddv5%duv,*gddddddddddddddddddddddddddddddv9Oull1=gddd",
"ddddddddddddddddddddiddddddddddddddddddddddddddddddddduddddudddd",
"dddddddddddddddddddddddddddddddddddddddddddddddddddddddddddddddd",
"ddddddddggddduudddddddddddddddddddddddddddddddddgdddiddddddddddd",
"dddddidgq6ssggddddddddddddddddddddddddddddddgddt6dsgiudddddddddd",
"dddduquv-Oguquddddddddddddddddddddddddddddsstuv1Xggruudddddddddu",
"ddsgqoqg1*gu#1vddddddddddddddddddddddddddddu.qg4#sg$,gddddddddl:",
"dddddu#9uuuX6uidddddddddddgsd:1udgssddddddddt#5guu#4uadddddddddd",
"dddduu9tsuuquuddddddddddd9-gg#=cd*qgddddddddg9rduu9ugadddddddddg",
"ddddidgddddgddddidddddddlq=,u5qu,:uudddddddddgddidgdsddidddddddd",
"dddddddddddddddduddddddddgd$tvg9*zdudddddddddddddddddddudddddddd",
"ddddddddddddddddxuiidddddddgdddduiddddddddddddddddddiisvddusdddd",
"ddddddddddddsiuvQguiudddddddddddddddddddddddddddddduiukQvuuudddd",
"dddddddddddiTCqb^v6ZRuudddddddddddddddddddddddddddtRZql^MeZRuddd",
"ddddddddddddCTSuZiSUVuuiddddddddddddddddddddddddddubUPdZdZUCaddd",
"ddddddddddddqAPyuyPCudddddddddddddddddddddddddddddduCPutrPCuaddd",
"dddddddddddduuyudduuuddddddddddddddddddddddddddddduuiiuudquddddd",
"dddddddddddddduidddduidddddddddddddddddddddddddddduidddddddddddd",
"dddddddddddddddiddddddddddddddddddddddddddddddddddaidddddddddddd"
};
