/* XPM */
static char *_67fe90af3c446498a35a05c5668427bixMtpjclH7uUFWtN[] = {
/* columns rows colors chars-per-pixel */
"64 64 145 2 ",
"   c white",
".  c #FDFDFD",
"X  c #FEFEFE",
"o  c #FFFEFE",
"O  c #DDDAD9",
"+  c #C6C8C9",
"@  c #FAFBFB",
"#  c #CCCBC9",
"$  c #CACCCD",
"%  c #EEEEED",
"&  c #EDEEEF",
"*  c #F9F9F8",
"=  c #EAEAEA",
"-  c #F0EFEF",
";  c LightGray",
":  c gray88",
">  c #D6D6D5",
",  c #E2E3E5",
"<  c #F1F0F0",
"1  c #EDEDEF",
"2  c #F4F2F2",
"3  c #EAEAEB",
"4  c gray99",
"5  c #A7A19A",
"6  c #252626",
"7  c #2F2F2E",
"8  c #9AA2A8",
"9  c #403B36",
"0  c #2F3133",
"q  c #2C2A28",
"w  c #363A40",
"e  c #726A63",
"r  c #5A616A",
"t  c #C9C2BA",
"y  c #303234",
"u  c #B1AEAD",
"i  c #302D2B",
"p  c #111111",
"a  c #1B1C1D",
"s  c #83888D",
"d  c #706B66",
"f  c #5E646E",
"g  c #988E87",
"h  c #3C4146",
"j  c #FDFCFC",
"k  c #FBFBFB",
"l  c #453C33",
"z  c #434C55",
"x  c #847C73",
"c  c #1F252C",
"v  c #FFFFFE",
"b  c #110C08",
"n  c #A3ABB3",
"m  c #7C746C",
"M  c #4E555E",
"N  c #C9C2B9",
"B  c #17191B",
"V  c #F7FDFF",
"C  c #211C1A",
"Z  c #B0B7C0",
"A  c #5F5851",
"S  c #535A63",
"D  c #8B817A",
"F  c #33383E",
"G  c #FDFDFC",
"H  c #CAC4BE",
"J  c #0C0805",
"K  c #1A1E23",
"L  c #E8EBEE",
"P  c #574E47",
"I  c #69727B",
"U  c #554D45",
"Y  c #787F88",
"T  c #817A73",
"R  c #525962",
"E  c #1D1E20",
"W  c #F5FBFF",
"Q  c #FFFFFD",
"!  c #231E1C",
"~  c #AEB6BE",
"^  c #706A63",
"/  c #000001",
"(  c gray20",
")  c #0A0806",
"_  c #43494F",
"`  c #50483F",
"'  c #3F464D",
"]  c #6D6660",
"[  c #474F57",
"{  c #2D2620",
"}  c #949DA5",
"|  c #7D746C",
" . c #4C545D",
".. c #D2CAC1",
"X. c #121416",
"o. c #FFFFFC",
"O. c #25211F",
"+. c #AFB6BE",
"@. c #655F58",
"#. c #4C525A",
"$. c #7D746E",
"%. c #3A3F45",
"&. c #FDFEFE",
"*. c #726D69",
"=. c #808385",
"-. c #3A3530",
";. c #687078",
":. c #D7D1CB",
">. c black",
",. c #74787B",
"<. c #615D58",
"1. c #111619",
"2. c #F3F9FE",
"3. c #BEB5AE",
"4. c #020304",
"5. c #848688",
"6. c #312D29",
"7. c #515860",
"8. c #FFFDF9",
"9. c #140F0D",
"0. c #A9B1B9",
"q. c #554E47",
"w. c #515963",
"e. c #90857D",
"r. c #272C32",
"t. c #C7C4C0",
"y. c #6B6A6A",
"u. c #8F9396",
"i. c #FBFCFE",
"p. c #CDCAC7",
"a. c #71706F",
"s. c #7B7E80",
"d. c #E4E8EB",
"f. c #BEBAB8",
"g. c #6A6A69",
"h. c #929598",
"j. c #FBFDFE",
"k. c #AAA8A8",
"l. c #E1E3E7",
"z. c #C3C0BE",
"x. c #BFC1C5",
"c. c #D5D1CE",
"v. c #B2B3B5",
"b. c #FCFCFD",
"n. c #FCFDFD",
/* pixels */
"                                                                                                                                ",
"                                                                                                                                ",
"                                                                                                                                ",
"                                                                                                                                ",
"                                                                                                                                ",
"                                                                                                                                ",
"                                                                                                                                ",
"                                                                                                                                ",
"                                                                                                                                ",
"                                                                                                                                ",
"                                                                                                                                ",
"                                                                                                                                ",
"                                                                                                                                ",
"                                                                                                                                ",
"                                                                                                                                ",
"                                                                                                                                ",
"                                                                                                                                ",
"                                                                                                                                ",
"                                                                                                                                ",
"                                                                                                                                ",
"                                        . .       . .     X X     X X . . . X X X   X X                                         ",
"                                      .       . X     o .     X                   X     o                                       ",
"                                    X   O + @     # $     % &   * = - ; : > , < 1   2 3                                         ",
"                                  4   5 6 7 8   9 0 q w   e r   t y u i p a s d f   g h   j                                     ",
"                                  k   l z     x c   v b n m M   N B V   C Z   A S   D F   j                                     ",
"                                  G   H J K L P I     U Y T R   t E W Q ! ~   ^ / ( ) _   j                                     ",
"                                    4     ` ' ] [     { } |  .  ..X.V o.O.+.  @.#.  $.%.  j                                     ",
"                                  &.  *.=.-.;.:.>.,.<.1.2.3.4.5.6.7.  8.9.0.  q.w.  e.r.  j                                     ",
"                                  X   t.y.u.i.  p.a.s.d.    f.g.h.j.  v k.l.  z.x.  c.v.  X                                     ",
"                                    X         b.        . X         X       b.    4     X                                       ",
"                                      . k k X   G k k &.    4 k k X     4 X   j n.  . 4                                         ",
"                                                                                                                                ",
"                                                                                                                                ",
"                                                                                                                                ",
"                                                                                                                                ",
"                                                                                                                                ",
"                                                                                                                                ",
"                                                                                                                                ",
"                                                                                                                                ",
"                                                                                                                                ",
"                                                                                                                                ",
"                                                                                                                                ",
"                                                                                                                                ",
"                                                                                                                                ",
"                                                                                                                                ",
"                                                                                                                                ",
"                                                                                                                                ",
"                                                                                                                                ",
"                                                                                                                                ",
"                                                                                                                                ",
"                                                                                                                                ",
"                                                                                                                                ",
"                                                                                                                                ",
"                                                                                                                                ",
"                                                                                                                                ",
"                                                                                                                                ",
"                                                                                                                                ",
"                                                                                                                                ",
"                                                                                                                                ",
"                                                                                                                                ",
"                                                                                                                                ",
"                                                                                                                                ",
"                                                                                                                                ",
"                                                                                                                                "
};
