/* XPM */
static char *b6f8802aa2c34290caaf266dbf1b7117pfWPv5SPNFfLYK8q[] = {
/* columns rows colors chars-per-pixel */
"64 64 153 2 ",
"   c black",
".  c #000400",
"X  c #080000",
"o  c #080008",
"O  c #100000",
"+  c #001410",
"@  c #210800",
"#  c #000C21",
"$  c #212021",
"%  c #473433",
"&  c #4A4539",
"*  c #473C42",
"=  c #4A3C42",
"-  c #44384D",
";  c #39414A",
":  c #334652",
">  c #424142",
",  c #424542",
"<  c #4A4142",
"1  c #4A454A",
"2  c #554B4D",
"3  c #555155",
"4  c #555355",
"5  c #555555",
"6  c #634142",
"7  c #BD5D5A",
"8  c #94797F",
"9  c #D66973",
"0  c #D66B73",
"q  c #C0717E",
"w  c #D6757B",
"e  c #737181",
"r  c #68699A",
"t  c #8B6A89",
"y  c #946A8F",
"u  c #C27184",
"i  c #39AD85",
"p  c #3DAE86",
"a  c #3EB088",
"s  c #41B088",
"d  c #47B38B",
"f  c #46B48C",
"g  c #49B48C",
"h  c #4BB68E",
"j  c #4DB68E",
"k  c #4EB890",
"l  c #50B890",
"z  c #52B991",
"x  c #57BB93",
"c  c #56BC94",
"v  c #5BBD95",
"b  c #5FBF97",
"n  c #5FC098",
"m  c #61C098",
"M  c #63C199",
"N  c #64C298",
"B  c #65C29A",
"V  c #66C39B",
"C  c #67C49C",
"Z  c #68C39B",
"A  c #6AC59D",
"S  c #6CC59C",
"D  c #6FC79F",
"F  c #6FC89F",
"G  c #6FC8A0",
"H  c #70C7A0",
"J  c #70C8A0",
"K  c #73C9A1",
"L  c #74CBA3",
"P  c #74CBA4",
"I  c #77CCA4",
"U  c #78CCA4",
"Y  c #79CDA5",
"T  c #78CDA8",
"R  c #7ACFAA",
"E  c #7DCEA8",
"W  c #7CD0AC",
"Q  c #7DD0AD",
"!  c #2986E7",
"~  c #3196FF",
"^  c #7B92DE",
"/  c #7BB7C2",
"(  c #4A8AEF",
")  c #4194FF",
"_  c #4296FF",
"`  c #42A6FF",
"'  c #52B6FF",
"]  c #5DB6FF",
"[  c #52BAFF",
"{  c #7EA3E3",
"}  c #7BD3F7",
"|  c #73D7FF",
" . c #AA979A",
".. c #AAA2AA",
"X. c #AFA4AA",
"o. c #AAAAAA",
"O. c #ACAAAA",
"+. c #ACAAAC",
"@. c #BDA6B8",
"#. c #FF8A9C",
"$. c #F78BA4",
"%. c #F78AA5",
"&. c #F78CA5",
"*. c #F78EA5",
"=. c #FF8AA5",
"-. c #F79EAD",
";. c #E79EB5",
":. c #C0A9B5",
">. c #C2AEBA",
",. c #81D0AB",
"<. c #81D1AC",
"1. c #86D3AE",
"2. c #86D3AF",
"3. c #83D5B3",
"4. c #84D5B4",
"5. c #8AD5B1",
"6. c #8CD6B3",
"7. c #89D8B9",
"8. c #92DAB7",
"9. c #97DBB9",
"0. c #97DBBA",
"q. c #9EDFBF",
"w. c #8C9AE7",
"e. c #DE9AC6",
"r. c #D6ACC5",
"t. c #D6AEC6",
"y. c #DEAEC6",
"u. c #E7AEC6",
"i. c #A6E3C4",
"p. c #94D3FF",
"a. c #9CF3FF",
"s. c #B5F7FF",
"d. c #E7C7DE",
"f. c #FFDBDE",
"g. c #C2D0EF",
"h. c #EFD6E7",
"j. c #EFD7E7",
"k. c #FCD8E1",
"l. c #F7D7EF",
"z. c #FFDBEF",
"x. c #C0E8FF",
"c. c #C5E8FF",
"v. c #FFE3E7",
"b. c #F7E3EF",
"n. c #FFF3EF",
"m. c #FFE7F7",
"M. c #F7EBF7",
"N. c #F7F3F7",
"B. c #FFF3FF",
"V. c #FFF7FF",
"C. c #F7FFFF",
"Z. c #FFFBFF",
"A. c white",
/* pixels */
"J J J J J J J J J J J J J J J J J J J J J J J J J J J J J J J J J J J J J J J J J J J J J J J J J J J J J J J J J J J J J J J J ",
"J J J J J J J J J J J J J J J J J J J J         J J J J J J J J J J J J J J J J J J J J J J J J J J J J J J J J J J J J J J J J ",
"J J J J J J J J J J J J J H J J J J J J         J J J J J J J J J J J J J J J J J J J J J J J J J J J J J J J J J J J J J J J J ",
"J J J J J J J J J J J J F L L J H k     0 0 0 9     J J J J J J J J J J J J J J J J J J J J J J J J J J L L J J x b L J L J J J ",
"J J J J J J J J J J J J J v v Y D i     9 9 9 9     J J J J J J J J J J J J J J J J J J J J J J J J J J M v L J i x Y D z A J J ",
"J J J J J J J J J J J J L v     O O : : 0 0 0 0     J J J J J J J J J J J J J J J J J J J J J J J J J L n h n D x M D z j D J J ",
"J J J J J J J J J J J J D Y     O O : : 0 0 0 0     J J J J J J J J J J J J J J J J J J J J J J J J J J L V d D L I v h U J J J ",
"J J J J J J J J J J         | | } } : : 0 0 0 0     J J J J J J J J J J J J J J J J         J J J J J J F F D D J J J J F J J J ",
"J J J J J J J J J J         | | } } : : 0 0 0 0     J J J J J J J J J J J J J J J J         J J J J J J J J J J J J J J J J J J ",
"J J J J J J J J     t.t.) ) | | 6 6 e e 0 0 0 0     J J J J J J J J J J J J         *.*.*.*.    P J J H J J J J J J J J J J J J ",
"J J J J J L J J     t.t.) ) | | 6 6 e e 0 0 0 0     J J J J J J J J J J J J         *.*.*.*.    v J J I J J J J J J J J J J J J ",
"J J D F D V J Y     t.t.) ) | | p.p.6 6 0 0 0 0     J J J J J J J J J J     *.*.*.*.*.*.*.*.    s J J V Z L J J J J J J J J J J ",
"J J J J V s V J     t.t.) ) | | p.p.6 6 0 0 0 0     J J J G D J J J J J     *.*.*.*.*.*.*.*.    h G J h x L H J J J J J J J J J ",
"J J J J G D s M J G     w.w.- - t t 7 7 0 0     J P J J L j x J H L     *.*.*.*.*.*.*.*.*.*.    D F s b L J J J J J J J J J J J ",
"J J J J J J M D L J     w.w.- - t t 7 7 0 0     J b k I I s j Y J d     *.*.*.*.*.*.*.*.*.*.    J J M D J J J J J J J J J J J J ",
"J J J J J H L J J J H L @ @ r r ! ! 7 7 9 9     I C         V A     *.*.*.*.) ) ) _ *.*.    L J J J G F J J     J J J J J J J J ",
"J J J J J J J J J J J J @ @ r r ! ! 7 7 0 0     G L         L V     *.*.*.*.) ) ) ) *.*.    J J J J J J J J     J J J J J J J J ",
"J J J J J J J J J J J J + + w w > > > > > > > >     A.A.Z.Z.    *.*.*.*.| | | | *.*.$.$.*.*.    J J J J     | |         J J J J ",
"J J J J J J J J J J J J + + w w > > > > > > > >     A.A.Z.Z.    *.*.*.*.| | | | *.$.$.*.*.*.    J G J J     | |         J J J J ",
"J J J J J J J J J J     % % % % *.*.*.*.*.*.> > A.A.A.A.Z.Z.4 4 *.*.) ) | | *.*.$.*.$.*.    J J J G F 0.    | |     | |     J J ",
"J J J J J J J J J J     % % % % *.*.*.*.*.*.> > A.A.A.A.Z.Z.4 5 *.*._ _ | | *.*.*.$.*.$.    J J J J F Y     | |     | |     J J ",
"J J J J J J J J     *.*.0 0 *.*.$.*.$.$.*.*.> > A.A.k.k.=.=.< < _ _ _ _ =.=.=.=.*.*.    J J J J J J     ` ` { { | | | |     J J ",
"J J J J J J J J     *.*.0 0 *.*.*.$.$.*.*.*.> > A.A.k.k.=.=.< < _ _ _ _ =.=.=.=.*.*.    J J J J J J     ` ` { { | | | |     J J ",
"J J J J J J J J J J     *.*.*.*.*.$.$.*.*.*.> > A.A.$.$.=.=.u u > > > > < < u u     J J J J J J J J     -.-.` ` | |     J J J J ",
"J J J J J J J J J J     *.*.*.*.$.$.&.&.*.*.> > A.A.$.$.=.=.u u > > > > < < u u     J J J J J J J J     -.-.` ` | |     J J J J ",
"J J J J J J J J     *.*.$.$.$.$.$.*.&.&.$.$.*.$.> > ; * u u =.=.*.*.A.A.Z.Z.    J J J J J J     O O X.X.e.e.y y     J J J J J J ",
"J J J J J J L J     *.*.$.$.$.$.&.&.&.&.$.*.$.*.> ; & * u u =.=.%.%.A.A.Z.Z.    J J J J J L     O O X.X.e.e.y y     J J J J J J ",
"J J J L J J b A J J     A.A.$.$.&.&.&.&.$.*.$.$.*.*.*.*.< < =.=.k.k.A.A.Z.Z.4 4             A.A.V.V.V.Z.e.e.# # J J J J J J J J ",
"J J Z A J J p b Y D     A.A.$.$.&.&.$.*.$.$.*.$.*.*.*.*.< < =.=.k.k.A.A.Z.Z.4 4             A.A.V.V.V.V.e.e.# # J J J J J J J J ",
"J L j h U J s b Y M     [ [ A.A.$.$.$.$.A.A.A.A.f.f.f.f.= = m.m.A.A.A.A.> > t.t.r.r.A.A.A.A.A.A.A.A.        J J J J J J J J J J ",
"J L H x f J A L x d     [ [ A.A.$.$.$.$.A.A.A.A.f.f.f.f.= = m.m.A.A.A.A.> > t.t.t.t.A.A.A.A.A.A.A.A.        J J J J J J J J J J ",
"J J L D n J L J V M     c.c.A.A.$.$.A.A.A.A.' ' ' ' f.f.>.>.= = > > > > t.t.t.t.A.A.A.A.> > > >     J J J J J J J J J J J J J J ",
"J J J J L J J J J L     c.c.A.A.$.$.A.A.A.A.' ' ' ' f.f.>.>.= = > > > > t.t.t.t.A.A.A.A.> > > >     J J G D G G R P D D D G Y G ",
"J J J J H J J J     M.M.( ( n.n.A.A.A.A.[ [ C.C.] ] ] ] A.A.$.$.0 0                 > , 0 0 0 0     J D P I D F 7.W D G I J A D ",
"J J J J J J J J     M.M.( ( n.n.A.A.A.A.[ [ C.C.] ] ] ] A.A.*.$.0 0                 , > 0 0 0 0     J D W 3.J J 4.R D T 3.J G J ",
"J J J J J J J J     M.M.g.g.n.n.A.A.A.A.x.x.x.x.s.s.~ ~ A.A.k.k.    H J J J J J J J     0 0 0 0     F D D W 7.J J H R 4.G J J J ",
"J J J J J J J J     M.M.g.g.n.n.A.A.A.A.x.x.x.x.s.s.~ ~ A.A.k.k.    J J J J J J J J     0 0 0 0     J J D J I G J J J P J J J J ",
"J J J J J J J J J J $ $ A.A.A.A.A.A.A.A./ / a.a.) ) b.b.j.j.h.h.4 4                  . .0 0     J J J J J J F J J J J D J J J J ",
"J J J J J J J J J J $ $ A.A.A.A.A.A.A.A./ / a.a.) ) b.b.j.j.h.h.4 4                  . .0 0     J J J J J J J J J J J J J J J J ",
"J J J J J J     $ $ A.A.> > > > A.A.A.A.; ; ; ; b.b.b.b.> > > > Z.Z.Z.Z.A.A.A.A.v.v.2 2     J J J J J J J J J J J J J J J J J J ",
"J J J J J J     $ $ C.A.* ; , > A.A.A.A.; ; ; ; b.b.b.b.> > > > Z.Z.Z.Z.A.A.A.A.v.v.2 2     J J J J J J J J J J J J J J J J J J ",
"J J J J     A.A.> & A.A.$.$.$.$.> > > > $.$.A.A.> > > > A.A.A.A.M.M.> > > > > > t.t.t.t.t.t.    J J J J J J J J L J J J J J J J ",
"J J J J     A.A.& ; A.A.$.$.$.$.> > > > $.$.A.A.> > > > A.A.A.A.M.M.> > > > > > t.t.t.t.t.t.    J J J G L L J J x M J J P J J J ",
"J J     A.A.A.A.; * A.A.j.j.$.$.q q #.#.$.$.A.A.> > j.j.A.A.> > > > M.M.j.j.j.j.> > > > t.t.t.t.    J J b b             x D J I ",
"J J     A.A.A.A.& * A.A.h.h.$.*.q q #.#.$.$.A.A.> > j.j.A.A.> > > > M.M.h.h.j.j.> > > > t.t.t.t.    J L v h             h A J J ",
"J J     A.A.O.O.t.t.; & V.B.....> > ;.;.N.N.N.N., , , , > > j.j.h.h.h.h.j.j.j.j.l.l.1 1 . . t.t.t.t.        ^ ^ | | | |     J J ",
"J J     A.A.O.O.t.t.; * B.B.....> > ;.;.N.N.N.N., , , , > > j.j.h.h.h.h.j.h.h.j.l.l.1 1 . . t.t.t.t.        ^ ^ | | | |     J J ",
"J J J J X X X X t.t.t.t.4 4     ;.;.> > N.N.> > :.:.z.z.h.h.j.j.h.h.h.h.t.t.j.j.l.l.@.@.* * . . t.t.t.t.^ ^ ^ ^         J J J J ",
"J J J J X X X X t.t.t.t.4 4     ;.;.> > N.N.> > :.:.z.z.h.j.j.j.j.j.j.j.t.t.j.j.l.l.@.@.* = . . t.t.t.t.^ ^ ^ ^         J J J J ",
"J J J J J D J L             J J     t.t.& & 8 8 A.A.A.A.t.t.            d.d.d.d.u.u.u.u.    J C                 J J J J J J J J ",
"J J J J F V G I             J J     t.t.& & 8 8 A.A.A.A.t.t.            d.d.d.d.u.u.u.u.    I c                 J J J J J J J A ",
"J J H L V s V I x h L H d v P J J J     y.y.8 8 A.A.A.A.    J J J J J J     d.d.u.u.    p V I b h J J h x L J J J J J J J G L x ",
"J J J J J A s M J D D s b J J J J J     y.y.8 8 A.A.A.A.    v J J I H H     d.d.u.u.    D d v J A D d v G G J J J J J J J J J J ",
"J J J J J J M A L J D b D J J J J J     o.o.5 5 A.A.+.+.    j Y J h A G J J     9 9     J M C J J F M D J G J J J J J J J J H L ",
"J J J J J J L J H H J L J J J J J J     o.o.5 5 A.A.+.+.    V A x z A G J J     9 9     J L J J J J L J J J J J J J J J J J J J ",
"J J J J J J J J J J J J J J J J D J J J     A.A.A.A.o o A Y J V h L L G     *.*.9 9     J J J J J J J J J J J D J J J J J J J J ",
"J J J J J J J J J J J J J J J J P J J J     A.A.A.A.o o J J J J D H J J     *.*.0 0     J J J J J J J J J J J L J J G J J J J J ",
"J J J J J J J J J J J F D F D Y q.P H J     *.*.*.*.    J J J J J G J J J J         H J J J J J J J J H J F L q.Y D F F J J J J ",
"J J J J J J J J J J J D 0.,.V R i.Y V 1.    *.*.*.*.    J J J J J J J J J J         J J J J J J J J A 8.1.N U i.E V ,.0.D J J J ",
"J J J J J J J J J J J F ,.8.1.D <.J     *.*.*.*.    J J J J J J J J J J J J J J J J J J J J J J J J D ,.8.1.J 1.J 1.8.,.G J J J ",
"J J J J J J J J J J J J S ,.5.F A D     *.*.*.*.    J J J J J J J J J J J J J J J J J J J J J J J J J D ,.5.J A J 5.Q D G J J J ",
"J J J J J J J J J J J J F D A F J J D A         J J J J J J J J J J J J J J J J J J J J J J J J J J D D Z D J J J Z D J J J J J ",
"J J J J J J J J J J J J J J J J J J J J         J J J J J J J J J J J J J J J J J J J J J J J J J J D F J J J J J J J J J J J J ",
"J J J J J J J J J J J J J J J J J J J J J J J J J J J J J J J J J J J J J J J J J J J J J J J J J J F F J J J J J J J J J J J J "
};
