/* XPM */
static char *_60d16b12b844eb983bde02064966439Es0cSsncjT3jwtUV[] = {
/* columns rows colors chars-per-pixel */
"64 64 116 2 ",
"   c #000400",
".  c #000800",
"X  c #000808",
"o  c #000410",
"O  c #001410",
"+  c #000421",
"@  c #000031",
"#  c #000831",
"$  c #001031",
"%  c #4D3133",
"&  c #52523E",
"*  c #55563E",
"=  c #7B7339",
"-  c #7B7739",
";  c #363C47",
":  c #394152",
">  c #424042",
",  c #424142",
"<  c #414047",
"1  c #474C52",
"2  c #47505A",
"3  c #47535D",
"4  c #757152",
"5  c #777552",
"6  c #475360",
"7  c #4F5A68",
"8  c #4E596B",
"9  c #525A63",
"0  c #525865",
"q  c #525968",
"w  c #525B68",
"e  c #52596B",
"r  c #555F68",
"t  c #63737F",
"y  c #65727E",
"u  c #62747E",
"i  c #65747E",
"p  c #6B717B",
"a  c #9C414A",
"s  c #9A4F57",
"d  c #FF5552",
"f  c #F7D342",
"g  c #F4D442",
"h  c #EFD352",
"j  c #F7D75A",
"k  c #F7E342",
"l  c #FFEF42",
"z  c #F7E352",
"x  c #FFF35A",
"c  c #F7EB63",
"v  c #EFEB73",
"b  c #637380",
"n  c #637184",
"m  c #627484",
"M  c #6B7584",
"N  c #6B798C",
"B  c #39AD85",
"V  c #3DAE86",
"C  c #41B088",
"Z  c #45B38B",
"A  c #46B38B",
"S  c #47B48C",
"D  c #49B48C",
"F  c #48B58D",
"G  c #4DB68E",
"H  c #4EB890",
"J  c #50B890",
"K  c #53B991",
"L  c #55BB93",
"P  c #57BB93",
"I  c #5ABC94",
"U  c #5BBD95",
"Y  c #5CBE96",
"T  c #60BF97",
"R  c #5FC098",
"E  c #60C098",
"W  c #62C199",
"Q  c #64C298",
"!  c #65C39B",
"~  c #67C49C",
"^  c #68C39B",
"/  c #6AC59D",
"(  c #6CC59C",
")  c #6FC79F",
"_  c #6FC89F",
"`  c #6FC8A0",
"'  c #70C7A0",
"]  c #70C8A0",
"[  c #73C9A1",
"{  c #74CBA3",
"}  c #77CBA3",
"|  c #74CBA4",
" . c #75CBA5",
".. c #76CCA4",
"X. c #79CDA5",
"o. c #7BCDA5",
"O. c #7ACFAA",
"+. c #7DCEA8",
"@. c #7CD0AC",
"#. c #7DD1AD",
"$. c #80CFAA",
"%. c #81D0AB",
"&. c #83D2AD",
"*. c #86D3AF",
"=. c #81D3B1",
"-. c #83D5B3",
";. c #84D5B4",
":. c #8AD5B1",
">. c #89D8B9",
",. c #92DAB7",
"<. c #93DAB8",
"1. c #97DBBA",
"2. c #98DBBB",
"3. c #9EDFBF",
"4. c #A6E3C4",
"5. c white",
/* pixels */
"] ] ] ] ] ] ] ] ] ] ] ] ] ] ] ] ] ] ] ] ] ] ] ] ] ] ] ] ] ] ] ] ] ] ] ] ] ] ] ] ] ] ] ] ] ] ] ] ] ] ] ] ] ] ] ] ] ] ] ] ] ] ] ] ",
"] ] ] ] ] ] ] ] ] ] ] ] ] ] ] ] ] ] ] ] ] ] ] ] ] ] ] ] ] ] ] ] ] ] ] ] ] ] ] ] ] ] ] ] ] ] ] ] ] ] ] ] ] ] ] ] ] ] ] ] ] ] ] ] ",
"] ] ] ] ] ] ] ] ] ] ] ] ] ' ] ] ' ] ] ) ] ' ' ] ] ] ] ] ] ] ] ] ] ] ] ] ] ] ] ] ] ] ] ] ] ] ] ] ] ] ] ] ] ] ] ] ] ) ] ] ] ] ] ] ",
"] ] ] ] ] ] ] ] ] ] ] ] _ { { ] ) G ! { { { ] ] ] ] ] ] ] ] ] ] ] ] ] ] ] ] ] ] ] ] ] ] ] ] ] ] ] ] ] ] { { ] ] L T { ] } ] ] ] ",
"] ] ] ] ] ] ] ] ] ] ] ] ] U U X.) B U X.) J ] ] ] ] ] ] ] ] ] ] ] ] ] ] ] ] ] ] ] ] ] ] ] ] ] ] ] ] ] { Y I { ) V L X.) L ) ) ) ",
"] ] ] ] ] ]         ] ] { U G W ] P ! / J G ' { ] ] ] ] ] ] ] ] ] ] ] ] ] ] ] ] ] ] ] ] ] ] ] ] ] ] ] { Y G W ' P W ) L G / ] ] ",
"] ] ] ] ] ]         ] ] ) X.T A ] { ..L G X.] ] ] ] ] ] ] ] ] ] ] ] ] ] ] ] ] ] ] ] ] ] ] ] ] ] ] ] ] ] { ! A ) ] ..Y D } ] ] ] ",
"] ] ] ] ] ]     8 8         ] ] ] ] ] ] ] ] ] ] ] ] ] ] ] ] ] ] ] ] ] ] ] ] ] ] ] ] ] ] ] ] ] ] ] ] ] ] ] ] ) ' ] ] ] ] ] ] ] ] ",
"] ] ] ] ] ]     8 8         ] ] ] ] ] ] ] ] ] ] ] ] ] ] ] ] ] ] ] ] ] ] ] ] ] ] ] ] ] ] ] ] ] ] ] ] ] ] ] ] ] ] ] ] ] ] ] ] ] ] ",
"] ] ] ] ] '     8 8 8 8 8 8     ] ] ] ] ] ] ] ] ] ] ] ] ] ] ] ] ] ] ] ] ] ]             ' ) ] ] { ] ] ] ] ] ] ] ] ] ] ] ] ] ] ] ",
"] ] ] ] ] {     8 8 8 8 8 8     ] ] ] ] ] ] ] ] ] ] ] ] ] ] ] ] ] ] ] ] ] ]             { ) ] ! Y ' ] { ] ] ] ] ] ] ] ] ] ] ] ] ",
"] ] ' ] ) W     8 8 q q f f     ] ] ] ] ] ] ] ] ] ] ] ] ] ] ] ] ] ] o o o o t t t t     ! ' X.P C ] { ! / ] ] ] ] ] ] ] ] ] ] ] ",
"] ] ] ] ! C     8 8 q q f f     ] ] ] ] ] ] ] ] ] ] ] ] ] ) ) ] ] ] o o o o t t t t     C W { Y D ] ] D P } ] ] ] ] ] ] ] ] ] ] ",
"] ] ] ] ` ) C W     f f f f f f     ] ] ] ] ] ] ]  .] ] ] G L ]     c c - - t t     ] ] ) A Y { ] _ A Y ] ] ] ] ] ] ] ] ] ] ] ] ",
"] ] ] ] ] { W )     f f f f f f     ] ] ] ] ] ] ..Y H ..{ A J X.    c c - - u t     ] ] ] ! / ] ] _ W ) { ] ] ] ] ] ] ] ] ] ] ] ",
"] ] ] ] ] ] ] ]     j j & & 8 8     ] ] ] ] ] ] ] / J J ) W     k k f f l l t t     ] ] ] { ] ] ] ] { ] ] ]     ] ] ] ] ] ] ] ] ",
"] ] ] ] ] ] ] ]     j j & & 8 8     ] ] ] ] ] ] ` { ) G / {     k k g g l l u b     ] ] ] ] ] ] ] ] ] ] ] ]     ` ] ] ] ] ] ] ] ",
"] ] ] ] ] ] ] ] ] ] $ $ & & 8 8     ] ` _ ] ] ] ] ] ] { ] ]     k k g g f f     ] ] ] ] ] ] ] ] ] ] ] ]     t t     ] _ ] ] ] ] ",
"] ] ] ] ] ] ] ] ] ] $ $ & & 8 8     _ ] ] ] ] ] ] ] ] ] ] ]     k k g g g g     ] ] ] ] ] ] ] ] ] ] ] ]     t b     ] ] ] ] ] ] ",
"] ] ] ] ] ] ] ] ] ] ] _     w w w w             ] ] ] ]     b b b b x x * *     ] ] ] ] ] ] ] ]     @ @ 5 5 t u     &.2.` ] ] ] ",
"] ] ] ] ] ] ] ] ] ] ] `     q q q q             ' ' ] ]     b b b b x x * *     ] ] ] ] ] ] ] ]     @ @ 5 5 u b     ,.} ] ] ] ] ",
"] ] ] ] ] ] ] ] ] ] ] ]     k k k k t t u b b i         , , b b b b * * # # ] ] ] ] ] ] ] ]     l l v v 5 5 b y     &.) ] ] ] ] ",
"] ] ] ] ] ] ] ] ] ] ] ]     k k k k t t t t t t         , , b b b b * * # # ] ] ] ] ] ] ] ]     l l v v 5 5 u b     ) ] ] ] ] ] ",
"] ] ] ] ] ] ] ] ] ] + + z z l l y y l l y y b b b b , , t t t t         ] ] ] ] ] ] ] ]     f g f f g g l l b u     ] ] ] ] ] ] ",
"] ] ] ] ] ] ] ] ] ] + + z z l l y y l l y y b b b b , , t t t t         ] ] ] ] ] ] ] ]     f f g g g g l l i b     ] ] ] ] ] ] ",
"] ] ] ] ] ] ] ]     = = z z y y y y l l y y b b b b t t t t     ] ] ] ] ] ] ] ] ] ] ] ]     l l l l g g f f     ] ] ] ] ] ] ] ] ",
"] ] ] ] ] ] { ]     = = z z y y y y l l y y b b b b t t t t     ] ] ] ] ] ] ] ] ] ] ] '     l l l l g g g g     ] ] ] ] ] ] ] ] ",
"] ] ] { ] ) W /     u u f f u u f f f f u u t t t t t t     ] ] ] ] ] ] ] ` _ ] ] ]     b y b b b b z z z z     ] ] ] ] ] ] ] ] ",
"] ] ^ / ] ] V Y     u u f f u u f f f f u u t t t t t t     ] ] ] ] ] ] ] ] ] ] ] )     t t b t b b z z z z     ] ] ] ] ] ] ] ] ",
"] { G G ..]     5.5.u u u u f f f f u u u u , , , , t t t t     ] ] ] ] ] ] ] ..] L     t t b t b b = - + + ] ] ] ] ] ] ] ] ] ] ",
"] { ' L S ]     5.5.u u u u f f f f u u u u , , , , t t t t     ] ] ] ] ] ] ] ] ] ]     t t u t t t = = + + ] ] ] ] ] ] ] ] ] ] ",
"] ] { ) E ]     a a b b b b t t u b % % % % 5.5.d d i i i i     ] ] ] ] ] ] ] ] ] {     8 8 8 8 i t t b     ] ] ) ] ] ] ] ] ] ] ",
"] ] ] ] { ]     a a b b b b i b t t % % % % 5.5.d d i i i b     ] ] ] ] ] ] ] ] ] ]     8 8 0 7 i i u u     ] ` @. .) ) ) ` X./ ",
"] ] ] ] ] ] ] ]     b b b b b y , , s s O O d d d d i i w 8     ] ] ] ] ] ] ] ] ] ]     8 8 8 8 7 7     ...._ _ >.#./ ' X.] ` ] ",
"] ] ] ] ] ] ] ]     b b b b y b , , s s O O d d d d i i q 8     ] ] ] ] ] ] ] ] ] ]     8 8 8 0 8 q     #.-.] ` -.O.) O.=.] ] ] ",
"] ] ] ] ] ] ] ]     p p p p b b b b r r d d d d e e e q     ] ] ] ] ] ]             , , 9 9 8 8     ] ] _ #.>.] _ ) O.-.] ] ] ] ",
"] ] ] ] ] ] ] ]     p p p p b b b b r r d d d d e e e e     ] ] ] ] ] ]             , , 9 9 8 8     ] ] _ ] ..] _ ] ]  .] ] ] ] ",
"] ] ] ] ] ] ] ] ] ]     1 1 b b b b r r r r e e e e ; ; e e             b b i b t t m m , ,     ] ] ] ] ] ] _ ] ] ] ] ) ] ] ] ] ",
"] ] ] ] ] ] ] ] ] ]     1 1 b b b b r r r r e e e e ; ; q q             u b b u t t m m , ,     ] ] ] ] ] ] ] ] ] ] ] ] ] ] ] ] ",
"] ] ] ] ] ] ] ] ] ] ] ]         8 8 0 8 7 7 , , , , 7 7 0 8 b b b b b b b b b b b b b b b b     ] ] ] ] ] ] ] ] ] ] ] ] ] ] ] ] ",
"] ] ] ] ] ] ] ] ] ] ] ]         8 8 7 7 7 7 , , , , 7 7 7 7 b b b b b b b b b b b b b b b b     ] ] ] ] ] ] ] ] ] ] ] ] ] ] ] ] ",
"] ] ] ] ] ] ] ] ] ] ] ] ] ] ] ]     7 7 7 7 7 7 7 7 7 7 y y b b b b b b b b b b b b b b b b l l     ] ] ] ] ] ] { ] ] ] ] ] ] ] ",
"] ] ] ] ] ] ] ] ] ] ] ] ] { { ]     8 0 7 7 7 7 0 8 8 8 y y t t b b b b b b b b b b b b b b l l     ] ] { { ] ] L Y { ] { ] ] ] ",
"] ] ] ] ] ] ] ] ] ] ] ] { Y Y {     8 8 8 8 0 0 0 9 y y y y k k u u y b t t M M M M y y l l t t     ] ] W Y { ] V P X.) P ) ] { ",
"] ] ] ] ] ] ] ] ] ] ] ] ..L G ~     8 8 8 8 0 0 6 0 p y y t k k b i b t t t M M M M y y l l t t     ] { Y D ! ) J W ) U D ) ] ] ",
"] ] ] ] ] ] ] ] ] ] ] ] _ ..Y Z ] X.    8 8 : > n n y y l l t t k k , , , , X X 2 2 y y l l t t     ] ] ..W A ) { ..L S { ' ] ] ",
"] ] ] ] ] ] ] ] ] ] ] ] ` ] ] _ ] ]     8 8 , > n n y y l l t t k k , , , , X X 2 2 y y l l t t     ] ] ] ] ] ] ] ] ' ) ] ] ] ] ",
"] ] ] ] ] ] ] ] ] ] ] ] ] ] ] ] ] ] ] ]     8 q ; & y y l l 4 4 : : , ,     ' ]     6 6 N N f f q q     ] ] ] ] ] ] ] ] ] ] ] ] ",
"] ] ] ] ] ] ] ] { { ] ] ] ) ] ] ] ] ] ]     8 7 , , i i l l 4 4 : : > >     ] ]     6 6 N N f f q q     ] ] ] ] ] ] ] ] ] ] ] ] ",
"] ] ] ] ] ] ] { ! T ] ' { { ] ] ] ] ] ]     0 8 , , y y y y h h : : > > , ,     ] ] X X 6 6 q q q q     ] _ ] ] ] ] ] ] ] ] ] ] ",
"] ] ] ] ) ! ] X.J C { ] ! ) ] ] ] ] ] ]     8 0 , , y y y y h h : : > > , ,     ] ] X X 6 6 9 0 q q     ( _ ] ] ] ] ] ] ] ] ] / ",
"] ] ] { ! C ^ { P D { ' A I { ] ] ] ] ]     9 9 , , t u b b , ,     > > , ,     ] ] ] /     8 8 8 q     L ..] ] ] ] ] ] ] ] } L ",
"] ] ] ] ] / A Y ) ) ( A Y ) ) ] ] ] ] ]     9 9 , , b b b b , ,     > > , ,     ] ] ] ]     8 0 8 0     ] ] ] ] ] ] ] ] ] ] ] ] ",
"] ] ] ] ] ] T / ) [ ) T ) { ] ] ] ]     8 8 , , m m b b b b     ' D         ] ] ] ]     8 8 , , 7 7     ..] ] ] ] ] ] ] ] ] ] { ",
"] ] ] ] ] ] { { ' ] ] { ] ] ] ] ] ]     8 8 , , m m b b b b     L J         ] ] ] ]     8 8 , , 7 8     _ ] ] ] ] ] ] ] ] ] ] ] ",
"] ] ] ] ] ] ] ] ] ] ] ] ] ] ] ] ) ]     , , N N 3 3 u b     { W G |  .] ] ] ] ] ] ] ] ]             ] ] ` ] ] _ _ ] ] ] ] ] ] ] ",
"] ] ] ] ] ] ] ] ] ] ] ] ] ] ] ]  .]     , , N N 3 3 y b     ] ] ) ' ] ] ] ] ] ] ] ] ] ]             ] ] ] ] ]  .] ] ] ] ] ] ] ] ",
"] ] ] ] ] ] ] ] ] ] ] ] ' ] ) X.3.{ ) ]     . . . .     ] ] ] ] ] ] ] ] ] ] ] ] ] ] ] ] ] ] ] ] ] ] ] ) _ )  .3.X.) _ _ ] ] ] ] ",
"] ] ] ] ] ] ] ] ] ] ] ) 1.*.Q o.4...Q *.      . . .     ] ] ] ] ] ] ] ] ] ] ] ] ] ] ] ] ] ] ] ] ] ] ) ,.*.! ..4.+.! %.1.) ] ] ] ",
"] ] ] ] ] ] ] ] ] ] ] ] $.,.*.] *.] *.,.$.' ] ] ] ] ] ] ] ] ] ] ] ] ] ] ] ] ] ] ] ] ] ] ] ] ] ] ] ] ) +.,.*.] &.] *.,.%.` ] ] ] ",
"] ] ] ] ] ] ] ] ] ] ] ] ( &.:./ / ) :.%.) ] ] ] ] ] ] ] ] ] ] ] ] ] ] ] ] ] ] ] ] ] ] ] ] ] ] ] ] ] ] ) %.:.) / / :.%.) ] ] ] ] ",
"] ] ] ] ] ] ] ] ] ] ] ] _ ) ) ] ] ] ) / ) ] ] ] ] ] ] ] ] ] ] ] ] ] ] ] ] ] ] ] ] ] ] ] ] ] ] ] ] ] ) ) ) ) _ _ _ / ) ] ] ] ] ] ",
"] ] ] ] ] ] ] ] ] ] ] ] ] ] _ _ ] ] ] ] ) _ ] ] ] ] ] ] ] ] ] ] ] ] ] ] ] ] ] ] ] ] ] ] ] ] ] ] ] ] _ _ ] ] ] ] ] ] ] ] ] ] ] ] ",
"] ] ] ] ] ] ] ] ] ] ] ] ] ] ] _ ] ] ] ] ] ] ] ] ] ] ] ] ] ] ] ] ] ] ] ] ] ] ] ] ] ] ] ] ] ] ] ] ] ] ` _ ] ] ] ] ] ] ] ] ] ] ] ] "
};
