/* XPM */
static char *_68497488002492ce11dfa885adc3cd2B8LCYw8kAObywhux[] = {
/* columns rows colors chars-per-pixel */
"64 64 117 2 ",
"   c white",
".  c #FDFDFD",
"X  c #FEFEFF",
"o  c #FDFCFC",
"O  c #FEFEFE",
"+  c gray99",
"@  c #FDFDFE",
"#  c #EEE9E4",
"$  c #4B4A4A",
"%  c #E4EAF0",
"&  c #FEF9F5",
"*  c #454342",
"=  c #BCC2C9",
"-  c #696663",
";  c #BABEC1",
":  c #746F6A",
">  c #333334",
",  c #2E2F30",
"<  c #C7CDD2",
"1  c #C4BEB9",
"2  c #2F2D2C",
"3  c #383C3F",
"4  c #BEBEBF",
"5  c #4D4946",
"6  c #3B3D3D",
"7  c #3D3C3B",
"8  c #474A4E",
"9  c #EDF0F4",
"0  c #FFFEFE",
"q  c #FFFFFD",
"w  c #15110C",
"e  c #ADB6C0",
"r  c #DFD7CF",
"t  c black",
"y  c #727C86",
"u  c #121110",
"i  c #D2D6D8",
"p  c #231E1A",
"a  c #9399A2",
"s  c gray91",
"d  c #F6F3F1",
"f  c #18120D",
"g  c #858E96",
"h  c #E3E1DE",
"j  c #D2D4D5",
"k  c #E4E2E0",
"l  c #3F3833",
"z  c #474D54",
"x  c #DEDFE0",
"c  c #F7F8F9",
"v  c #FBFBFB",
"b  c #5E564F",
"n  c #757D85",
"m  c #A39D97",
"M  c #1E1D1D",
"N  c #50565C",
"B  c #CAC6C1",
"V  c #2C2F34",
"C  c #2B2722",
"Z  c #4C4F53",
"A  c #85878A",
"S  c #645C54",
"D  c #07090D",
"F  c #A3A8AD",
"G  c #635A54",
"H  c #6C737D",
"J  c #FCFCFB",
"K  c #FCFBFB",
"L  c #A49C94",
"P  c #414347",
"I  c #5A5958",
"U  c #999A9A",
"Y  c #454443",
"T  c #696766",
"R  c #626970",
"E  c #25211E",
"W  c #74797E",
"Q  c #BCBDBE",
"!  c #FBFDFF",
"~  c #A9A39E",
"^  c #848C94",
"/  c #5A524C",
"(  c #666D76",
")  c #FEFDFD",
"_  c #E8E3DD",
"`  c #090400",
"'  c #0F151B",
"]  c #F8FBFC",
"[  c #4B433B",
"{  c #AFB6BE",
"}  c #14100E",
"|  c #8B9199",
" . c #DEDDDD",
".. c #DDDBDA",
"X. c #A0A0A0",
"o. c #EFEFEF",
"O. c #302923",
"+. c #646D76",
"@. c #4F463F",
"#. c #5C636D",
"$. c #6A6560",
"%. c #696F74",
"&. c #A39C96",
"*. c #414448",
"=. c #EFF3F6",
"-. c #6D6965",
";. c gray24",
":. c #37383A",
">. c #BDBFC2",
",. c #77716D",
"<. c #272829",
"1. c #5E6165",
"2. c #EFF1F4",
"3. c #8E8884",
"4. c #9499A0",
"5. c #FEFFFF",
"6. c #FDFDFC",
/* pixels */
"                                                                                                                                ",
"                                                                                                                                ",
"                                                                                                                                ",
"                                                                                                                                ",
"                                                                                                                                ",
"                                                                                                                                ",
"                                                                                                                                ",
"                                                                                                                                ",
"                                                                                                                                ",
"                                                                                                                                ",
"                                                                                                                                ",
"                                                                                                                                ",
"                                                                                                                                ",
"                                                                                                                                ",
"                                                                                                                                ",
"                                                                                                                                ",
"                                                                                                                                ",
"                                                                                                                                ",
"                                                                                                                                ",
"                                                                                                                                ",
"                                                                                                                                ",
"                                                                                                                                ",
"                                                                                                                                ",
"                                                                                                                                ",
"                                                                                                                                ",
"                                    . X   o O   . X . . .   + O O @ O . . O                                                     ",
"                                              O                                                                                 ",
"                              O   # $ % & * =   - ; : > , < 1 2 3 4 5 6 7 8 9   O                                               ",
"                              0   q w e r t y   u i p a s d f g h j k l z x c                                                   ",
"                                v   b n m M N B V   C Z A   S D F     G H   J                                                   ",
"                                K   L P I U Y T R   E W Q !   ~ t ^   / (   v                                                   ",
"                                )   _ ` ' ] [ t {   } |  ...X.o.O.+.  @.#.  v                                                   ",
"                                  X   $.%.  &.*.=.  -.;.:.>.,.<.1.2.  3.4.  +                                                   ",
"                                          .       5.                .     O                                                     ",
"                                      + +   . + X   6.+ . O + O + O   . .                                                       ",
"                                                                                                                                ",
"                                                                                                                                ",
"                                                                                                                                ",
"                                                                                                                                ",
"                                                                                                                                ",
"                                                                                                                                ",
"                                                                                                                                ",
"                                                                                                                                ",
"                                                                                                                                ",
"                                                                                                                                ",
"                                                                                                                                ",
"                                                                                                                                ",
"                                                                                                                                ",
"                                                                                                                                ",
"                                                                                                                                ",
"                                                                                                                                ",
"                                                                                                                                ",
"                                                                                                                                ",
"                                                                                                                                ",
"                                                                                                                                ",
"                                                                                                                                ",
"                                                                                                                                ",
"                                                                                                                                ",
"                                                                                                                                ",
"                                                                                                                                ",
"                                                                                                                                ",
"                                                                                                                                ",
"                                                                                                                                ",
"                                                                                                                                "
};
